<svg xmlns="http://www.w3.org/2000/svg" viewBox="0 0 600 200"><defs><g id="group_space" stroke="#000" data-unicode=" " data-glyph-name=" "><rect id="padding_space" x="0" y="0" width="96.80000000000001" height="78" fill="transparent" stroke-width=".06"/><path id="plot_space" stroke-width="4" fill="transparent" d="M 65,56.40000000000009 C 59.08,61.360000000000085 41.32,76.24000000000005 35.4,81.20000000000005 M 33,57.200000000000045 C 35.8,58.54000000000005 41.72,59.580000000000055 47,63.900000000000055 C 52.28,68.22000000000006 56.92,75.82000000000006 59.400000000000006,78.80000000000007 M 25.6,47.60000000000002 C 35.68,47.44000000000003 66.57000000000001,44.81000000000006 76,46.80000000000007 C 85.42999999999999,48.79000000000008 73.06999999999998,47.63000000000008 72.74999999999999,57.55000000000008 C 72.42999999999999,67.47000000000008 77.69,88.30000000000011 74.4,96.40000000000009 C 71.11000000000001,104.50000000000007 67.98,98.37 56.3,98.05 C 44.62,97.72999999999999 25.18,99.13000000000005 16,94.80000000000007 C 6.82,90.47000000000008 11.200000000000001,85.5200000000001 10.4,76.40000000000009 C 9.600000000000001,67.28000000000009 11.52,55.12000000000005 12,49.200000000000045 C 12.48,43.280000000000044 8.96,47.440000000000076 12.8,46.80000000000007 C 16.64,46.16000000000006 27.520000000000003,46.16000000000002 31.200000000000003,46"/></g><g id="group_lowercase_letter_a" stroke="#000" data-unicode="a" data-glyph-name="a"><rect id="padding_lowercase_letter_a" x="0" y="0" width="81.60000000000001" height="93" fill="transparent" stroke-width=".06"/><path id="plot_lowercase_letter_a" stroke-width="4" fill="transparent" d="M 54.2,66 C 49.72,64.08000000000001 40.279999999999994,56.56000000000008 31.799999999999997,56.40000000000009 C 23.32,56.2400000000001 16.760000000000005,61.84000000000005 11.800000000000004,65.20000000000005 C 6.840000000000005,68.56000000000003 7.960000000000001,70.00000000000004 7,73.20000000000005 C 6.039999999999999,76.40000000000005 3.3199999999999976,77.84000000000006 7,81.20000000000005 C 10.680000000000001,84.56000000000003 17.240000000000002,88.72000000000001 25.400000000000006,90 C 33.56000000000001,91.28 42.04000000000001,92.72 47.80000000000001,87.60000000000002 C 53.56000000000001,82.48000000000005 52.440000000000005,63.1200000000001 54.2,64.40000000000009 C 55.96,65.68000000000009 56.92000000000001,90 56.60000000000001,94 C 56.28000000000001,98 53.400000000000006,86.32000000000008 52.60000000000001,84.40000000000009"/></g><g id="group_lowercase_letter_b" stroke="#000" data-unicode="b" data-glyph-name="b"><rect id="padding_lowercase_letter_b" x="0" y="0" width="72.4" height="86" fill="transparent" stroke-width=".06"/><path id="plot_lowercase_letter_b" stroke-width="4" fill="transparent" d="M 5.599999999999994,32.40000000000009 C 6.239999999999995,37.360000000000085 6.56,48.40000000000004 8.799999999999997,57.200000000000045 C 11.039999999999997,66.00000000000004 13.919999999999995,74.96000000000008 16.799999999999997,76.40000000000009 C 19.68,77.8400000000001 20.000000000000004,68.2400000000001 23.200000000000003,64.40000000000009 C 26.400000000000002,60.56000000000008 27.839999999999996,58.48000000000006 32.8,57.200000000000045 C 37.76,55.92000000000003 44.48,56.08 48,58 C 51.52,59.92 52.64000000000001,61.20000000000007 50.400000000000006,66.80000000000007 C 48.160000000000004,72.40000000000006 46.08,85.2 36.8,86 C 27.519999999999996,86.8 10.56,73.84000000000006 4,70.80000000000007"/></g><g id="group_lowercase_letter_c" stroke="#000" data-unicode="c" data-glyph-name="c"><rect id="padding_lowercase_letter_c" x="0" y="0" width="70.80000000000001" height="72" fill="transparent" stroke-width=".06"/><path id="plot_lowercase_letter_c" stroke-width="4" fill="transparent" d="M 33.80000000000001,45.200000000000045 C 30.12000000000001,44.88000000000004 20.520000000000007,40.08000000000001 15.400000000000006,43.60000000000002 C 10.280000000000005,47.120000000000026 4.360000000000003,56.72000000000007 8.200000000000003,62.80000000000007 C 12.040000000000003,68.88000000000007 26.28000000000001,74 34.60000000000001,74 C 42.92000000000001,74 46.76000000000001,65.04000000000005 49.80000000000001,62.80000000000007"/></g><g id="group_lowercase_letter_d" stroke="#000" data-unicode="d" data-glyph-name="d"><rect id="padding_lowercase_letter_d" x="0" y="0" width="66.39999999999999" height="86.80000000000007" fill="transparent" stroke-width=".06"/><path id="plot_lowercase_letter_d" stroke-width="4" fill="transparent" d="M 44.39999999999999,65.20000000000005 C 42.16,63.92000000000005 39.28,59.92000000000007 33.2,58.80000000000007 C 27.120000000000005,57.680000000000064 18.96,58.64000000000003 14,59.60000000000002 C 9.039999999999997,60.56000000000001 10.019999999999989,60.490000000000016 8.399999999999991,63.60000000000002 C 6.779999999999991,66.71000000000002 5.579999999999998,71.63000000000004 5.9,75.15000000000005 C 6.2200000000000015,78.67000000000006 6.619999999999999,78.87000000000005 10,81.20000000000005 C 13.38,83.53000000000004 17.68,86.32000000000008 22.799999999999997,86.80000000000007 C 27.919999999999995,87.28000000000006 31.759999999999994,87.12000000000003 35.599999999999994,83.60000000000002 C 39.44,80.08000000000001 40.72,80.56000000000003 42,69.20000000000005 C 43.28,57.84000000000005 40.88,23.76000000000006 42,26.800000000000068 C 43.12,29.840000000000078 46.48,72.88000000000008 47.599999999999994,84.40000000000009"/></g><g id="group_lowercase_letter_e" stroke="#000" data-unicode="e" data-glyph-name="e"><rect id="padding_lowercase_letter_e" x="0" y="0" width="68.4" height="65" fill="transparent" stroke-width=".06"/><path id="plot_lowercase_letter_e" stroke-width="4" fill="transparent" d="M 11.799999999999997,53.200000000000045 C 17.88,52.08000000000004 40.120000000000005,51.120000000000026 42.2,47.60000000000002 C 44.28,44.08000000000002 30.040000000000003,34.48000000000001 22.200000000000003,35.60000000000002 C 14.360000000000001,36.72000000000003 1.5599999999999998,46.960000000000036 3,53.200000000000045 C 4.4399999999999995,59.440000000000055 20.919999999999998,64.88000000000007 29.4,66.80000000000007 C 37.879999999999995,68.72000000000007 42.2,63.60000000000007 45.400000000000006,62.80000000000007"/></g><g id="group_lowercase_letter_f" stroke="#000" data-unicode="f" data-glyph-name="f"><rect id="padding_lowercase_letter_f" x="0" y="0" width="24.799999999999997" height="109.20000000000005" fill="transparent" stroke-width=".06"/><path id="plot_lowercase_letter_f" stroke-width="4" fill="transparent" d="M 52.8,56.40000000000009 C 49.379999999999995,53.34000000000008 44.660000000000004,39.98000000000006 35.7,41.10000000000005 C 26.740000000000002,42.220000000000034 11.940000000000001,48.38 8,62 C 4.060000000000001,75.62 14.399999999999997,99.76000000000003 16,109.20000000000005 M 11.199999999999996,86.80000000000007 C 15.199999999999998,87.44000000000005 27.200000000000003,89.36000000000001 31.200000000000003,90"/></g><g id="group_lowercase_letter_g" stroke="#000" data-unicode="g" data-glyph-name="g"><rect id="padding_lowercase_letter_g" x="0" y="0" width="62.8" height="65" fill="transparent" stroke-width=".06"/><path id="plot_lowercase_letter_g" stroke-width="4" fill="transparent" d="M 39.8,43.60000000000002 C 36.69,41.97000000000002 31.610000000000003,34.489999999999995 24.250000000000004,35.45000000000002 C 16.890000000000004,36.41000000000003 1.4899999999999995,41.81000000000007 3,48.40000000000009 C 4.509999999999998,54.99000000000011 24.599999999999994,69.3600000000001 31.799999999999997,68.40000000000009 C 39,67.44000000000008 36.6,47.76000000000003 39,43.60000000000002 C 41.4,39.44000000000001 45.71999999999999,34.800000000000026 43.8,47.60000000000002 C 41.88,60.40000000000002 37.56,96.56 29.400000000000006,107.60000000000002 C 21.240000000000002,118.64000000000003 8.280000000000001,103.76000000000006 3,102.80000000000007"/></g><g id="group_lowercase_letter_h" stroke="#000" data-unicode="h" data-glyph-name="h"><rect id="padding_lowercase_letter_h" x="0" y="0" width="72.8" height="100" fill="transparent" stroke-width=".06"/><path id="plot_lowercase_letter_h" stroke-width="4" fill="transparent" d="M 4,30 C 5.6,44.08000000000002 9.279999999999998,90.8000000000001 12,100.40000000000009 C 14.720000000000002,110.00000000000009 13.280000000000008,83.92 17.60000000000001,78 C 21.92000000000001,72.08 26.56000000000001,65.04000000000005 33.60000000000001,70.80000000000007 C 40.64000000000001,76.56000000000009 48.959999999999994,99.60000000000007 52.8,106.80000000000007"/></g><g id="group_lowercase_letter_i" stroke="#000" data-unicode="i" data-glyph-name="i"><rect id="padding_lowercase_letter_i" x="0" y="0" width="57.2" height="95.60000000000002" fill="transparent" stroke-width=".06"/><path id="plot_lowercase_letter_i" stroke-width="4" fill="transparent" d="M 13.399999999999999,50.80000000000007 C 13.879999999999997,59.600000000000065 15.319999999999997,86.00000000000007 15.799999999999997,94.80000000000007 M 17.4,16.40000000000009 C 18.36,17.840000000000078 23.48,21.840000000000032 22.200000000000003,23.600000000000023 C 20.92,25.360000000000014 11.96,26.000000000000046 11,25.200000000000045 C 10.04,24.400000000000045 16.119999999999997,20.720000000000027 17.4,19.600000000000023"/></g><g id="group_lowercase_letter_j" stroke="#000" data-unicode="j" data-glyph-name="j"><rect id="padding_lowercase_letter_j" x="-18" y="0" width="22" height="65" fill="transparent" stroke-width=".06"/><path id="plot_lowercase_letter_j" stroke-width="4" fill="transparent" d="M 13.200000000000017,34.80000000000007 C 12.240000000000014,43.280000000000065 11.990000000000002,65.82000000000005 8.400000000000006,77.20000000000005 C 4.810000000000002,88.58000000000004 0.5300000000000038,90.42000000000002 -4.749999999999997,91.70000000000002 C -10.029999999999998,92.98000000000002 -17.11,88.58000000000001 -18,83.60000000000002 C -18.89,78.62000000000003 -10.959999999999997,70.16000000000005 -9.199999999999996,66.80000000000007 M 16.400000000000006,18 C 15.100000000000005,18.080000000000005 9.58,17.920000000000016 9.899999999999999,18.400000000000034 C 10.219999999999997,18.880000000000052 16.38,20.000000000000078 18,20.40000000000009"/></g><g id="group_lowercase_letter_k" stroke="#000" data-unicode="k" data-glyph-name="k"><rect id="padding_lowercase_letter_k" x="0" y="0" width="72" height="89" fill="transparent" stroke-width=".06"/><path id="plot_lowercase_letter_k" stroke-width="4" fill="transparent" d="M 5,16.40000000000009 C 5.799999999999998,33.360000000000085 8.2,84.24000000000005 9,101.20000000000005 M 36.2,34 C 30.76,39.280000000000015 8.839999999999998,49.36000000000008 9,60.40000000000009 C 9.16,71.4400000000001 31.4,83.44000000000005 37,89.20000000000005"/></g><g id="group_lowercase_letter_l" stroke="#000" data-unicode="l" data-glyph-name="l"><rect id="padding_lowercase_letter_l" x="0" y="0" width="44.800000000000004" height="110.80000000000007" fill="transparent" stroke-width=".06"/><path id="plot_lowercase_letter_l" stroke-width="4" fill="transparent" d="M 14,14.800000000000068 C 12.389999999999999,32.970000000000056 5.7899999999999885,86.45000000000002 5.95,105.65000000000002 C 6.110000000000001,124.85000000000002 13.030000000000003,109.77000000000005 14.800000000000004,110.80000000000007"/></g><g id="group_lowercase_letter_m" stroke="#000" data-unicode="m" data-glyph-name="m"><rect id="padding_lowercase_letter_m" x="0" y="0" width="82" height="96.40000000000009" fill="transparent" stroke-width=".06"/><path id="plot_lowercase_letter_m" stroke-width="4" fill="transparent" d="M 7,58.80000000000007 C 7.239999999999999,66.26000000000006 5.89,96.11000000000006 8.2,96.10000000000005 C 10.509999999999998,96.09000000000005 14.469999999999999,65.09000000000006 18.549999999999997,58.75000000000007 C 22.629999999999995,52.41000000000008 25.790000000000003,59.27000000000009 28.6,64.40000000000009 C 31.41,69.5300000000001 31.479999999999997,84.88000000000011 32.599999999999994,84.40000000000009 C 33.71999999999999,83.92000000000007 30.67999999999999,64.72 34.19999999999999,62 C 37.719999999999985,59.279999999999994 46.83999999999999,64.24000000000005 50.19999999999999,70.80000000000007 C 53.55999999999999,77.36000000000008 50.839999999999996,90.00000000000007 51,94.80000000000007"/></g><g id="group_lowercase_letter_n" stroke="#000" data-unicode="n" data-glyph-name="n"><rect id="padding_lowercase_letter_n" x="0" y="0" width="60.400000000000006" height="86.80000000000007" fill="transparent" stroke-width=".06"/><path id="plot_lowercase_letter_n" stroke-width="4" fill="transparent" d="M 7,44.40000000000009 C 7.3199999999999985,52.88000000000009 6.679999999999998,86.64000000000007 8.599999999999998,86.80000000000007 C 10.519999999999998,86.96000000000006 11.07,51.78000000000005 16.599999999999998,45.200000000000045 C 22.13,38.62000000000004 31.29,45.900000000000055 36.25,53.900000000000055 C 41.21,61.900000000000055 40.370000000000005,78.94000000000005 41.400000000000006,85.20000000000005"/></g><g id="group_lowercase_letter_o" stroke="#000" data-unicode="o" data-glyph-name="o"><rect id="padding_lowercase_letter_o" x="0" y="0" width="69.6" height="82.80000000000007" fill="transparent" stroke-width=".06"/><path id="plot_lowercase_letter_o" stroke-width="4" fill="transparent" d="M 39.599999999999994,46 C 37.04,45.040000000000006 32.40000000000001,40.88000000000004 26.80000000000001,41.200000000000045 C 21.200000000000014,41.520000000000046 15.280000000000005,41.520000000000024 11.600000000000001,47.60000000000002 C 7.919999999999998,53.68000000000002 3.439999999999997,64.56000000000002 8.399999999999999,71.60000000000002 C 13.36,78.64000000000003 29.360000000000007,85.84000000000006 36.400000000000006,82.80000000000007 C 43.440000000000005,79.76000000000008 43.919999999999995,64.2400000000001 43.599999999999994,56.40000000000009 C 43.279999999999994,48.56000000000008 36.56000000000001,46.16000000000004 34.80000000000001,43.60000000000002"/></g><g id="group_lowercase_letter_p" stroke="#000" data-unicode="p" data-glyph-name="p"><rect id="padding_lowercase_letter_p" x="0" y="0" width="81.2" height="57" fill="transparent" stroke-width=".06"/><path id="plot_lowercase_letter_p" stroke-width="4" fill="transparent" d="M 19.400000000000002,110 C 17.32,105.04 10.440000000000001,94.80000000000004 9,85.20000000000005 C 7.56,75.60000000000005 8.200000000000001,73.67999999999999 12.2,62 C 16.2,50.32 21.16,32.40000000000007 29,26.800000000000068 C 36.84,21.200000000000067 49.00000000000001,27.920000000000005 51.400000000000006,34 C 53.800000000000004,40.08 48.199999999999996,53.360000000000035 41,57.200000000000045 C 33.800000000000004,61.040000000000056 20.520000000000003,54.00000000000004 15.400000000000002,53.200000000000045"/></g><g id="group_lowercase_letter_q" stroke="#000" data-unicode="q" data-glyph-name="q"><rect id="padding_lowercase_letter_q" x="0" y="0" width="72" height="66" fill="transparent" stroke-width=".06"/><path id="plot_lowercase_letter_q" stroke-width="4" fill="transparent" d="M 66.39999999999998,38.80000000000007 C 64.47999999999999,36.88000000000007 62.35000000000001,31.93000000000005 56.80000000000001,29.200000000000045 C 51.250000000000014,26.47000000000004 48.410000000000004,21.470000000000052 38.65,25.15000000000005 C 28.889999999999993,28.830000000000048 5.8100000000000005,39.27000000000002 8,47.60000000000002 C 10.19,55.93000000000003 37.92,68.88000000000007 49.599999999999994,66.80000000000007 C 61.27999999999999,64.72000000000007 63.19999999999997,30.32000000000005 66.39999999999998,37.200000000000045 C 69.59999999999998,44.08000000000004 61.600000000000016,86.64000000000006 65.60000000000002,101.20000000000005 C 69.60000000000002,115.76000000000003 80.47999999999999,111.92 86.39999999999998,110 C 92.31999999999996,108.08 93.43999999999998,95.28000000000002 95.19999999999999,91.60000000000002"/></g><g id="group_lowercase_letter_r" stroke="#000" data-unicode="r" data-glyph-name="r"><rect id="padding_lowercase_letter_r" x="0" y="0" width="61.19999999999999" height="85.20000000000005" fill="transparent" stroke-width=".06"/><path id="plot_lowercase_letter_r" stroke-width="4" fill="transparent" d="M 12.399999999999999,31.600000000000023 C 11.119999999999997,42.32000000000003 5.039999999999999,84.88000000000004 6,85.20000000000005 C 6.960000000000001,85.52000000000005 10.64,42.16000000000004 17.200000000000003,33.200000000000045 C 23.760000000000005,24.24000000000005 34.48000000000001,38.96000000000008 38.80000000000001,40.40000000000009"/></g><g id="group_lowercase_letter_s" stroke="#000" data-unicode="s" data-glyph-name="s"><rect id="padding_lowercase_letter_s" x="0" y="0" width="80.8" height="87.60000000000002" fill="transparent" stroke-width=".06"/><path id="plot_lowercase_letter_s" stroke-width="4" fill="transparent" d="M 54.8,50.80000000000007 C 49.839999999999996,46.48000000000006 37.84,29.200000000000042 30,29.200000000000045 C 22.16,29.200000000000045 13.520000000000001,44.24000000000008 15.600000000000001,50.80000000000007 C 17.680000000000003,57.360000000000056 34.32000000000001,55.76000000000001 40.400000000000006,62 C 46.480000000000004,68.23999999999998 51.28,76.88 46,82 C 40.72,87.12 22,90.16000000000001 14,87.60000000000002 C 6.000000000000001,85.04000000000003 7.6000000000000005,72.88000000000004 6,69.20000000000005"/></g><g id="group_lowercase_letter_t" stroke="#000" data-unicode="t" data-glyph-name="t"><rect id="padding_lowercase_letter_t" x="-15" y="0" width="13.599999999999994" height="95" fill="transparent" stroke-width=".06"/><path id="plot_lowercase_letter_t" stroke-width="4" fill="transparent" d="M -15,42.80000000000007 C 2.760000000000005,42.32000000000007 56.040000000000006,40.88000000000009 73.80000000000001,40.40000000000009 M 20.200000000000003,22.800000000000068 C 20.040000000000003,37.20000000000007 19.56,80.40000000000006 19.4,94.80000000000007"/></g><g id="group_lowercase_letter_u" stroke="#000" data-unicode="u" data-glyph-name="u"><rect id="padding_lowercase_letter_u" x="0" y="0" width="78.80000000000001" height="82.80000000000007" fill="transparent" stroke-width=".06"/><path id="plot_lowercase_letter_u" stroke-width="4" fill="transparent" d="M 13,27.600000000000023 C 12.2,36.24000000000003 3.0799999999999956,62.80000000000007 9,70.80000000000007 C 14.920000000000005,78.80000000000007 33.64000000000002,74.16000000000004 42.60000000000002,67.60000000000002 C 51.560000000000024,61.040000000000006 51.88000000000002,36.08 53.80000000000001,38 C 55.720000000000006,39.92 52.519999999999996,69.36000000000004 52.19999999999999,77.20000000000005"/></g><g id="group_lowercase_letter_v" stroke="#000" data-unicode="v" data-glyph-name="v"><rect id="padding_lowercase_letter_v" x="0" y="0" width="69.20000000000002" height="90.80000000000007" fill="transparent" stroke-width=".06"/><path id="plot_lowercase_letter_v" stroke-width="4" fill="transparent" d="M 46.20000000000002,41.200000000000045 C 43.320000000000014,51.12000000000005 39.640000000000015,91.28000000000006 31.80000000000001,90.80000000000007 C 23.960000000000008,90.32000000000008 11.960000000000004,49.20000000000007 7,38.80000000000007"/></g><g id="group_lowercase_letter_w" stroke="#000" data-unicode="w" data-glyph-name="w"><rect id="padding_lowercase_letter_w" x="0" y="0" width="90.79999999999998" height="81" fill="transparent" stroke-width=".06"/><path id="plot_lowercase_letter_w" stroke-width="4" fill="transparent" d="M 9,42.80000000000007 C 9,48.88000000000007 6.439999999999998,64.88000000000004 9,73.20000000000005 C 11.559999999999999,81.52000000000005 16.36,90.00000000000009 21.799999999999997,84.40000000000009 C 27.239999999999995,78.8000000000001 33.32,53.040000000000056 36.2,45.200000000000045 M 54.599999999999994,38.80000000000007 C 52.839999999999996,47.280000000000065 49.63999999999999,79.12000000000005 45.8,81.20000000000005 C 41.96,83.28000000000004 37.48,55.600000000000044 35.4,49.200000000000045"/></g><g id="group_lowercase_letter_x" stroke="#000" data-unicode="x" data-glyph-name="x"><rect id="padding_lowercase_letter_x" x="0" y="0" width="92.4" height="64.40000000000009" fill="transparent" stroke-width=".06"/><path id="plot_lowercase_letter_x" stroke-width="4" fill="transparent" d="M 5,18.800000000000068 C 11.719999999999999,27.120000000000072 28.519999999999992,51.280000000000086 38.599999999999994,60.40000000000009 C 48.67999999999999,69.5200000000001 49.64,65.6800000000001 55.400000000000006,64.40000000000009 C 61.16000000000001,63.120000000000076 65,56.08000000000002 67.4,54 M 56.20000000000002,19.600000000000023 C 51.240000000000016,26.960000000000036 40.20000000000002,47.600000000000094 31.400000000000006,56.40000000000009 C 22.6,65.20000000000009 16.040000000000003,62.16000000000003 12.200000000000003,63.60000000000002"/></g><g id="group_lowercase_letter_y" stroke="#000" data-unicode="y" data-glyph-name="y"><rect id="padding_lowercase_letter_y" x="0" y="0" width="88.4" height="72" fill="transparent" stroke-width=".06"/><path id="plot_lowercase_letter_y" stroke-width="4" fill="transparent" d="M 7,30 C 7.800000000000001,38.16000000000001 2.6799999999999997,70.16000000000005 11,70.80000000000007 C 19.32,71.44000000000008 40.919999999999995,26.160000000000057 48.599999999999994,33.200000000000045 C 56.279999999999994,40.24000000000004 56.60000000000001,92.08 49.400000000000006,106 C 42.2,119.92 19.959999999999997,103.44000000000005 12.599999999999994,102.80000000000007"/></g><g id="group_lowercase_letter_z" stroke="#000" data-unicode="z" data-glyph-name="z"><rect id="padding_lowercase_letter_z" x="0" y="0" width="59.599999999999994" height="60.40000000000009" fill="transparent" stroke-width=".06"/><path id="plot_lowercase_letter_z" stroke-width="4" fill="transparent" d="M 4,36.40000000000009 C 12.319999999999999,37.04000000000008 45.43999999999999,35.76000000000003 45.599999999999994,39.60000000000002 C 45.76,43.44000000000001 4.960000000000002,51.44000000000001 4.800000000000004,55.60000000000002 C 4.640000000000008,59.76000000000003 36.80000000000001,59.440000000000076 44.80000000000001,60.40000000000009"/></g><g id="group_capital_letter_A" stroke="#000" data-unicode="A" data-glyph-name="A"><rect id="padding_capital_letter_A" x="0" y="0" width="181.60000000000002" height="106.80000000000007" fill="transparent" stroke-width=".06"/><path id="plot_capital_letter_A" stroke-width="4" fill="transparent" d="M 47.2,117.20000000000005 C 52.64,97.52000000000005 66.4,21.840000000000078 74.4,18.800000000000068 C 82.4,15.76000000000006 84.64,85.36000000000001 87.2,102 M 80.80000000000001,69.20000000000005 C 76.00000000000001,69.68000000000004 61.60000000000001,71.12000000000003 56.800000000000004,71.60000000000002"/></g><g id="group_capital_letter_B" stroke="#000" data-unicode="B" data-glyph-name="B"><rect id="padding_capital_letter_B" x="0" y="0" width="173.60000000000002" height="106.80000000000007" fill="transparent" stroke-width=".06"/><path id="plot_capital_letter_B" stroke-width="4" fill="transparent" d="M 52.800000000000004,26.800000000000068 C 52.800000000000004,42.00000000000007 50.24,102.00000000000007 52.800000000000004,102.80000000000007 C 55.36000000000001,103.60000000000007 57.60000000000001,45.52000000000008 65.60000000000001,30.800000000000068 C 73.60000000000001,16.080000000000062 84.96000000000001,24.56000000000006 92.80000000000001,29.200000000000045 C 100.64000000000001,33.84000000000003 109.28000000000002,46.64000000000001 104.80000000000001,54 C 100.32000000000001,61.35999999999999 71.2,61.2 70.4,66 C 69.60000000000001,70.8 96.48000000000002,71.43999999999998 100.80000000000001,78 C 105.12,84.56000000000002 100.64,93.52000000000005 92,98.80000000000007 C 83.36,104.08000000000008 64.48,103.28000000000009 57.6,104.40000000000009"/></g><g id="group_capital_letter_C" stroke="#000" data-unicode="C" data-glyph-name="C"><rect id="padding_capital_letter_C" x="0" y="0" width="204.40000000000003" height="107.60000000000002" fill="transparent" stroke-width=".06"/><path id="plot_capital_letter_C" stroke-width="4" fill="transparent" d="M 125.60000000000001,38.80000000000007 C 117.28,34.48000000000006 98.56,16.240000000000055 84,17.200000000000045 C 69.44,18.160000000000036 56.16,27.760000000000012 52.800000000000004,43.60000000000002 C 49.440000000000005,59.44000000000003 54.879999999999995,84.40000000000009 67.2,96.40000000000009 C 79.52000000000001,108.40000000000009 104,107.12000000000003 114.4,103.60000000000002 C 124.80000000000001,100.08000000000001 118.24000000000001,83.76000000000006 119.2,78.80000000000007"/></g><g id="group_capital_letter_D" stroke="#000" data-unicode="D" data-glyph-name="D"><rect id="padding_capital_letter_D" x="0" y="0" width="218.8" height="118.80000000000007" fill="transparent" stroke-width=".06"/><path id="plot_capital_letter_D" stroke-width="4" fill="transparent" d="M 70.4,31.600000000000023 C 70.4,49.040000000000035 68,118.32000000000008 70.4,118.80000000000007 C 72.80000000000001,119.28000000000006 72,40.4 82.4,34 C 92.80000000000001,27.6 117.60000000000001,71.28000000000006 122.4,86.80000000000007 C 127.2,102.32000000000008 116.64,105.68 106.4,111.60000000000002 C 96.16000000000001,117.52000000000002 78.24000000000001,115.44000000000008 71.2,116.40000000000009"/></g><g id="group_capital_letter_E" stroke="#000" data-unicode="E" data-glyph-name="E"><rect id="padding_capital_letter_E" x="0" y="0" width="91.2" height="83" fill="transparent" stroke-width=".06"/><path id="plot_capital_letter_E" stroke-width="4" fill="transparent" d="M 123.2,18.800000000000068 C 111.84,18.800000000000068 80.64,11.92000000000007 66.4,18.800000000000068 C 52.160000000000004,25.680000000000067 55.51999999999999,38.16000000000005 52,53.200000000000045 C 48.48,68.24000000000004 38.24,86.32000000000001 48.800000000000004,94 C 59.36000000000001,101.67999999999999 93.60000000000001,92.08000000000003 104.80000000000001,91.60000000000002 M 57.6,52.40000000000009 C 62.400000000000006,52.24000000000008 76.80000000000001,51.76000000000003 81.60000000000001,51.60000000000002"/></g><g id="group_capital_letter_F" stroke="#000" data-unicode="F" data-glyph-name="F"><rect id="padding_capital_letter_F" x="0" y="0" width="29.19999999999999" height="110" fill="transparent" stroke-width=".06"/><path id="plot_capital_letter_F" stroke-width="4" fill="transparent" d="M 98.19999999999999,37.200000000000045 C 83.32,38.16000000000003 38.68,27.440000000000012 23.799999999999997,42 C 8.919999999999998,56.559999999999995 23.799999999999994,96.4 23.799999999999997,110 M 23,70.80000000000007 C 29.4,71.60000000000007 48.6,74.00000000000007 55,74.80000000000007"/></g><g id="group_capital_letter_G" stroke="#000" data-unicode="G" data-glyph-name="G"><rect id="padding_capital_letter_G" x="0" y="0" width="154.39999999999998" height="109.20000000000005" fill="transparent" stroke-width=".06"/><path id="plot_capital_letter_G" stroke-width="4" fill="transparent" d="M 106.60000000000002,50.80000000000007 C 103.24000000000002,45.84000000000005 101.32000000000002,30.640000000000008 89.80000000000001,26 C 78.28,21.35999999999999 62.6,17.04000000000001 49,27.600000000000023 C 35.39999999999999,38.16000000000003 14.759999999999991,62.48000000000006 21.799999999999997,78.80000000000007 C 28.839999999999996,95.12000000000008 68.36,108.56000000000006 84.2,109.20000000000005 C 100.04,109.84000000000003 103.4,90.16 101,82 C 98.6,73.84 70.12,70.00000000000009 72.2,68.40000000000009 C 74.28,66.8000000000001 103.55999999999999,72.88000000000002 111.39999999999998,74"/></g><g id="group_capital_letter_H" stroke="#000" data-unicode="H" data-glyph-name="H"><rect id="padding_capital_letter_H" x="0" y="0" width="117.6" height="102" fill="transparent" stroke-width=".06"/><path id="plot_capital_letter_H" stroke-width="4" fill="transparent" d="M 11.599999999999994,28.40000000000009 C 11.599999999999994,31.120000000000072 12.399999999999995,35.6 11.599999999999994,42 C 10.799999999999995,48.4 8.719999999999992,49.04000000000008 7.599999999999994,60.40000000000009 C 6.479999999999995,71.7600000000001 6.319999999999999,98.00000000000007 6,98.80000000000007 C 5.6800000000000015,99.60000000000007 5.5200000000000005,72.40000000000009 6,64.40000000000009 C 6.48,56.40000000000009 5.680000000000004,60.40000000000007 8.400000000000006,58.80000000000007 C 11.120000000000008,57.20000000000007 12.88000000000001,56.7200000000001 19.60000000000001,56.40000000000009 C 26.320000000000007,56.080000000000084 38.160000000000004,57.36000000000006 42,57.200000000000045 C 45.839999999999996,57.040000000000035 39.44,57.68000000000002 38.8,55.60000000000002 C 38.16,53.520000000000024 37.67999999999999,51.600000000000065 38.8,46.80000000000007 C 39.92,42.00000000000007 43.28000000000001,35.76000000000003 44.400000000000006,31.600000000000023 C 45.52000000000001,27.44000000000001 46.96000000000001,15.759999999999993 44.400000000000006,26 C 41.84,36.24000000000001 33.84000000000001,68.56000000000006 31.60000000000001,82.80000000000007 C 29.360000000000007,97.04000000000008 32.88,94.32000000000005 33.2,97.20000000000005"/></g><g id="group_capital_letter_I" stroke="#000" data-unicode="I" data-glyph-name="I"><rect id="padding_capital_letter_I" x="-7" y="0" width="59.20000000000002" height="114.80000000000007" fill="transparent" stroke-width=".06"/><path id="plot_capital_letter_I" stroke-width="4" fill="transparent" d="M 9,24.40000000000009 C 30.440000000000005,26.32000000000007 107.40000000000002,31.92000000000001 116.20000000000002,34 C 125.00000000000001,36.08 65.16,18.640000000000054 53,34.80000000000007 C 40.83999999999999,50.96000000000008 67.4,99.76000000000008 55.400000000000006,114.80000000000007 C 43.400000000000006,129.84000000000006 -15.160000000000002,110.96000000000001 -7,110 C 1.160000000000002,109.03999999999999 75.56000000000002,110 96.20000000000002,110"/></g><g id="group_capital_letter_J" stroke="#000" data-unicode="J" data-glyph-name="J"><rect id="padding_capital_letter_J" x="0" y="0" width="91.20000000000002" height="118.80000000000007" fill="transparent" stroke-width=".06"/><path id="plot_capital_letter_J" stroke-width="4" fill="transparent" d="M 28.19999999999999,23.600000000000023 C 41.8,24.08000000000002 89.48000000000002,25.359999999999992 96.20000000000002,26 C 102.92000000000002,26.640000000000008 69.00000000000001,15.440000000000051 61.80000000000001,26.800000000000068 C 54.60000000000001,38.16000000000008 58.920000000000016,65.52000000000007 60.20000000000002,82.80000000000007 C 61.48000000000002,100.08000000000007 73.32000000000002,106.16000000000005 68.20000000000002,113.20000000000005 C 63.08000000000001,120.24000000000004 43.72,119.27999999999999 34.599999999999994,118 C 25.47999999999999,116.72 25.32,111.60000000000007 22.6,106.80000000000007 C 19.880000000000003,102.00000000000007 21.32,96.56000000000002 21,94"/></g><g id="group_capital_letter_K" stroke="#000" data-unicode="K" data-glyph-name="K"><rect id="padding_capital_letter_K" x="0" y="0" width="122.4" height="99" fill="transparent" stroke-width=".06"/><path id="plot_capital_letter_K" stroke-width="4" fill="transparent" d="M 18.200000000000003,18 C 17.560000000000002,35.44000000000001 15.319999999999993,97.20000000000005 15,105.20000000000005 C 14.680000000000001,113.20000000000005 6.5200000000000085,73.04000000000002 16.60000000000001,58 C 26.68000000000001,42.95999999999999 63.96000000000001,30.639999999999986 65.4,30 C 66.84,29.360000000000014 27.48000000000001,47.12000000000005 23.80000000000001,54.80000000000007 C 20.12000000000001,62.48000000000009 39.00000000000001,58.96000000000011 47.000000000000014,68.40000000000009 C 55.000000000000014,77.84000000000007 60.44000000000001,95.28000000000002 63.80000000000001,102"/></g><g id="group_capital_letter_L" stroke="#000" data-unicode="L" data-glyph-name="L"><rect id="padding_capital_letter_L" x="0" y="0" width="156" height="96" fill="transparent" stroke-width=".06"/><path id="plot_capital_letter_L" stroke-width="4" fill="transparent" d="M 69.60000000000001,16.40000000000009 C 68.96000000000001,34.96000000000008 52.959999999999994,91.60000000000005 66.4,109.20000000000005 C 79.84,126.80000000000004 122.72000000000001,105.36000000000008 136.8,104.40000000000009"/></g><g id="group_capital_letter_M" stroke="#000" data-unicode="M" data-glyph-name="M"><rect id="padding_capital_letter_M" x="0" y="0" width="113.6" height="110" fill="transparent" stroke-width=".06"/><path id="plot_capital_letter_M" stroke-width="4" fill="transparent" d="M 12,109.20000000000005 C 16.16,92.56000000000003 27.520000000000014,44.08 32.80000000000001,26 C 38.08000000000001,7.920000000000002 35.84000000000001,10.800000000000066 38.400000000000006,18.800000000000068 C 40.96,26.800000000000068 39.99999999999999,66.8 45.599999999999994,66 C 51.199999999999996,65.2 61.28,10.800000000000068 66.4,14.800000000000068 C 71.52000000000001,18.800000000000068 68.16000000000001,66.96000000000001 71.20000000000002,86 C 74.24000000000001,105.03999999999999 79.52,105.2 81.6,110"/></g><g id="group_capital_letter_N" stroke="#000" data-unicode="N" data-glyph-name="N"><rect id="padding_capital_letter_N" x="0" y="0" width="55.19999999999999" height="112.40000000000009" fill="transparent" stroke-width=".06"/><path id="plot_capital_letter_N" stroke-width="4" fill="transparent" d="M 8,112.40000000000009 C 12.16,94.32000000000008 23.199999999999996,23.28000000000002 28.799999999999997,22 C 34.4,20.71999999999998 29.28000000000001,94.63999999999999 36,106 C 42.72,117.36000000000001 52.15999999999998,93.68000000000006 62.39999999999998,78.80000000000007 C 72.63999999999997,63.92000000000007 82.23999999999998,41.040000000000035 87.19999999999999,31.600000000000023"/></g><g id="group_capital_letter_O" stroke="#000" data-unicode="O" data-glyph-name="O"><rect id="padding_capital_letter_O" x="0" y="0" width="157.2" height="107.60000000000002" fill="transparent" stroke-width=".06"/><path id="plot_capital_letter_O" stroke-width="4" fill="transparent" d="M 65.8,40.40000000000009 C 60.519999999999996,41.680000000000085 48.52,41.840000000000074 39.400000000000006,46.80000000000007 C 30.28000000000001,51.76000000000006 24.360000000000007,56.40000000000005 20.200000000000003,65.20000000000005 C 16.040000000000003,74.00000000000004 14.440000000000005,82.48000000000006 18.6,90.80000000000007 C 22.76,99.12000000000008 28.68,104.08000000000007 41,106.80000000000007 C 53.32,109.52000000000007 69.96000000000001,107.9200000000001 80.2,104.40000000000009 C 90.44,100.88000000000008 89.8,95.44000000000005 92.2,89.20000000000005 C 94.60000000000001,82.96000000000004 95.08,82.16000000000004 92.2,73.20000000000005 C 89.32000000000001,64.24000000000005 84.36,52.40000000000009 77.8,44.40000000000009 C 71.24,36.40000000000009 63.080000000000005,35.440000000000055 59.400000000000006,33.200000000000045"/></g><g id="group_capital_letter_P" stroke="#000" data-unicode="P" data-glyph-name="P"><rect id="padding_capital_letter_P" x="0" y="0" width="18.799999999999983" height="98" fill="transparent" stroke-width=".06"/><path id="plot_capital_letter_P" stroke-width="4" fill="transparent" d="M 6,98 C 9.600000000000001,80.02000000000001 16.307499999999997,26.88750000000002 23.999999999999993,8.100000000000037 C 31.692499999999992,-10.687499999999943 36.86249999999999,1.7625000000000965 44.46249999999999,4.062500000000094 C 52.06249999999999,6.362500000000091 60.412499999999994,11.692500000000038 62,19.600000000000023 C 63.5875,27.507500000000007 58.96000000000001,38.16000000000001 52.400000000000006,43.60000000000002 C 45.84,49.04000000000003 38.31999999999999,47.600000000000065 29.19999999999999,46.80000000000007 C 20.079999999999988,46.000000000000064 11.279999999999996,41.040000000000035 6.799999999999997,39.60000000000002"/></g><g id="group_capital_letter_Q" stroke="#000" data-unicode="Q" data-glyph-name="Q"><rect id="padding_capital_letter_Q" x="0" y="0" width="271.20000000000005" height="94" fill="transparent" stroke-width=".06"/><path id="plot_capital_letter_Q" stroke-width="4" fill="transparent" d="M 135.20000000000002,34 C 131.04000000000002,31.760000000000012 123.04,25.360000000000056 114.4,22.800000000000068 C 105.76,20.24000000000008 101.44,18.960000000000058 92,21.200000000000045 C 82.56,23.440000000000033 72.96000000000001,29.2 67.2,34 C 61.44,38.8 60,36.56000000000004 63.2,45.200000000000045 C 66.4,53.84000000000005 74.56,69.36000000000004 83.2,77.20000000000005 C 91.84,85.04000000000005 97.28,84.7200000000001 106.4,84.40000000000009 C 115.52000000000001,84.08000000000008 121.76000000000002,80.72000000000003 128.8,75.60000000000002 C 135.84,70.48000000000002 139.04,67.44000000000005 141.6,58.80000000000007 C 144.16,50.16000000000008 144.7,38.1200000000001 141.6,32.40000000000009 C 138.5,26.680000000000085 130.74,26.520000000000042 126.10000000000001,30.20000000000004 C 121.46000000000001,33.88000000000004 119.62,40.280000000000065 118.4,50.80000000000007 C 117.18,61.32000000000007 115.52,74.16000000000008 120,82.80000000000007 C 124.48,91.44000000000005 136.64000000000001,91.76000000000002 140.8,94"/></g><g id="group_capital_letter_R" stroke="#000" data-unicode="R" data-glyph-name="R"><rect id="padding_capital_letter_R" x="0" y="0" width="286.40000000000003" height="96.40000000000009" fill="transparent" stroke-width=".06"/><path id="plot_capital_letter_R" stroke-width="4" fill="transparent" d="M 76.80000000000001,41.200000000000045 C 77.60000000000001,51.12000000000005 80.32000000000001,94.00000000000007 80.80000000000001,90.80000000000007 C 81.28000000000002,87.60000000000007 69.60000000000001,35.280000000000044 79.2,25.200000000000045 C 88.8,15.120000000000049 119.04,33.680000000000085 128.8,40.40000000000009 C 138.56,47.1200000000001 136.64,54.48000000000008 128,58.80000000000007 C 119.36,63.12000000000005 85.60000000000001,54.48 85.60000000000001,62 C 85.60000000000001,69.52000000000001 119.36,91.12000000000008 128,96.40000000000009 C 136.64,101.6800000000001 128.64000000000001,90.00000000000009 128.8,88.40000000000009"/></g><g id="group_capital_letter_S" stroke="#000" data-unicode="S" data-glyph-name="S"><rect id="padding_capital_letter_S" x="0" y="0" width="205.2" height="117.20000000000005" fill="transparent" stroke-width=".06"/><path id="plot_capital_letter_S" stroke-width="4" fill="transparent" d="M 110.19999999999999,33.200000000000045 C 102.52,32.56000000000004 82.67999999999999,25.999999999999996 71.8,30 C 60.919999999999995,34 49.72,42.64000000000003 55.8,53.200000000000045 C 61.879999999999995,63.76000000000006 93.23999999999998,71.28000000000006 102.19999999999999,82.80000000000007 C 111.15999999999998,94.32000000000008 111.63999999999999,104.08000000000007 100.6,110.80000000000007 C 89.56,117.52000000000007 57.72,115.28000000000009 47,116.40000000000009"/></g><g id="group_capital_letter_T" stroke="#000" data-unicode="T" data-glyph-name="T"><rect id="padding_capital_letter_T" x="0" y="0" width="94.80000000000001" height="113" fill="transparent" stroke-width=".06"/><path id="plot_capital_letter_T" stroke-width="4" fill="transparent" d="M 24,30.800000000000068 C 54.56,32.40000000000007 149.92000000000002,37.04000000000008 176.8,38.80000000000007 C 203.68,40.56000000000006 162.08000000000004,39.44000000000003 158.40000000000003,39.60000000000002 M 95.19999999999999,34.80000000000007 C 95.84,50.16000000000006 97.76000000000002,96.24000000000004 98.40000000000003,111.60000000000002"/></g><g id="group_capital_letter_U" stroke="#000" data-unicode="U" data-glyph-name="U"><rect id="padding_capital_letter_U" x="0" y="0" width="147.2" height="129.20000000000005" fill="transparent" stroke-width=".06"/><path id="plot_capital_letter_U" stroke-width="4" fill="transparent" d="M 38.4,18 C 36.32,36.24000000000001 23.520000000000007,86.96000000000004 28,109.20000000000005 C 32.480000000000004,131.44000000000005 50.080000000000005,125.84000000000006 60.800000000000004,129.20000000000005 C 71.52000000000001,132.56000000000003 73.6,130.32 81.6,126 C 89.6,121.67999999999999 96.32000000000001,128.08 100.80000000000001,107.60000000000002 C 105.28000000000002,87.12000000000003 103.36,40.40000000000002 104,23.600000000000023"/></g><g id="group_capital_letter_V" stroke="#000" data-unicode="V" data-glyph-name="V"><rect id="padding_capital_letter_V" x="0" y="0" width="127.60000000000001" height="111.60000000000002" fill="transparent" stroke-width=".06"/><path id="plot_capital_letter_V" stroke-width="4" fill="transparent" d="M 105.60000000000001,18.800000000000068 C 97.92,37.360000000000056 78.72,111.92000000000003 67.2,111.60000000000002 C 55.68,111.28000000000002 51.84,36.08000000000004 48,17.200000000000045"/></g><g id="group_capital_letter_W" stroke="#000" data-unicode="W" data-glyph-name="W"><rect id="padding_capital_letter_W" x="0" y="0" width="110.4" height="82" fill="transparent" stroke-width=".06"/><path id="plot_capital_letter_W" stroke-width="4" fill="transparent" d="M 40.800000000000004,14 C 39.34875,24.72000000000002 34.02375,52.720000000000056 33.543749999999996,67.60000000000008 C 33.06374999999999,82.4800000000001 33.908750000000005,91.44000000000008 38.400000000000006,88.40000000000009 C 42.89125000000001,85.3600000000001 51.04,53.520000000000095 56,52.40000000000009 C 60.96,51.280000000000086 57.6,89.20000000000007 63.2,82.80000000000007 C 68.8,76.40000000000006 74.88,32.5600000000001 84,20.40000000000009 C 93.12,8.240000000000078 103.84,21.680000000000017 108.80000000000001,22"/></g><g id="group_capital_letter_X" stroke="#000" data-unicode="X" data-glyph-name="X"><rect id="padding_capital_letter_X" x="0" y="0" width="98.4" height="82" fill="transparent" stroke-width=".06"/><path id="plot_capital_letter_X" stroke-width="4" fill="transparent" d="M 40.800000000000004,14.800000000000068 C 45.353750000000005,28.75250000000006 56.52874999999999,66.96250000000003 63.568749999999994,84.56250000000003 C 70.60874999999999,102.16250000000004 73.51375,99.15250000000006 76,102.80000000000007 M 93.60000000000001,10 C 87.84,14.64000000000001 76.96,15.44000000000003 64.8,33.200000000000045 C 52.64,50.960000000000065 39.2,85.68000000000006 32.800000000000004,98.80000000000007"/></g><g id="group_capital_letter_Y" stroke="#000" data-unicode="Y" data-glyph-name="Y"><rect id="padding_capital_letter_Y" x="0" y="0" width="127.60000000000002" height="99" fill="transparent" stroke-width=".06"/><path id="plot_capital_letter_Y" stroke-width="4" fill="transparent" d="M 56.800000000000004,12.400000000000091 C 60.160000000000004,18.80000000000009 70.24000000000001,38.00000000000009 73.60000000000001,44.40000000000009 M 104.80000000000001,8.400000000000091 C 98.72000000000001,16.240000000000077 80.48,39.76000000000004 74.4,47.60000000000002 M 74.4,45.200000000000045 C 74.56,55.600000000000044 75.04,86.80000000000004 75.2,97.20000000000005"/></g><g id="group_capital_letter_Z" stroke="#000" data-unicode="Z" data-glyph-name="Z"><rect id="padding_capital_letter_Z" x="0" y="0" width="73.20000000000002" height="81" fill="transparent" stroke-width=".06"/><path id="plot_capital_letter_Z" stroke-width="4" fill="transparent" d="M 28.8,30.800000000000068 C 44.8,32.56000000000006 110.88000000000001,29.520000000000024 108.80000000000001,39.60000000000002 C 106.72000000000001,49.68000000000002 23.520000000000003,71.92000000000004 18.400000000000002,81.20000000000005 C 13.279999999999998,90.48000000000005 70.24000000000001,85.04 83.2,86"/></g><g id="group_backtic" stroke="#000" data-unicode="`" data-glyph-name="`"><rect id="padding_backtic" x="0" y="0" width="136.8" height="84" fill="transparent" stroke-width=".06"/><path id="plot_backtic" stroke-width="4" fill="transparent" d="M 37.6,10.800000000000068 C 42.400000000000006,14.320000000000073 56.8,24.880000000000088 61.6,28.40000000000009"/></g><g id="group_number_1" stroke="#000" data-unicode="1" data-glyph-name="1"><rect id="padding_number_1" x="0" y="0" width="205.60000000000002" height="112.40000000000009" fill="transparent" stroke-width=".06"/><path id="plot_number_1" stroke-width="4" fill="transparent" d="M 60,49.200000000000045 C 63.84,46.960000000000036 74.56,43.6 79.2,38 C 83.84,32.4 83.04,7.120000000000026 83.2,21.200000000000045 C 83.36,35.280000000000065 87.03999999999999,90.48000000000008 80,108.40000000000009 C 72.96,126.32000000000009 42.239999999999995,110.00000000000007 48,110.80000000000007 C 53.760000000000005,111.60000000000007 96.64000000000001,112.08000000000008 108.80000000000001,112.40000000000009"/></g><g id="group_number_2" stroke="#000" data-unicode="2" data-glyph-name="2"><rect id="padding_number_2" x="0" y="0" width="132.79999999999998" height="107.60000000000002" fill="transparent" stroke-width=".06"/><path id="plot_number_2" stroke-width="4" fill="transparent" d="M 48,45.200000000000045 C 49.6,42.960000000000036 51.04,36.55999999999999 56,34 C 60.96,31.44000000000001 66.88,31.120000000000076 72.8,32.40000000000009 C 78.72,33.680000000000106 82.06,33.620000000000104 85.60000000000001,40.40000000000009 C 89.14000000000001,47.18000000000008 92.58,57.34000000000003 90.5,66.30000000000003 C 88.42,75.26000000000002 85.46000000000001,77.90000000000003 75.2,85.20000000000005 C 64.94,92.50000000000006 29.6,98.64000000000009 39.2,102.80000000000007 C 48.800000000000004,106.96000000000006 106.4,105.36000000000001 123.2,106"/></g><g id="group_number_3" stroke="#000" data-unicode="3" data-glyph-name="3"><rect id="padding_number_3" x="0" y="0" width="164" height="110" fill="transparent" stroke-width=".06"/><path id="plot_number_3" stroke-width="4" fill="transparent" d="M 51.2,25.200000000000045 C 57.410000000000004,25.08375000000005 73.29,22.538750000000086 82.25,24.618750000000084 C 91.21,26.69875000000008 93.08999999999999,30.203750000000035 96,35.60000000000002 C 98.91,40.99625000000001 99.84,46.16000000000001 96.80000000000001,51.60000000000002 C 93.76000000000002,57.040000000000035 89.44000000000001,60.72000000000007 80.80000000000001,62.80000000000007 C 72.16000000000001,64.88000000000007 52.480000000000004,60.4 53.6,62 C 54.72,63.6 80.48,62.80000000000007 86.4,70.80000000000007 C 92.32000000000001,78.80000000000007 90.88,94.16000000000001 83.2,102 C 75.52,109.83999999999999 57.6,110.63999999999999 48,110 C 38.4,109.36000000000001 37.760000000000005,101.04000000000005 35.2,98.80000000000007"/></g><g id="group_number_4" stroke="#000" data-unicode="4" data-glyph-name="4"><rect id="padding_number_4" x="0" y="0" width="161.60000000000002" height="89" fill="transparent" stroke-width=".06"/><path id="plot_number_4" stroke-width="4" fill="transparent" d="M 36,14.800000000000068 C 36.32,22.16000000000006 27.2,44.880000000000024 37.6,51.60000000000002 C 48,58.32000000000003 77.92,49.04000000000008 88,48.40000000000009 M 67.2,14.800000000000068 C 67.2,29.200000000000067 67.2,72.40000000000006 67.2,86.80000000000007"/></g><g id="group_number_5" stroke="#000" data-unicode="5" data-glyph-name="5"><rect id="padding_number_5" x="0" y="0" width="194.40000000000003" height="107.60000000000002" fill="transparent" stroke-width=".06"/><path id="plot_number_5" stroke-width="4" fill="transparent" d="M 46.400000000000006,30.800000000000068 C 47.36000000000001,37.20000000000007 48.160000000000004,58.16000000000008 51.2,62.80000000000007 C 54.24,67.44000000000005 56.32,55.92 61.6,54 C 66.88000000000001,52.08 69.60000000000001,46.48000000000004 77.60000000000001,53.200000000000045 C 85.60000000000001,59.92000000000005 97.60000000000001,78.64000000000003 101.60000000000001,87.60000000000002 C 105.60000000000001,96.56000000000002 102.08000000000001,94.32000000000001 97.60000000000001,98 C 93.12,101.67999999999999 85.17,104.05 79.2,106 C 73.23,107.95 73.03,109.19 67.75,107.75000000000001 C 62.47,106.31000000000003 55.790000000000006,100.59000000000006 52.800000000000004,98.80000000000007 M 48.800000000000004,28.40000000000009 C 57.440000000000005,29.20000000000009 83.36,31.60000000000009 92,32.40000000000009"/></g><g id="group_number_6" stroke="#000" data-unicode="6" data-glyph-name="6"><rect id="padding_number_6" x="0" y="0" width="167.2" height="105.20000000000005" fill="transparent" stroke-width=".06"/><path id="plot_number_6" stroke-width="4" fill="transparent" d="M 60.8,46.80000000000007 C 59.68,42.16000000000006 59.040000000000006,28.08000000000002 55.2,23.600000000000023 C 51.36,19.120000000000026 47.04999999999999,13.880000000000079 41.599999999999994,24.40000000000009 C 36.15,34.9200000000001 29.869999999999997,61.64000000000008 27.950000000000003,76.20000000000007 C 26.030000000000005,90.76000000000006 25.59,91.88000000000005 32,97.20000000000005 C 38.41,102.52000000000004 54.24,106.64000000000007 60,102.80000000000007 C 65.76,98.96000000000006 65.11999999999999,84.56000000000002 60.8,78 C 56.48,71.43999999999998 43.52,69.03999999999999 38.400000000000006,70 C 33.28000000000001,70.96000000000001 35.84,80.24000000000005 35.2,82.80000000000007"/></g><g id="group_number_7" stroke="#000" data-unicode="7" data-glyph-name="7"><rect id="padding_number_7" x="0" y="0" width="238.4" height="95.60000000000002" fill="transparent" stroke-width=".06"/><path id="plot_number_7" stroke-width="4" fill="transparent" d="M 61.6,29.200000000000045 C 61.92,27.440000000000055 52.480000000000004,20.40000000000009 63.2,20.40000000000009 C 73.92,20.40000000000009 112.32,14.160000000000059 115.2,29.200000000000045 C 118.08,44.24000000000003 85.12,82.32000000000004 77.60000000000001,95.60000000000002"/></g><g id="group_number_8" stroke="#000" data-unicode="8" data-glyph-name="8"><rect id="padding_number_8" x="0" y="0" width="244.79999999999998" height="83.60000000000002" fill="transparent" stroke-width=".06"/><path id="plot_number_8" stroke-width="4" fill="transparent" d="M 101.60000000000001,25.200000000000045 C 94.4,25.040000000000056 62.88000000000001,16.56000000000008 65.60000000000001,24.40000000000009 C 68.32000000000001,32.2400000000001 106.4,53.040000000000106 115.2,64.40000000000009 C 124,75.76000000000008 116.80000000000001,77.52000000000005 109.60000000000001,81.20000000000005 C 102.4,84.88000000000004 87.04,86.48000000000006 79.2,82.80000000000007 C 71.36,79.12000000000008 65.44000000000001,75.44000000000008 70.4,62.80000000000007 C 75.36,50.16000000000006 97.28,28.24000000000003 104,19.600000000000023"/></g><g id="group_number_9" stroke="#000" data-unicode="9" data-glyph-name="9"><rect id="padding_number_9" x="0" y="0" width="252.8" height="105.20000000000005" fill="transparent" stroke-width=".06"/><path id="plot_number_9" stroke-width="4" fill="transparent" d="M 112,39.60000000000002 C 109.44,34.800000000000026 108,16.720000000000027 99.2,15.600000000000023 C 90.4,14.480000000000018 66.88,26.320000000000004 68,34 C 69.12,41.67999999999999 95.04,57.83999999999999 104.80000000000001,54 C 114.56000000000002,50.16000000000001 116.00000000000001,4.560000000000059 116.80000000000001,14.800000000000068 C 117.60000000000001,25.040000000000077 110.4,87.12000000000005 108.80000000000001,105.20000000000005"/></g><g id="group_number_0" stroke="#000" data-unicode="0" data-glyph-name="0"><rect id="padding_number_0" x="0" y="0" width="224.00000000000003" height="110" fill="transparent" stroke-width=".06"/><path id="plot_number_0" stroke-width="4" fill="transparent" d="M 118.4,31.600000000000023 C 110.08000000000001,32.40000000000002 90.40000000000002,27.600000000000023 76.80000000000001,35.60000000000002 C 63.20000000000001,43.60000000000002 55.52,60.56000000000001 50.400000000000006,71.60000000000002 C 45.28,82.64000000000003 44.64,83.28000000000006 51.2,90.80000000000007 C 57.760000000000005,98.32000000000008 70.88,109.52000000000005 83.2,109.20000000000005 C 95.52000000000001,108.88000000000004 105.12000000000002,105.68000000000004 112.80000000000001,89.20000000000005 C 120.48000000000002,72.72000000000006 131.04000000000002,26.960000000000058 121.60000000000001,26.800000000000068 C 112.16000000000001,26.64000000000008 76.8,76.08000000000008 65.60000000000001,88.40000000000009"/></g><g id="group_minus_sign" stroke="#000" data-unicode="-" data-glyph-name="-"><rect id="padding_minus_sign" x="0" y="0" width="148.8" height="117" fill="transparent" stroke-width=".06"/><path id="plot_minus_sign" stroke-width="4" fill="transparent" d="M 40.800000000000004,66.80000000000007 C 46.080000000000005,66.96000000000006 61.92,67.44000000000003 67.2,67.60000000000002"/></g><g id="group_equals_sign" stroke="#000" data-unicode="=" data-glyph-name="="><rect id="padding_equals_sign" x="0" y="0" width="160" height="98" fill="transparent" stroke-width=".06"/><path id="plot_equals_sign" stroke-width="4" fill="transparent" d="M 44.800000000000004,42 C 51.52,43.280000000000015 71.68,47.120000000000076 78.4,48.40000000000009 M 40.800000000000004,58.80000000000007 C 48.00000000000001,60.08000000000006 69.60000000000001,63.92000000000005 76.80000000000001,65.20000000000005"/></g><g id="group_tilde" stroke="#000" data-unicode="~" data-glyph-name="~"><rect id="padding_tilde" x="0" y="0" width="182.4" height="115" fill="transparent" stroke-width=".06"/><path id="plot_tilde" stroke-width="4" fill="transparent" d="M 44,81.20000000000005 C 45.92,79.12000000000005 48.32,69.84000000000007 53.6,70.80000000000007 C 58.88,71.76000000000006 62.24,83.92 70.4,86 C 78.56,88.08 89.60000000000001,82.16000000000004 94.4,81.20000000000005"/></g><g id="group_exclamation_mark" stroke="#000" data-unicode="!" data-glyph-name="!"><rect id="padding_exclamation_mark" x="0" y="0" width="223.2" height="121" fill="transparent" stroke-width=".06"/><path id="plot_exclamation_mark" stroke-width="4" fill="transparent" d="M 65.60000000000001,94.80000000000007 C 67.68,85.36000000000006 72.8,58.800000000000026 76,47.60000000000002 C 79.2,36.40000000000002 78.08000000000001,41.040000000000056 81.60000000000001,38.80000000000007 C 85.12,36.56000000000008 95.52000000000001,24.2400000000001 93.60000000000001,36.40000000000009 C 91.68,48.56000000000009 76.32,86.96000000000004 72,99.60000000000002 M 69.60000000000001,117.20000000000005 C 69.28,115.44000000000005 68.96000000000001,108.40000000000009 68,108.40000000000009 C 67.03999999999999,108.40000000000009 62.72,114.48000000000006 64.8,117.20000000000005 C 66.88,119.92000000000003 77.76,123.12 78.4,122 C 79.04,120.88 70.08,113.68000000000002 68,111.60000000000002"/></g><g id="group_at_sign" stroke="#000" data-unicode="@" data-glyph-name="@"><rect id="padding_at_sign" x="0" y="0" width="157.60000000000002" height="106.80000000000007" fill="transparent" stroke-width=".06"/><path id="plot_at_sign" stroke-width="4" fill="transparent" d="M 75.2,62 C 75.2,59.6 76.8,52.879999999999995 75.2,50 C 73.60000000000001,47.120000000000005 70.12,45.13000000000002 67.2,47.60000000000002 C 64.28,50.07000000000003 58.84000000000001,58.03000000000002 60.60000000000001,62.35000000000003 C 62.36000000000001,66.67000000000003 70.52,71.03000000000004 76,69.20000000000005 C 81.48,67.37000000000005 87.2,58.00000000000004 88,53.200000000000045 C 88.8,48.40000000000005 84.8,47.280000000000044 80,45.200000000000045 C 75.2,43.12000000000005 68.64,42.00000000000007 64,42.80000000000007 C 59.36,43.600000000000065 58.88,44.40000000000004 56.800000000000004,49.200000000000045 C 54.720000000000006,54.00000000000004 50.239999999999995,61.520000000000074 53.6,66.80000000000007 C 56.96,72.08000000000007 67.2,74.32000000000002 73.60000000000001,75.60000000000002 C 80.00000000000001,76.88000000000002 83.52000000000001,78.64000000000003 85.60000000000001,73.20000000000005 C 87.68,67.76000000000006 87.2,58.48000000000009 84,48.40000000000009 C 80.8,38.32000000000009 76.64000000000001,28.40000000000007 69.60000000000001,22.800000000000068 C 62.56000000000001,17.200000000000067 55.36000000000001,19.600000000000094 48.800000000000004,20.40000000000009 C 42.24,21.200000000000088 40.32,13.040000000000074 36.800000000000004,26.800000000000068 C 33.28,40.56000000000006 25.92,73.20000000000005 31.200000000000003,89.20000000000005 C 36.480000000000004,105.20000000000005 52.16,103.92000000000007 63.2,106.80000000000007 C 74.24000000000001,109.68000000000006 80,117.36000000000004 86.4,103.60000000000002 C 92.80000000000001,89.84 93.44,51.120000000000005 95.2,38"/></g><g id="group_sharp" stroke="#000" data-unicode="#" data-glyph-name="#"><rect id="padding_sharp" x="0" y="0" width="215.20000000000002" height="106.80000000000007" fill="transparent" stroke-width=".06"/><path id="plot_sharp" stroke-width="4" fill="transparent" d="M 79.2,24.40000000000009 C 77.28,40.88000000000009 71.52,90.32000000000008 69.60000000000001,106.80000000000007 M 98.4,28.40000000000009 C 96.96000000000001,43.600000000000094 92.64,89.20000000000009 91.2,104.40000000000009 M 60.800000000000004,40.40000000000009 C 70.24000000000001,42.96000000000008 98.56,50.64000000000006 108,53.200000000000045 M 53.6,68.40000000000009 C 64,70.64000000000007 95.2,77.36000000000004 105.60000000000001,79.60000000000002"/></g><g id="group_dollar_sign" stroke="#000" data-unicode="$" data-glyph-name="$"><rect id="padding_dollar_sign" x="0" y="0" width="247.20000000000002" height="108.40000000000009" fill="transparent" stroke-width=".06"/><path id="plot_dollar_sign" stroke-width="4" fill="transparent" d="M 116,42 C 111.2,38.960000000000015 99.36,26.000000000000068 92,26.800000000000068 C 84.64,27.600000000000065 75.36,37.52 79.2,46 C 83.04,54.48 104.80000000000001,57.520000000000024 111.2,69.20000000000005 C 117.60000000000001,80.88000000000007 119.84,98.48000000000009 111.2,104.40000000000009 C 102.56,110.32000000000009 76.64,99.92000000000007 68,98.80000000000007 M 95.2,17.200000000000045 C 95.68,36.720000000000056 97.12,95.28000000000006 97.60000000000001,114.80000000000007"/></g><g id="group_percentage_sign" stroke="#000" data-unicode="%" data-glyph-name="%"><rect id="padding_percentage_sign" x="0" y="0" width="211.20000000000002" height="109" fill="transparent" stroke-width=".06"/><path id="plot_percentage_sign" stroke-width="4" fill="transparent" d="M 56.800000000000004,17.200000000000045 C 53.120000000000005,22.000000000000046 38.720000000000006,36.88000000000004 38.400000000000006,41.200000000000045 C 38.080000000000005,45.52000000000005 52.160000000000004,43.280000000000065 55.2,38.80000000000007 C 58.24,34.32000000000007 53.92,22.800000000000068 53.6,18.800000000000068 M 113.60000000000001,90.80000000000007 C 110.56,93.68000000000006 97.44,101.20000000000005 98.4,105.20000000000005 C 99.36,109.20000000000005 113.60000000000001,112.72000000000007 118.4,110.80000000000007 C 123.2,108.88000000000007 123.68,99.12000000000003 122.4,95.60000000000002 C 121.12,92.08000000000001 114.08,93.68000000000004 112,93.20000000000005 M 136,18.800000000000068 C 124.32000000000001,32.88000000000007 96.00000000000001,71.76000000000006 77.60000000000001,89.20000000000005 C 59.20000000000002,106.64000000000004 50.72,102.64 44,106"/></g><g id="group_carrot" stroke="#000" data-unicode="^" data-glyph-name="^"><rect id="padding_carrot" x="0" y="0" width="179.20000000000002" height="108" fill="transparent" stroke-width=".06"/><path id="plot_carrot" stroke-width="4" fill="transparent" d="M 50.400000000000006,41.200000000000045 C 52.800000000000004,37.84000000000005 56.800000000000004,24.56000000000008 62.400000000000006,24.40000000000009 C 68,24.2400000000001 75.2,37.20000000000009 78.4,40.40000000000009"/></g><g id="group_ampersand" stroke="#000" data-unicode="&#x26;" data-glyph-name="&amp;"><rect id="padding_ampersand" x="0" y="0" width="229.60000000000002" height="110.80000000000007" fill="transparent" stroke-width=".06"/><path id="plot_ampersand" stroke-width="4" fill="transparent" d="M 106.4,104.40000000000009 C 98.71000000000001,87.88000000000008 71.31,41.000000000000014 67.95,21.80000000000002 C 64.59,2.600000000000019 84.47000000000001,5.160000000000094 89.60000000000001,8.400000000000091 C 94.73,11.640000000000088 99.2,20.56000000000001 93.60000000000001,38 C 88,55.43999999999998 62.92,81.03 61.6,95.60000000000002 C 60.28,110.17000000000004 78.52,111.81000000000006 87,110.85000000000007 C 95.48,109.89000000000007 105.4,95.29000000000006 104,90.80000000000007 C 102.6,86.31000000000007 84.8,88.88000000000008 80,88.40000000000009"/></g><g id="group_asterik" stroke="#000" data-unicode="*" data-glyph-name="*"><rect id="padding_asterik" x="0" y="0" width="227.2" height="90" fill="transparent" stroke-width=".06"/><path id="plot_asterik" stroke-width="4" fill="transparent" d="M 54.400000000000006,50.80000000000007 C 68.16000000000001,51.120000000000076 121.92,44.88000000000009 123.2,52.40000000000009 C 124.48,59.920000000000094 69.28,93.5200000000001 60.800000000000004,88.40000000000009 C 52.32000000000001,83.28000000000009 73.92000000000002,26.480000000000086 80.80000000000001,26.800000000000068 C 87.68,27.12000000000005 100.32000000000001,85.19999999999999 95.2,90 C 90.08,94.8 63.2,58.64000000000006 55.2,50.80000000000007 M 60.800000000000004,36.40000000000009 C 59.68000000000001,34.64000000000008 56.32,29.360000000000035 55.2,27.600000000000023 M 92,35.60000000000002 C 94.4,34.32000000000003 101.6,30.48000000000004 104,29.200000000000045 M 100.80000000000001,74 C 103.04,74.96000000000001 109.76,77.84000000000006 112,78.80000000000007 M 58.400000000000006,73.20000000000005 C 57.120000000000005,73.84000000000006 53.28,75.76000000000008 52,76.40000000000009 M 76,82.80000000000007 C 76.48,85.04000000000005 77.92,91.76000000000002 78.4,94"/></g><g id="group_open_parenthesis" stroke="#000" data-unicode="(" data-glyph-name="("><rect id="padding_open_parenthesis" x="0" y="0" width="199.20000000000002" height="110" fill="transparent" stroke-width=".06"/><path id="plot_open_parenthesis" stroke-width="4" fill="transparent" d="M 98.4,14 C 92.64,15.440000000000008 78.84,10.877500000000028 69.60000000000001,21.200000000000045 C 60.36000000000001,31.522500000000058 56.02000000000001,51.162500000000044 52.2,65.61250000000004 C 48.38,80.06250000000003 46.85999999999999,84.57250000000002 50.5,93.45000000000002 C 54.14,102.32750000000001 66.42,106.69 70.4,110"/></g><g id="group_closed_parenthesis" stroke="#000" data-unicode=")" data-glyph-name=")"><rect id="padding_closed_parenthesis" x="0" y="0" width="324" height="108.40000000000009" fill="transparent" stroke-width=".06"/><path id="plot_closed_parenthesis" stroke-width="4" fill="transparent" d="M 96,17.200000000000045 C 103.22,24.040000000000045 131.46,33.48000000000003 132.1,51.40000000000004 C 132.74,69.32000000000005 105.78,95.72000000000006 99.2,106.80000000000007"/></g><g id="group_underscore_character" stroke="#000" data-unicode="_" data-glyph-name="_"><rect id="padding_underscore_character" x="0" y="0" width="217.6" height="111.60000000000002" fill="transparent" stroke-width=".06"/><path id="plot_underscore_character" stroke-width="4" fill="transparent" d="M 36,106.80000000000007 C 57.28,107.60000000000007 121.12,110.00000000000007 142.4,110.80000000000007"/></g><g id="group_plus_sign" stroke="#000" data-unicode="+" data-glyph-name="+"><rect id="padding_plus_sign" x="0" y="0" width="228" height="78" fill="transparent" stroke-width=".06"/><path id="plot_plus_sign" stroke-width="4" fill="transparent" d="M 82.4,39.60000000000002 C 82.24000000000001,47.28000000000002 81.76,70.32000000000001 81.60000000000001,78 M 66.4,51.60000000000002 C 72.16000000000001,52.56000000000004 89.44,55.440000000000076 95.2,56.40000000000009"/></g><g id="group_open_square_bracket" stroke="#000" data-unicode="[" data-glyph-name="["><rect id="padding_open_square_bracket" x="0" y="0" width="109.2" height="98" fill="transparent" stroke-width=".06"/><path id="plot_open_square_bracket" stroke-width="4" fill="transparent" d="M 88.80000000000001,11.600000000000023 C 84.16000000000001,11.920000000000027 73.76,-4.079999999999949 65.60000000000001,13.200000000000045 C 57.440000000000005,30.480000000000036 41.279999999999994,81.52000000000001 48,98 C 54.72,114.48 88.96000000000001,96.08000000000003 99.2,95.60000000000002"/></g><g id="group_closed_square_bracket" stroke="#000" data-unicode="]" data-glyph-name="]"><rect id="padding_closed_square_bracket" x="-40" y="0" width="40.400000000000006" height="91.60000000000002" fill="transparent" stroke-width=".06"/><path id="plot_closed_square_bracket" stroke-width="4" fill="transparent" d="M -19.200000000000003,28.40000000000009 C -9.280000000000001,28.56000000000008 20.64,16.560000000000066 30.400000000000006,29.200000000000045 C 40.160000000000004,41.84000000000003 43.67999999999999,79.12000000000002 29.599999999999994,91.60000000000002 C 15.51999999999999,104.08000000000001 -26.08,91.60000000000002 -40,91.60000000000002"/></g><g id="group_back_slash" stroke="#000" data-unicode="\" data-glyph-name="\"><rect id="padding_back_slash" x="-14" y="0" width="34.400000000000006" height="109" fill="transparent" stroke-width=".06"/><path id="plot_back_slash" stroke-width="4" fill="transparent" d="M -14,17.200000000000045 C 3.9200000000000017,43.12000000000005 57.67999999999998,120.88000000000007 75.6,146.80000000000007"/></g><g id="group_open_curly_brace" stroke="#000" data-unicode="{" data-glyph-name="{"><rect id="padding_open_curly_brace" x="0" y="0" width="142" height="97.20000000000005" fill="transparent" stroke-width=".06"/><path id="plot_open_curly_brace" stroke-width="4" fill="transparent" d="M 63,5.2000000000000455 C 55.32,9.200000000000045 27.499999999999993,18.780000000000044 24.599999999999994,25.200000000000045 C 21.699999999999992,31.620000000000047 49.61999999999999,33.78000000000005 48.49999999999999,37.300000000000054 C 47.379999999999995,40.82000000000006 20.580000000000002,39.78000000000006 19,42.80000000000007 C 17.42,45.82000000000008 40.279999999999994,46.00000000000009 40.599999999999994,52.40000000000009 C 40.919999999999995,58.80000000000009 19.47999999999999,65.84000000000007 20.599999999999994,74.80000000000007 C 21.719999999999995,83.76000000000006 41.08,92.72000000000006 46.2,97.20000000000005"/></g><g id="group_closed_curly_brace" stroke="#000" data-unicode="}" data-glyph-name="}"><rect id="padding_closed_curly_brace" x="0" y="0" width="131.60000000000002" height="83.60000000000002" fill="transparent" stroke-width=".06"/><path id="plot_closed_curly_brace" stroke-width="4" fill="transparent" d="M 17,12.400000000000091 C 21.8,13.840000000000078 40.68,15.600000000000023 41,19.600000000000023 C 41.32,23.600000000000023 18.919999999999998,28.240000000000077 18.599999999999994,32.40000000000009 C 18.279999999999994,36.5600000000001 37.63999999999999,37.680000000000106 39.39999999999999,40.40000000000009 C 41.15999999999999,43.120000000000076 26.279999999999987,43.280000000000015 27.39999999999999,46 C 28.519999999999992,48.719999999999985 41.48,49.039999999999985 45,54 C 48.52,58.960000000000015 51.4,64.88000000000007 45,70.80000000000007 C 38.599999999999994,76.72000000000007 19.4,81.04000000000003 13,83.60000000000002"/></g><g id="group_pipe" stroke="#000" data-unicode="|" data-glyph-name="|"><rect id="padding_pipe" x="0" y="0" width="222.4" height="110.80000000000007" fill="transparent" stroke-width=".06"/><path id="plot_pipe" stroke-width="4" fill="transparent" d="M 81.60000000000001,15.600000000000023 C 79.36000000000001,34.64000000000003 72.64,91.76000000000006 70.4,110.80000000000007 M 84.80000000000001,64.40000000000009 C 83.36000000000001,72.40000000000009 79.04,96.40000000000009 77.60000000000001,104.40000000000009 M 68.8,50 C 69.92,42.64000000000001 73.28,20.560000000000038 74.4,13.200000000000045"/></g><g id="group_semi_colon" stroke="#000" data-unicode=";" data-glyph-name=";"><rect id="padding_semi_colon" x="0" y="0" width="224.8" height="76" fill="transparent" stroke-width=".06"/><path id="plot_semi_colon" stroke-width="4" fill="transparent" d="M 96,46.80000000000007 C 93.92,46.16000000000006 88.12,42.220000000000034 85.60000000000001,43.60000000000002 C 83.08000000000001,44.98000000000001 80.04,50.98000000000001 83.4,53.70000000000002 C 86.76,56.42000000000002 100.2,59.06000000000003 102.4,57.200000000000045 C 104.60000000000001,55.34000000000006 96,46.96000000000008 94.4,44.40000000000009 M 95.2,69.20000000000005 C 94.4,73.36000000000004 94.56,84.4 91.2,90 C 87.84,95.6 79.36,97.36000000000004 78.4,97.20000000000005 C 77.44000000000001,97.04000000000005 84.80000000000001,90.80000000000004 86.4,89.20000000000005"/></g><g id="group_single_quote" stroke="#000" data-unicode="'" data-glyph-name="'"><rect id="padding_single_quote" x="0" y="0" width="226.4" height="92" fill="transparent" stroke-width=".06"/><path id="plot_single_quote" stroke-width="4" fill="transparent" d="M 71.2,23.600000000000023 C 73.76,26.32000000000003 81.44,34.48000000000004 84,37.200000000000045"/></g><g id="group_colon" stroke="#000" data-unicode=":" data-glyph-name=":"><rect id="padding_colon" x="0" y="0" width="242.40000000000003" height="108" fill="transparent" stroke-width=".06"/><path id="plot_colon" stroke-width="4" fill="transparent" d="M 82.4,46 C 81.60000000000001,48.08000000000002 77.28,53.680000000000085 78.4,56.40000000000009 C 79.52000000000001,59.1200000000001 87.04,61.200000000000024 88,59.60000000000002 C 88.96,58.00000000000002 84.16,50.64000000000008 83.2,48.40000000000009 M 82.4,90 C 83.2,92.4 87.52000000000001,100.08 86.4,102 C 85.28,103.92 77.76,101.68000000000002 76.80000000000001,99.60000000000002 C 75.84000000000002,97.52000000000002 80.64000000000001,93.20000000000002 81.60000000000001,91.60000000000002"/></g><g id="group_double_quotation_mark" stroke="#000" data-unicode="&#x22;" data-glyph-name='"'><rect id="padding_double_quotation_mark" x="0" y="0" width="267.20000000000005" height="96" fill="transparent" stroke-width=".06"/><path id="plot_double_quotation_mark" stroke-width="4" fill="transparent" d="M 79.2,24.40000000000009 C 79.84,28.080000000000087 81.76,39.120000000000076 82.4,42.80000000000007 M 103.2,22.800000000000068 C 103.68,27.440000000000055 105.12,41.360000000000014 105.60000000000001,46"/></g><g id="group_comma" stroke="#000" data-unicode="," data-glyph-name=","><rect id="padding_comma" x="0" y="0" width="288.8" height="89" fill="transparent" stroke-width=".06"/><path id="plot_comma" stroke-width="4" fill="transparent" d="M 105.60000000000001,75.60000000000002 C 105.28,79.28000000000002 106.88,89.52000000000001 104,94 C 101.12,98.47999999999999 93.76,97.2 91.2,98"/></g><g id="group_period" stroke="#000" data-unicode="." data-glyph-name="."><rect id="padding_period" x="0" y="0" width="300" height="92.40000000000009" fill="transparent" stroke-width=".06"/><path id="plot_period" stroke-width="4" fill="transparent" d="M 100.80000000000001,82 C 99.36000000000001,82.48000000000002 91.84,82.48000000000009 93.60000000000001,84.40000000000009 C 95.36000000000001,86.32000000000009 105.76,92.72000000000003 109.60000000000001,91.60000000000002 C 113.44000000000001,90.48000000000002 114.72000000000001,81.04000000000005 112.80000000000001,78.80000000000007 C 110.88000000000001,76.56000000000009 100.96000000000001,78.6400000000001 100,80.40000000000009 C 99.03999999999999,82.16000000000008 107.67999999999999,87.44000000000003 108,87.60000000000002 C 108.32000000000001,87.76000000000002 102.88000000000001,82.48000000000005 101.60000000000001,81.20000000000005"/></g><g id="group_forward_slash" stroke="#000" data-unicode="/" data-glyph-name="/"><rect id="padding_forward_slash" x="-10" y="0" width="67.19999999999999" height="89" fill="transparent" stroke-width=".06"/><path id="plot_forward_slash" stroke-width="4" fill="transparent" d="M 97.19999999999999,16.40000000000009 C 75.75999999999999,34.32000000000007 11.439999999999994,88.08000000000001 -10,106"/></g><g id="group_less_than_sign" stroke="#000" data-unicode="&#x3c;" data-glyph-name="&lt;"><rect id="padding_less_than_sign" x="0" y="0" width="169.60000000000002" height="121.20000000000005" fill="transparent" stroke-width=".06"/><path id="plot_less_than_sign" stroke-width="4" fill="transparent" d="M 110.4,35.60000000000002 C 94.24000000000001,43.60000000000002 39.040000000000006,64.24000000000001 29.6,75.60000000000002 C 20.160000000000004,86.96000000000004 50.56,83.28000000000009 63.2,92.40000000000009 C 75.84,101.5200000000001 86.88000000000001,115.44000000000005 92.80000000000001,121.20000000000005"/></g><g id="group_greater_than_sign" stroke="#000" data-unicode="&#x3e;" data-glyph-name="&gt;"><rect id="padding_greater_than_sign" x="0" y="0" width="299.20000000000005" height="87.60000000000002" fill="transparent" stroke-width=".06"/><path id="plot_greater_than_sign" stroke-width="4" fill="transparent" d="M 78.4,18.800000000000068 C 91.84,25.520000000000074 145.92,38.6400000000001 145.6,52.40000000000009 C 145.28,66.16000000000008 90.56,80.56000000000003 76.80000000000001,87.60000000000002"/></g><g id="group_question_mark" stroke="#000" data-unicode="?" data-glyph-name="?"><rect id="padding_question_mark" x="0" y="0" width="219.2" height="120" fill="transparent" stroke-width=".06"/><path id="plot_question_mark" stroke-width="4" fill="transparent" d="M 67.2,35.60000000000002 C 67.68,30.160000000000036 61.760000000000005,11.44000000000008 69.60000000000001,8.400000000000091 C 77.44000000000001,5.360000000000104 99.04,15.120000000000097 106.4,20.40000000000009 C 113.76,25.680000000000085 113.28,26.160000000000082 106.4,34.80000000000007 C 99.52000000000001,43.440000000000055 80,50.000000000000014 72,63.60000000000002 C 64,77.20000000000002 67.52,94.96000000000006 66.4,102.80000000000007 M 62.400000000000006,114 C 61.120000000000005,114.96000000000001 56.480000000000004,118.80000000000007 56,118.80000000000007 C 55.519999999999996,118.80000000000007 59.2,114.96000000000001 60,114"/></g><g id="group_single_quote" stroke="#000" data-unicode="'" data-glyph-name="'"><rect id="padding_single_quote" x="0" y="0" width="226.4" height="92" fill="transparent" stroke-width=".06"/><path id="plot_single_quote" stroke-width="4" fill="transparent" d="M 71.2,23.600000000000023 C 73.76,26.32000000000003 81.44,34.48000000000004 84,37.200000000000045"/></g></defs><g transform="scale(0.2)"><use href="#group_capital_letter_T" x="0" y="-13" /><use href="#group_lowercase_letter_h" x="123.80000000000001" y="0" /><use href="#group_lowercase_letter_e" x="184.60000000000002" y="35" /><use href="#group_lowercase_letter_q" x="321.20000000000005" y="34" /><use href="#group_lowercase_letter_u" x="401.20000000000005" y="17.199999999999932" /><use href="#group_lowercase_letter_i" x="463.00000000000006" y="4.399999999999977" /><use href="#group_lowercase_letter_c" x="497.20000000000005" y="28" /><use href="#group_lowercase_letter_k" x="555" y="11" /><use href="#group_lowercase_letter_b" x="688.2" y="14" /><use href="#group_lowercase_letter_r" x="747.6" y="14.799999999999955" /><use href="#group_lowercase_letter_o" x="795.8" y="17.199999999999932" /><use href="#group_lowercase_letter_w" x="849.4" y="19" /><use href="#group_lowercase_letter_n" x="917.5999999999999" y="13.199999999999932" /><use href="#group_lowercase_letter_f" x="1046.1999999999998" y="-9.200000000000045" /><use href="#group_lowercase_letter_o" x="1080.9999999999998" y="17.199999999999932" /><use href="#group_lowercase_letter_x" x="1134.5999999999997" y="35.59999999999991" /><use href="#group_lowercase_letter_j" x="1293.1999999999998" y="35" /><use href="#group_lowercase_letter_u" x="1322.1999999999998" y="17.199999999999932" /><use href="#group_lowercase_letter_m" x="1383.9999999999998" y="3.599999999999909" /><use href="#group_lowercase_letter_p" x="1446.9999999999998" y="43" /><use href="#group_lowercase_letter_e" x="1508.7999999999997" y="35" /><use href="#group_lowercase_letter_d" x="1564.1999999999998" y="13.199999999999932" /><use href="#group_lowercase_letter_o" x="1699.8" y="17.199999999999932" /><use href="#group_lowercase_letter_v" x="1753.3999999999999" y="9.199999999999932" /><use href="#group_lowercase_letter_e" x="1807.6" y="35" /><use href="#group_lowercase_letter_r" x="1863" y="14.799999999999955" /><use href="#group_lowercase_letter_t" x="1992.4" y="5" /><use href="#group_lowercase_letter_h" x="2044" y="0" /><use href="#group_lowercase_letter_e" x="2104.8" y="35" /><use href="#group_lowercase_letter_l" x="2241.4" y="-10.800000000000068" /><use href="#group_lowercase_letter_a" x="2268.2000000000003" y="7" /><use href="#group_lowercase_letter_z" x="2333.8" y="39.59999999999991" /><use href="#group_lowercase_letter_y" x="2384.4" y="28" /><use href="#group_lowercase_letter_d" x="2531" y="13.199999999999932" /><use href="#group_lowercase_letter_o" x="2585.4" y="17.199999999999932" /><use href="#group_lowercase_letter_g" x="2639" y="35" /><use href="#group_period" x="2690.8" y="7.599999999999909" /><use href="#group_number_0" x="0" y="90" /><use href="#group_number_1" x="149.60000000000002" y="87.59999999999991" /><use href="#group_number_2" x="283.20000000000005" y="92.39999999999998" /><use href="#group_number_3" x="392.40000000000003" y="90" /><use href="#group_number_4" x="506.00000000000006" y="111" /><use href="#group_number_5" x="613.6" y="92.39999999999998" /><use href="#group_number_6" x="738.4000000000001" y="94.79999999999995" /><use href="#group_number_7" x="838.4000000000001" y="104.39999999999998" /><use href="#group_number_8" x="984.4000000000001" y="116.39999999999998" /><use href="#group_number_9" x="1132" y="94.79999999999995" /><use href="#group_exclamation_mark" x="1282.8" y="79" /><use href="#group_at_sign" x="1408.8" y="93.19999999999993" /><use href="#group_sharp" x="1519.6" y="93.19999999999993" /><use href="#group_dollar_sign" x="1654.3999999999999" y="91.59999999999991" /><use href="#group_percentage_sign" x="1803.1999999999998" y="91" /><use href="#group_carrot" x="1957.9999999999998" y="92" /><use href="#group_ampersand" x="2061.6" y="89.19999999999993" /><use href="#group_asterik" x="2198.7999999999997" y="110" /><use href="#group_open_parenthesis" x="2347.9999999999995" y="90" /><use href="#group_closed_parenthesis" x="2471.5999999999995" y="91.59999999999991" /><use href="#group_minus_sign" x="2651.5999999999995" y="83" /><use href="#group_equals_sign" x="2739.1999999999994" y="102" /><use href="#group_underscore_character" x="2837.9999999999995" y="88.39999999999998" /><use href="#group_plus_sign" x="3001.5999999999995" y="122" /><use href="#group_capital_letter_F" x="0" y="190" /><use href="#group_lowercase_letter_r" x="52.19999999999999" y="214.79999999999995" /><use href="#group_lowercase_letter_o" x="100.39999999999998" y="217.19999999999993" /><use href="#group_lowercase_letter_g" x="153.99999999999997" y="235" /><use href="#group_capital_letter_Z" x="286.99999999999994" y="219" /><use href="#group_lowercase_letter_e" x="368.79999999999995" y="235" /><use href="#group_lowercase_letter_b" x="424.19999999999993" y="214" /><use href="#group_lowercase_letter_r" x="483.5999999999999" y="214.79999999999995" /><use href="#group_lowercase_letter_a" x="531.8" y="207" /><use href="#group_capital_letter_T" x="678.6" y="187" /><use href="#group_lowercase_letter_a" x="802.4000000000001" y="207" /><use href="#group_lowercase_letter_t" x="868.0000000000001" y="205" /><use href="#group_lowercase_letter_t" x="919.6000000000001" y="205" /><use href="#group_lowercase_letter_o" x="971.2000000000002" y="217.19999999999993" /><use href="#group_lowercase_letter_o" x="1024.8000000000002" y="217.19999999999993" /><use href="#group_capital_letter_A" x="0" y="293.19999999999993" /><use href="#group_capital_letter_B" x="110.80000000000001" y="293.19999999999993" /><use href="#group_capital_letter_C" x="223.60000000000002" y="292.4" /><use href="#group_capital_letter_D" x="362.20000000000005" y="281.19999999999993" /><use href="#group_capital_letter_E" x="497.6" y="317" /><use href="#group_capital_letter_F" x="580.8000000000001" y="290" /></g></svg>