<svg xmlns="http://www.w3.org/2000/svg">
<defs>
<font id="vandingo_light" horiz-adv-x="96.80000000000001"><font-face font-family="vandingo light" font-weight="500" font-stretch="normal" units-per-em="1000" panose-1="2 0 6 3 0 0 0 0 0 0" ascent="685" descent="-315" x-height="360.997" cap-height="529" bbox="-116.001 -320 471 740" underline-thickness="50" underline-position="-100" stemh="35" stemv="41" unicode-range="U+0020-E02B" /><missing-glyph horiz-adv-x="96.80000000000001"  d="M 65,56.40000000000009 C 59.08,61.360000000000085 41.32,76.24000000000005 35.4,81.20000000000005  L 35.4 81.20000000000005 C 41.32 76.24000000000005 59.08 61.360000000000085 65 56.40000000000009 z M 33,57.200000000000045 C 35.8,58.54000000000005 41.72,59.580000000000055 47,63.900000000000055 C 52.28,68.22000000000006 56.92,75.82000000000006 59.400000000000006,78.80000000000007  L 59.400000000000006 78.80000000000007 C 56.92 75.82000000000006 52.28 68.22000000000006 47 63.900000000000055 C 41.72 59.580000000000055 35.8 58.54000000000005 33 57.200000000000045 z M 25.6,47.60000000000002 C 35.68,47.44000000000003 66.57000000000001,44.81000000000006 76,46.80000000000007 C 85.42999999999999,48.79000000000008 73.06999999999998,47.63000000000008 72.74999999999999,57.55000000000008 C 72.42999999999999,67.47000000000008 77.69,88.30000000000011 74.4,96.40000000000009 C 71.11000000000001,104.50000000000007 67.98,98.37 56.3,98.05 C 44.62,97.72999999999999 25.18,99.13000000000005 16,94.80000000000007 C 6.82,90.47000000000008 11.200000000000001,85.5200000000001 10.4,76.40000000000009 C 9.600000000000001,67.28000000000009 11.52,55.12000000000005 12,49.200000000000045 C 12.48,43.280000000000044 8.96,47.440000000000076 12.8,46.80000000000007 C 16.64,46.16000000000006 27.520000000000003,46.16000000000002 31.200000000000003,46 L 31.200000000000003 46 C 27.520000000000003 46.16000000000002 16.64 46.16000000000006 12.8 46.80000000000007 C 8.96 47.440000000000076 12.48 43.280000000000044 12 49.200000000000045 C 11.52 55.12000000000005 9.600000000000001 67.28000
<glyph glyph-name="space" unicode=" " horiz-adv-x="96.80000000000001" d="M158 20" /><glyph glyph-name=".notdef" horiz-adv-x="96.80000000000001"  d="M 65,56.40000000000009 C 59.08,61.360000000000085 41.32,76.24000000000005 35.4,81.20000000000005  L 35.4 81.20000000000005 C 41.32 76.24000000000005 59.08 61.360000000000085 65 56.40000000000009 z M 33,57.200000000000045 C 35.8,58.54000000000005 41.72,59.580000000000055 47,63.900000000000055 C 52.28,68.22000000000006 56.92,75.82000000000006 59.400000000000006,78.80000000000007  L 59.400000000000006 78.80000000000007 C 56.92 75.82000000000006 52.28 68.22000000000006 47 63.900000000000055 C 41.72 59.580000000000055 35.8 58.54000000000005 33 57.200000000000045 z M 25.6,47.60000000000002 C 35.68,47.44000000000003 66.57000000000001,44.81000000000006 76,46.80000000000007 C 85.42999999999999,48.79000000000008 73.06999999999998,47.63000000000008 72.74999999999999,57.55000000000008 C 72.42999999999999,67.47000000000008 77.69,88.30000000000011 74.4,96.40000000000009 C 71.11000000000001,104.50000000000007 67.98,98.37 56.3,98.05 C 44.62,97.72999999999999 25.18,99.13000000000005 16,94.80000000000007 C 6.82,90.47000000000008 11.200000000000001,85.5200000000001 10.4,76.40000000000009 C 9.600000000000001,67.28000000000009 11.52,55.12000000000005 12,49.200000000000045 C 12.48,43.280000000000044 8.96,47.440000000000076 12.8,46.80000000000007 C 16.64,46.16000000000006 27.520000000000003,46.16000000000002 31.200000000000003,46 L 31.200000000000003 46 C 27.520000000000003 46.16000000000002 16.64 46.16000000000006 12.8 46.80000000000007 C 8.96 47.440000000000076 12.48 43.280000000000044 12 49.200000000000045 C 11.52 55.12000000000005 9.600000000000001 67.28000000000009 10.4 76.40000000000009 C 11.200000000000001 85.5200000000001 6.82 90.47000000000008 16 94.80000000000007 C 25.18 99.13000000000005 44.62 97.72999999999999 56.3 98.05 C 67.98 98.37 71.11000000000001 104.50000000000007 74.4 96.40000000000009 C 77.69 88.30000000000011 72.42999999999999 67.47000000000008 72.74999999999999 57.55000000000008 C 73.06999999999998 47.63000000000008 85.42999999999999 48.79000000000008 76 46.80000000000007 C 66.57000000000001 44.81000000000006 35.68 47.44000000000003 25.6 47.60000000000002 z" /><glyph glyph-name="space" unicode=" " horiz-adv-x="96.80000000000001" d="M 65,56.40000000000009 C 59.08,61.360000000000085 41.32,76.24000000000005 35.4,81.20000000000005  L 35.4 81.20000000000005 C 41.32 76.24000000000005 59.08 61.360000000000085 65 56.40000000000009 z M 33,57.200000000000045 C 35.8,58.54000000000005 41.72,59.580000000000055 47,63.900000000000055 C 52.28,68.22000000000006 56.92,75.82000000000006 59.400000000000006,78.80000000000007  L 59.400000000000006 78.80000000000007 C 56.92 75.82000000000006 52.28 68.22000000000006 47 63.900000000000055 C 41.72 59.580000000000055 35.8 58.54000000000005 33 57.200000000000045 z M 25.6,47.60000000000002 C 35.68,47.44000000000003 66.57000000000001,44.81000000000006 76,46.80000000000007 C 85.42999999999999,48.79000000000008 73.06999999999998,47.63000000000008 72.74999999999999,57.55000000000008 C 72.42999999999999,67.47000000000008 77.69,88.30000000000011 74.4,96.40000000000009 C 71.11000000000001,104.50000000000007 67.98,98.37 56.3,98.05 C 44.62,97.72999999999999 25.18,99.13000000000005 16,94.80000000000007 C 6.82,90.47000000000008 11.200000000000001,85.5200000000001 10.4,76.40000000000009 C 9.600000000000001,67.28000000000009 11.52,55.12000000000005 12,49.200000000000045 C 12.48,43.280000000000044 8.96,47.440000000000076 12.8,46.80000000000007 C 16.64,46.16000000000006 27.520000000000003,46.16000000000002 31.200000000000003,46 L 31.200000000000003 46 C 27.520000000000003 46.16000000000002 16.64 46.16000000000006 12.8 46.80000000000007 C 8.96 47.440000000000076 12.48 43.280000000000044 12 49.200000000000045 C 11.52 55.12000000000005 9.600000000000001 67.28000000000009 10.4 76.40000000000009 C 11.200000000000001 85.5200000000001 6.82 90.47000000000008 16 94.80000000000007 C 25.18 99.13000000000005 44.62 97.72999999999999 56.3 98.05 C 67.98 98.37 71.11000000000001 104.50000000000007 74.4 96.40000000000009 C 77.69 88.30000000000011 72.42999999999999 67.47000000000008 72.74999999999999 57.55000000000008 C 73.06999999999998 47.63000000000008 85.42999999999999 48.79000000000008 76 46.80000000000007 C 66.57000000000001 44.81000000000006 35.68 47.44000000000003 25.6 47.60000000000002 z" /><glyph glyph-name="a" unicode="a" horiz-adv-x="81.60000000000001" d="M 54.2,66 C 49.72,64.08000000000001 40.279999999999994,56.56000000000008 31.799999999999997,56.40000000000009 C 23.32,56.2400000000001 16.760000000000005,61.84000000000005 11.800000000000004,65.20000000000005 C 6.840000000000005,68.56000000000003 7.960000000000001,70.00000000000004 7,73.20000000000005 C 6.039999999999999,76.40000000000005 3.3199999999999976,77.84000000000006 7,81.20000000000005 C 10.680000000000001,84.56000000000003 17.240000000000002,88.72000000000001 25.400000000000006,90 C 33.56000000000001,91.28 42.04000000000001,92.72 47.80000000000001,87.60000000000002 C 53.56000000000001,82.48000000000005 52.440000000000005,63.1200000000001 54.2,64.40000000000009 C 55.96,65.68000000000009 56.92000000000001,90 56.60000000000001,94 C 56.28000000000001,98 53.400000000000006,86.32000000000008 52.60000000000001,84.40000000000009 L 52.60000000000001 84.40000000000009 C 53.400000000000006 86.32000000000008 56.28000000000001 98 56.60000000000001 94 C 56.92000000000001 90 55.96 65.68000000000009 54.2 64.40000000000009 C 52.440000000000005 63.1200000000001 53.56000000000001 82.48000000000005 47.80000000000001 87.60000000000002 C 42.04000000000001 92.72 33.56000000000001 91.28 25.400000000000006 90 C 17.240000000000002 88.72000000000001 10.680000000000001 84.56000000000003 7 81.20000000000005 C 3.3199999999999976 77.84000000000006 6.039999999999999 76.40000000000005 7 73.20000000000005 C 7.960000000000001 70.00000000000004 6.840000000000005 68.56000000000003 11.800000000000004 65.20000000000005 C 16.760000000000005 61.84000000000005 23.32 56.2400000000001 31.799999999999997 56.40000000000009 C 40.279999999999994 56.56000000000008 49.72 64.08000000000001 54.2 66 z" /><glyph glyph-name="b" unicode="b" horiz-adv-x="72.4" d="M 5.599999999999994,32.40000000000009 C 6.239999999999995,37.360000000000085 6.56,48.40000000000004 8.799999999999997,57.200000000000045 C 11.039999999999997,66.00000000000004 13.919999999999995,74.96000000000008 16.799999999999997,76.40000000000009 C 19.68,77.8400000000001 20.000000000000004,68.2400000000001 23.200000000000003,64.40000000000009 C 26.400000000000002,60.56000000000008 27.839999999999996,58.48000000000006 32.8,57.200000000000045 C 37.76,55.92000000000003 44.48,56.08 48,58 C 51.52,59.92 52.64000000000001,61.20000000000007 50.400000000000006,66.80000000000007 C 48.160000000000004,72.40000000000006 46.08,85.2 36.8,86 C 27.519999999999996,86.8 10.56,73.84000000000006 4,70.80000000000007 L 4 70.80000000000007 C 10.56 73.84000000000006 27.519999999999996 86.8 36.8 86 C 46.08 85.2 48.160000000000004 72.40000000000006 50.400000000000006 66.80000000000007 C 52.64000000000001 61.20000000000007 51.52 59.92 48 58 C 44.48 56.08 37.76 55.92000000000003 32.8 57.200000000000045 C 27.839999999999996 58.48000000000006 26.400000000000002 60.56000000000008 23.200000000000003 64.40000000000009 C 20.000000000000004 68.2400000000001 19.68 77.8400000000001 16.799999999999997 76.40000000000009 C 13.919999999999995 74.96000000000008 11.039999999999997 66.00000000000004 8.799999999999997 57.200000000000045 C 6.56 48.40000000000004 6.239999999999995 37.360000000000085 5.599999999999994 32.40000000000009 z" /><glyph glyph-name="c" unicode="c" horiz-adv-x="70.80000000000001" d="M 33.80000000000001,45.200000000000045 C 30.12000000000001,44.88000000000004 20.520000000000007,40.08000000000001 15.400000000000006,43.60000000000002 C 10.280000000000005,47.120000000000026 4.360000000000003,56.72000000000007 8.200000000000003,62.80000000000007 C 12.040000000000003,68.88000000000007 26.28000000000001,74 34.60000000000001,74 C 42.92000000000001,74 46.76000000000001,65.04000000000005 49.80000000000001,62.80000000000007 L 49.80000000000001 62.80000000000007 C 46.76000000000001 65.04000000000005 42.92000000000001 74 34.60000000000001 74 C 26.28000000000001 74 12.040000000000003 68.88000000000007 8.200000000000003 62.80000000000007 C 4.360000000000003 56.72000000000007 10.280000000000005 47.120000000000026 15.400000000000006 43.60000000000002 C 20.520000000000007 40.08000000000001 30.12000000000001 44.88000000000004 33.80000000000001 45.200000000000045 z" /><glyph glyph-name="d" unicode="d" horiz-adv-x="66.39999999999999" d="M 44.39999999999999,65.20000000000005 C 42.16,63.92000000000005 39.28,59.92000000000007 33.2,58.80000000000007 C 27.120000000000005,57.680000000000064 18.96,58.64000000000003 14,59.60000000000002 C 9.039999999999997,60.56000000000001 10.019999999999989,60.490000000000016 8.399999999999991,63.60000000000002 C 6.779999999999991,66.71000000000002 5.579999999999998,71.63000000000004 5.9,75.15000000000005 C 6.2200000000000015,78.67000000000006 6.619999999999999,78.87000000000005 10,81.20000000000005 C 13.38,83.53000000000004 17.68,86.32000000000008 22.799999999999997,86.80000000000007 C 27.919999999999995,87.28000000000006 31.759999999999994,87.12000000000003 35.599999999999994,83.60000000000002 C 39.44,80.08000000000001 40.72,80.56000000000003 42,69.20000000000005 C 43.28,57.84000000000005 40.88,23.76000000000006 42,26.800000000000068 C 43.12,29.840000000000078 46.48,72.88000000000008 47.599999999999994,84.40000000000009 L 47.599999999999994 84.40000000000009 C 46.48 72.88000000000008 43.12 29.840000000000078 42 26.800000000000068 C 40.88 23.76000000000006 43.28 57.84000000000005 42 69.20000000000005 C 40.72 80.56000000000003 39.44 80.08000000000001 35.599999999999994 83.60000000000002 C 31.759999999999994 87.12000000000003 27.919999999999995 87.28000000000006 22.799999999999997 86.80000000000007 C 17.68 86.32000000000008 13.38 83.53000000000004 10 81.20000000000005 C 6.619999999999999 78.87000000000005 6.2200000000000015 78.67000000000006 5.9 75.15000000000005 C 5.579999999999998 71.63000000000004 6.779999999999991 66.71000000000002 8.399999999999991 63.60000000000002 C 10.019999999999989 60.490000000000016 9.039999999999997 60.56000000000001 14 59.60000000000002 C 18.96 58.64000000000003 27.120000000000005 57.680000000000064 33.2 58.80000000000007 C 39.28 59.92000000000007 42.16 63.92000000000005 44.39999999999999 65.20000000000005 z" /><glyph glyph-name="e" unicode="e" horiz-adv-x="68.4" d="M 11.799999999999997,53.200000000000045 C 17.88,52.08000000000004 40.120000000000005,51.120000000000026 42.2,47.60000000000002 C 44.28,44.08000000000002 30.040000000000003,34.48000000000001 22.200000000000003,35.60000000000002 C 14.360000000000001,36.72000000000003 1.5599999999999998,46.960000000000036 3,53.200000000000045 C 4.4399999999999995,59.440000000000055 20.919999999999998,64.88000000000007 29.4,66.80000000000007 C 37.879999999999995,68.72000000000007 42.2,63.60000000000007 45.400000000000006,62.80000000000007 L 45.400000000000006 62.80000000000007 C 42.2 63.60000000000007 37.879999999999995 68.72000000000007 29.4 66.80000000000007 C 20.919999999999998 64.88000000000007 4.4399999999999995 59.440000000000055 3 53.200000000000045 C 1.5599999999999998 46.960000000000036 14.360000000000001 36.72000000000003 22.200000000000003 35.60000000000002 C 30.040000000000003 34.48000000000001 44.28 44.08000000000002 42.2 47.60000000000002 C 40.120000000000005 51.120000000000026 17.88 52.08000000000004 11.799999999999997 53.200000000000045 z" /><glyph glyph-name="f" unicode="f" horiz-adv-x="24.799999999999997" d="M 52.8,56.40000000000009 C 49.379999999999995,53.34000000000008 44.660000000000004,39.98000000000006 35.7,41.10000000000005 C 26.740000000000002,42.220000000000034 11.940000000000001,48.38 8,62 C 4.060000000000001,75.62 14.399999999999997,99.76000000000003 16,109.20000000000005  L 16 109.20000000000005 C 14.399999999999997 99.76000000000003 4.060000000000001 75.62 8 62 C 11.940000000000001 48.38 26.740000000000002 42.220000000000034 35.7 41.10000000000005 C 44.660000000000004 39.98000000000006 49.379999999999995 53.34000000000008 52.8 56.40000000000009 z M 11.199999999999996,86.80000000000007 C 15.199999999999998,87.44000000000005 27.200000000000003,89.36000000000001 31.200000000000003,90 L 31.200000000000003 90 C 27.200000000000003 89.36000000000001 15.199999999999998 87.44000000000005 11.199999999999996 86.80000000000007 z" /><glyph glyph-name="g" unicode="g" horiz-adv-x="62.8" d="M 39.8,43.60000000000002 C 36.69,41.97000000000002 31.610000000000003,34.489999999999995 24.250000000000004,35.45000000000002 C 16.890000000000004,36.41000000000003 1.4899999999999995,41.81000000000007 3,48.40000000000009 C 4.509999999999998,54.99000000000011 24.599999999999994,69.3600000000001 31.799999999999997,68.40000000000009 C 39,67.44000000000008 36.6,47.76000000000003 39,43.60000000000002 C 41.4,39.44000000000001 45.71999999999999,34.800000000000026 43.8,47.60000000000002 C 41.88,60.40000000000002 37.56,96.56 29.400000000000006,107.60000000000002 C 21.240000000000002,118.64000000000003 8.280000000000001,103.76000000000006 3,102.80000000000007 L 3 102.80000000000007 C 8.280000000000001 103.76000000000006 21.240000000000002 118.64000000000003 29.400000000000006 107.60000000000002 C 37.56 96.56 41.88 60.40000000000002 43.8 47.60000000000002 C 45.71999999999999 34.800000000000026 41.4 39.44000000000001 39 43.60000000000002 C 36.6 47.76000000000003 39 67.44000000000008 31.799999999999997 68.40000000000009 C 24.599999999999994 69.3600000000001 4.509999999999998 54.99000000000011 3 48.40000000000009 C 1.4899999999999995 41.81000000000007 16.890000000000004 36.41000000000003 24.250000000000004 35.45000000000002 C 31.610000000000003 34.489999999999995 36.69 41.97000000000002 39.8 43.60000000000002 z" /><glyph glyph-name="h" unicode="h" horiz-adv-x="72.8" d="M 4,30 C 5.6,44.08000000000002 9.279999999999998,90.8000000000001 12,100.40000000000009 C 14.720000000000002,110.00000000000009 13.280000000000008,83.92 17.60000000000001,78 C 21.92000000000001,72.08 26.56000000000001,65.04000000000005 33.60000000000001,70.80000000000007 C 40.64000000000001,76.56000000000009 48.959999999999994,99.60000000000007 52.8,106.80000000000007 L 52.8 106.80000000000007 C 48.959999999999994 99.60000000000007 40.64000000000001 76.56000000000009 33.60000000000001 70.80000000000007 C 26.56000000000001 65.04000000000005 21.92000000000001 72.08 17.60000000000001 78 C 13.280000000000008 83.92 14.720000000000002 110.00000000000009 12 100.40000000000009 C 9.279999999999998 90.8000000000001 5.6 44.08000000000002 4 30 z" /><glyph glyph-name="i" unicode="i" horiz-adv-x="57.2" d="M 13.399999999999999,50.80000000000007 C 13.879999999999997,59.600000000000065 15.319999999999997,86.00000000000007 15.799999999999997,94.80000000000007  L 15.799999999999997 94.80000000000007 C 15.319999999999997 86.00000000000007 13.879999999999997 59.600000000000065 13.399999999999999 50.80000000000007 z M 17.4,16.40000000000009 C 18.36,17.840000000000078 23.48,21.840000000000032 22.200000000000003,23.600000000000023 C 20.92,25.360000000000014 11.96,26.000000000000046 11,25.200000000000045 C 10.04,24.400000000000045 16.119999999999997,20.720000000000027 17.4,19.600000000000023 L 17.4 19.600000000000023 C 16.119999999999997 20.720000000000027 10.04 24.400000000000045 11 25.200000000000045 C 11.96 26.000000000000046 20.92 25.360000000000014 22.200000000000003 23.600000000000023 C 23.48 21.840000000000032 18.36 17.840000000000078 17.4 16.40000000000009 z" /><glyph glyph-name="j" unicode="j" horiz-adv-x="22" d="M 13.200000000000017,34.80000000000007 C 12.240000000000014,43.280000000000065 11.990000000000002,65.82000000000005 8.400000000000006,77.20000000000005 C 4.810000000000002,88.58000000000004 0.5300000000000038,90.42000000000002 -4.749999999999997,91.70000000000002 C -10.029999999999998,92.98000000000002 -17.11,88.58000000000001 -18,83.60000000000002 C -18.89,78.62000000000003 -10.959999999999997,70.16000000000005 -9.199999999999996,66.80000000000007  L -9.199999999999996 66.80000000000007 C -10.959999999999997 70.16000000000005 -18.89 78.62000000000003 -18 83.60000000000002 C -17.11 88.58000000000001 -10.029999999999998 92.98000000000002 -4.749999999999997 91.70000000000002 C 0.5300000000000038 90.42000000000002 4.810000000000002 88.58000000000004 8.400000000000006 77.20000000000005 C 11.990000000000002 65.82000000000005 12.240000000000014 43.280000000000065 13.200000000000017 34.80000000000007 z M 16.400000000000006,18 C 15.100000000000005,18.080000000000005 9.58,17.920000000000016 9.899999999999999,18.400000000000034 C 10.219999999999997,18.880000000000052 16.38,20.000000000000078 18,20.40000000000009 L 18 20.40000000000009 C 16.38 20.000000000000078 10.219999999999997 18.880000000000052 9.899999999999999 18.400000000000034 C 9.58 17.920000000000016 15.100000000000005 18.080000000000005 16.400000000000006 18 z" /><glyph glyph-name="k" unicode="k" horiz-adv-x="72" d="M 5,16.40000000000009 C 5.799999999999998,33.360000000000085 8.2,84.24000000000005 9,101.20000000000005  L 9 101.20000000000005 C 8.2 84.24000000000005 5.799999999999998 33.360000000000085 5 16.40000000000009 z M 36.2,34 C 30.76,39.280000000000015 8.839999999999998,49.36000000000008 9,60.40000000000009 C 9.16,71.4400000000001 31.4,83.44000000000005 37,89.20000000000005 L 37 89.20000000000005 C 31.4 83.44000000000005 9.16 71.4400000000001 9 60.40000000000009 C 8.839999999999998 49.36000000000008 30.76 39.280000000000015 36.2 34 z" /><glyph glyph-name="l" unicode="l" horiz-adv-x="44.800000000000004" d="M 14,14.800000000000068 C 12.389999999999999,32.970000000000056 5.7899999999999885,86.45000000000002 5.95,105.65000000000002 C 6.110000000000001,124.85000000000002 13.030000000000003,109.77000000000005 14.800000000000004,110.80000000000007 L 14.800000000000004 110.80000000000007 C 13.030000000000003 109.77000000000005 6.110000000000001 124.85000000000002 5.95 105.65000000000002 C 5.7899999999999885 86.45000000000002 12.389999999999999 32.970000000000056 14 14.800000000000068 z" /><glyph glyph-name="m" unicode="m" horiz-adv-x="82" d="M 7,58.80000000000007 C 7.239999999999999,66.26000000000006 5.89,96.11000000000006 8.2,96.10000000000005 C 10.509999999999998,96.09000000000005 14.469999999999999,65.09000000000006 18.549999999999997,58.75000000000007 C 22.629999999999995,52.41000000000008 25.790000000000003,59.27000000000009 28.6,64.40000000000009 C 31.41,69.5300000000001 31.479999999999997,84.88000000000011 32.599999999999994,84.40000000000009 C 33.71999999999999,83.92000000000007 30.67999999999999,64.72 34.19999999999999,62 C 37.719999999999985,59.279999999999994 46.83999999999999,64.24000000000005 50.19999999999999,70.80000000000007 C 53.55999999999999,77.36000000000008 50.839999999999996,90.00000000000007 51,94.80000000000007 L 51 94.80000000000007 C 50.839999999999996 90.00000000000007 53.55999999999999 77.36000000000008 50.19999999999999 70.80000000000007 C 46.83999999999999 64.24000000000005 37.719999999999985 59.279999999999994 34.19999999999999 62 C 30.67999999999999 64.72 33.71999999999999 83.92000000000007 32.599999999999994 84.40000000000009 C 31.479999999999997 84.88000000000011 31.41 69.5300000000001 28.6 64.40000000000009 C 25.790000000000003 59.27000000000009 22.629999999999995 52.41000000000008 18.549999999999997 58.75000000000007 C 14.469999999999999 65.09000000000006 10.509999999999998 96.09000000000005 8.2 96.10000000000005 C 5.89 96.11000000000006 7.239999999999999 66.26000000000006 7 58.80000000000007 z" /><glyph glyph-name="n" unicode="n" horiz-adv-x="60.400000000000006" d="M 7,44.40000000000009 C 7.3199999999999985,52.88000000000009 6.679999999999998,86.64000000000007 8.599999999999998,86.80000000000007 C 10.519999999999998,86.96000000000006 11.07,51.78000000000005 16.599999999999998,45.200000000000045 C 22.13,38.62000000000004 31.29,45.900000000000055 36.25,53.900000000000055 C 41.21,61.900000000000055 40.370000000000005,78.94000000000005 41.400000000000006,85.20000000000005 L 41.400000000000006 85.20000000000005 C 40.370000000000005 78.94000000000005 41.21 61.900000000000055 36.25 53.900000000000055 C 31.29 45.900000000000055 22.13 38.62000000000004 16.599999999999998 45.200000000000045 C 11.07 51.78000000000005 10.519999999999998 86.96000000000006 8.599999999999998 86.80000000000007 C 6.679999999999998 86.64000000000007 7.3199999999999985 52.88000000000009 7 44.40000000000009 z" /><glyph glyph-name="o" unicode="o" horiz-adv-x="69.6" d="M 39.599999999999994,46 C 37.04,45.040000000000006 32.40000000000001,40.88000000000004 26.80000000000001,41.200000000000045 C 21.200000000000014,41.520000000000046 15.280000000000005,41.520000000000024 11.600000000000001,47.60000000000002 C 7.919999999999998,53.68000000000002 3.439999999999997,64.56000000000002 8.399999999999999,71.60000000000002 C 13.36,78.64000000000003 29.360000000000007,85.84000000000006 36.400000000000006,82.80000000000007 C 43.440000000000005,79.76000000000008 43.919999999999995,64.2400000000001 43.599999999999994,56.40000000000009 C 43.279999999999994,48.56000000000008 36.56000000000001,46.16000000000004 34.80000000000001,43.60000000000002 L 34.80000000000001 43.60000000000002 C 36.56000000000001 46.16000000000004 43.279999999999994 48.56000000000008 43.599999999999994 56.40000000000009 C 43.919999999999995 64.2400000000001 43.440000000000005 79.76000000000008 36.400000000000006 82.80000000000007 C 29.360000000000007 85.84000000000006 13.36 78.64000000000003 8.399999999999999 71.60000000000002 C 3.439999999999997 64.56000000000002 7.919999999999998 53.68000000000002 11.600000000000001 47.60000000000002 C 15.280000000000005 41.520000000000024 21.200000000000014 41.520000000000046 26.80000000000001 41.200000000000045 C 32.40000000000001 40.88000000000004 37.04 45.040000000000006 39.599999999999994 46 z" /><glyph glyph-name="p" unicode="p" horiz-adv-x="81.2" d="M 19.400000000000002,110 C 17.32,105.04 10.440000000000001,94.80000000000004 9,85.20000000000005 C 7.56,75.60000000000005 8.200000000000001,73.67999999999999 12.2,62 C 16.2,50.32 21.16,32.40000000000007 29,26.800000000000068 C 36.84,21.200000000000067 49.00000000000001,27.920000000000005 51.400000000000006,34 C 53.800000000000004,40.08 48.199999999999996,53.360000000000035 41,57.200000000000045 C 33.800000000000004,61.040000000000056 20.520000000000003,54.00000000000004 15.400000000000002,53.200000000000045 L 15.400000000000002 53.200000000000045 C 20.520000000000003 54.00000000000004 33.800000000000004 61.040000000000056 41 57.200000000000045 C 48.199999999999996 53.360000000000035 53.800000000000004 40.08 51.400000000000006 34 C 49.00000000000001 27.920000000000005 36.84 21.200000000000067 29 26.800000000000068 C 21.16 32.40000000000007 16.2 50.32 12.2 62 C 8.200000000000001 73.67999999999999 7.56 75.60000000000005 9 85.20000000000005 C 10.440000000000001 94.80000000000004 17.32 105.04 19.400000000000002 110 z" /><glyph glyph-name="q" unicode="q" horiz-adv-x="72" d="M 66.39999999999998,38.80000000000007 C 64.47999999999999,36.88000000000007 62.35000000000001,31.93000000000005 56.80000000000001,29.200000000000045 C 51.250000000000014,26.47000000000004 48.410000000000004,21.470000000000052 38.65,25.15000000000005 C 28.889999999999993,28.830000000000048 5.8100000000000005,39.27000000000002 8,47.60000000000002 C 10.19,55.93000000000003 37.92,68.88000000000007 49.599999999999994,66.80000000000007 C 61.27999999999999,64.72000000000007 63.19999999999997,30.32000000000005 66.39999999999998,37.200000000000045 C 69.59999999999998,44.08000000000004 61.600000000000016,86.64000000000006 65.60000000000002,101.20000000000005 C 69.60000000000002,115.76000000000003 80.47999999999999,111.92 86.39999999999998,110 C 92.31999999999996,108.08 93.43999999999998,95.28000000000002 95.19999999999999,91.60000000000002 L 95.19999999999999 91.60000000000002 C 93.43999999999998 95.28000000000002 92.31999999999996 108.08 86.39999999999998 110 C 80.47999999999999 111.92 69.60000000000002 115.76000000000003 65.60000000000002 101.20000000000005 C 61.600000000000016 86.64000000000006 69.59999999999998 44.08000000000004 66.39999999999998 37.200000000000045 C 63.19999999999997 30.32000000000005 61.27999999999999 64.72000000000007 49.599999999999994 66.80000000000007 C 37.92 68.88000000000007 10.19 55.93000000000003 8 47.60000000000002 C 5.8100000000000005 39.27000000000002 28.889999999999993 28.830000000000048 38.65 25.15000000000005 C 48.410000000000004 21.470000000000052 51.250000000000014 26.47000000000004 56.80000000000001 29.200000000000045 C 62.35000000000001 31.93000000000005 64.47999999999999 36.88000000000007 66.39999999999998 38.80000000000007 z" /><glyph glyph-name="r" unicode="r" horiz-adv-x="61.19999999999999" d="M 12.399999999999999,31.600000000000023 C 11.119999999999997,42.32000000000003 5.039999999999999,84.88000000000004 6,85.20000000000005 C 6.960000000000001,85.52000000000005 10.64,42.16000000000004 17.200000000000003,33.200000000000045 C 23.760000000000005,24.24000000000005 34.48000000000001,38.96000000000008 38.80000000000001,40.40000000000009 L 38.80000000000001 40.40000000000009 C 34.48000000000001 38.96000000000008 23.760000000000005 24.24000000000005 17.200000000000003 33.200000000000045 C 10.64 42.16000000000004 6.960000000000001 85.52000000000005 6 85.20000000000005 C 5.039999999999999 84.88000000000004 11.119999999999997 42.32000000000003 12.399999999999999 31.600000000000023 z" /><glyph glyph-name="s" unicode="s" horiz-adv-x="80.8" d="M 54.8,50.80000000000007 C 49.839999999999996,46.48000000000006 37.84,29.200000000000042 30,29.200000000000045 C 22.16,29.200000000000045 13.520000000000001,44.24000000000008 15.600000000000001,50.80000000000007 C 17.680000000000003,57.360000000000056 34.32000000000001,55.76000000000001 40.400000000000006,62 C 46.480000000000004,68.23999999999998 51.28,76.88 46,82 C 40.72,87.12 22,90.16000000000001 14,87.60000000000002 C 6.000000000000001,85.04000000000003 7.6000000000000005,72.88000000000004 6,69.20000000000005 L 6 69.20000000000005 C 7.6000000000000005 72.88000000000004 6.000000000000001 85.04000000000003 14 87.60000000000002 C 22 90.16000000000001 40.72 87.12 46 82 C 51.28 76.88 46.480000000000004 68.23999999999998 40.400000000000006 62 C 34.32000000000001 55.76000000000001 17.680000000000003 57.360000000000056 15.600000000000001 50.80000000000007 C 13.520000000000001 44.24000000000008 22.16 29.200000000000045 30 29.200000000000045 C 37.84 29.200000000000042 49.839999999999996 46.48000000000006 54.8 50.80000000000007 z" /><glyph glyph-name="t" unicode="t" horiz-adv-x="13.599999999999994" d="M -15,42.80000000000007 C 2.760000000000005,42.32000000000007 56.040000000000006,40.88000000000009 73.80000000000001,40.40000000000009  L 73.80000000000001 40.40000000000009 C 56.040000000000006 40.88000000000009 2.760000000000005 42.32000000000007 -15 42.80000000000007 z M 20.200000000000003,22.800000000000068 C 20.040000000000003,37.20000000000007 19.56,80.40000000000006 19.4,94.80000000000007 L 19.4 94.80000000000007 C 19.56 80.40000000000006 20.040000000000003 37.20000000000007 20.200000000000003 22.800000000000068 z" /><glyph glyph-name="u" unicode="u" horiz-adv-x="78.80000000000001" d="M 13,27.600000000000023 C 12.2,36.24000000000003 3.0799999999999956,62.80000000000007 9,70.80000000000007 C 14.920000000000005,78.80000000000007 33.64000000000002,74.16000000000004 42.60000000000002,67.60000000000002 C 51.560000000000024,61.040000000000006 51.88000000000002,36.08 53.80000000000001,38 C 55.720000000000006,39.92 52.519999999999996,69.36000000000004 52.19999999999999,77.20000000000005 L 52.19999999999999 77.20000000000005 C 52.519999999999996 69.36000000000004 55.720000000000006 39.92 53.80000000000001 38 C 51.88000000000002 36.08 51.560000000000024 61.040000000000006 42.60000000000002 67.60000000000002 C 33.64000000000002 74.16000000000004 14.920000000000005 78.80000000000007 9 70.80000000000007 C 3.0799999999999956 62.80000000000007 12.2 36.24000000000003 13 27.600000000000023 z" /><glyph glyph-name="v" unicode="v" horiz-adv-x="69.20000000000002" d="M 46.20000000000002,41.200000000000045 C 43.320000000000014,51.12000000000005 39.640000000000015,91.28000000000006 31.80000000000001,90.80000000000007 C 23.960000000000008,90.32000000000008 11.960000000000004,49.20000000000007 7,38.80000000000007 L 7 38.80000000000007 C 11.960000000000004 49.20000000000007 23.960000000000008 90.32000000000008 31.80000000000001 90.80000000000007 C 39.640000000000015 91.28000000000006 43.320000000000014 51.12000000000005 46.20000000000002 41.200000000000045 z" /><glyph glyph-name="w" unicode="w" horiz-adv-x="90.79999999999998" d="M 9,42.80000000000007 C 9,48.88000000000007 6.439999999999998,64.88000000000004 9,73.20000000000005 C 11.559999999999999,81.52000000000005 16.36,90.00000000000009 21.799999999999997,84.40000000000009 C 27.239999999999995,78.8000000000001 33.32,53.040000000000056 36.2,45.200000000000045  L 36.2 45.200000000000045 C 33.32 53.040000000000056 27.239999999999995 78.8000000000001 21.799999999999997 84.40000000000009 C 16.36 90.00000000000009 11.559999999999999 81.52000000000005 9 73.20000000000005 C 6.439999999999998 64.88000000000004 9 48.88000000000007 9 42.80000000000007 z M 54.599999999999994,38.80000000000007 C 52.839999999999996,47.280000000000065 49.63999999999999,79.12000000000005 45.8,81.20000000000005 C 41.96,83.28000000000004 37.48,55.600000000000044 35.4,49.200000000000045 L 35.4 49.200000000000045 C 37.48 55.600000000000044 41.96 83.28000000000004 45.8 81.20000000000005 C 49.63999999999999 79.12000000000005 52.839999999999996 47.280000000000065 54.599999999999994 38.80000000000007 z" /><glyph glyph-name="x" unicode="x" horiz-adv-x="92.4" d="M 5,18.800000000000068 C 11.719999999999999,27.120000000000072 28.519999999999992,51.280000000000086 38.599999999999994,60.40000000000009 C 48.67999999999999,69.5200000000001 49.64,65.6800000000001 55.400000000000006,64.40000000000009 C 61.16000000000001,63.120000000000076 65,56.08000000000002 67.4,54  L 67.4 54 C 65 56.08000000000002 61.16000000000001 63.120000000000076 55.400000000000006 64.40000000000009 C 49.64 65.6800000000001 48.67999999999999 69.5200000000001 38.599999999999994 60.40000000000009 C 28.519999999999992 51.280000000000086 11.719999999999999 27.120000000000072 5 18.800000000000068 z M 56.20000000000002,19.600000000000023 C 51.240000000000016,26.960000000000036 40.20000000000002,47.600000000000094 31.400000000000006,56.40000000000009 C 22.6,65.20000000000009 16.040000000000003,62.16000000000003 12.200000000000003,63.60000000000002 L 12.200000000000003 63.60000000000002 C 16.040000000000003 62.16000000000003 22.6 65.20000000000009 31.400000000000006 56.40000000000009 C 40.20000000000002 47.600000000000094 51.240000000000016 26.960000000000036 56.20000000000002 19.600000000000023 z" /><glyph glyph-name="y" unicode="y" horiz-adv-x="88.4" d="M 7,30 C 7.800000000000001,38.16000000000001 2.6799999999999997,70.16000000000005 11,70.80000000000007 C 19.32,71.44000000000008 40.919999999999995,26.160000000000057 48.599999999999994,33.200000000000045 C 56.279999999999994,40.24000000000004 56.60000000000001,92.08 49.400000000000006,106 C 42.2,119.92 19.959999999999997,103.44000000000005 12.599999999999994,102.80000000000007 L 12.599999999999994 102.80000000000007 C 19.959999999999997 103.44000000000005 42.2 119.92 49.400000000000006 106 C 56.60000000000001 92.08 56.279999999999994 40.24000000000004 48.599999999999994 33.200000000000045 C 40.919999999999995 26.160000000000057 19.32 71.44000000000008 11 70.80000000000007 C 2.6799999999999997 70.16000000000005 7.800000000000001 38.16000000000001 7 30 z" /><glyph glyph-name="z" unicode="z" horiz-adv-x="59.599999999999994" d="M 4,36.40000000000009 C 12.319999999999999,37.04000000000008 45.43999999999999,35.76000000000003 45.599999999999994,39.60000000000002 C 45.76,43.44000000000001 4.960000000000002,51.44000000000001 4.800000000000004,55.60000000000002 C 4.640000000000008,59.76000000000003 36.80000000000001,59.440000000000076 44.80000000000001,60.40000000000009 L 44.80000000000001 60.40000000000009 C 36.80000000000001 59.440000000000076 4.640000000000008 59.76000000000003 4.800000000000004 55.60000000000002 C 4.960000000000002 51.44000000000001 45.76 43.44000000000001 45.599999999999994 39.60000000000002 C 45.43999999999999 35.76000000000003 12.319999999999999 37.04000000000008 4 36.40000000000009 z" /><glyph glyph-name="A" unicode="A" horiz-adv-x="181.60000000000002" d="M 47.2,117.20000000000005 C 52.64,97.52000000000005 66.4,21.840000000000078 74.4,18.800000000000068 C 82.4,15.76000000000006 84.64,85.36000000000001 87.2,102  L 87.2 102 C 84.64 85.36000000000001 82.4 15.76000000000006 74.4 18.800000000000068 C 66.4 21.840000000000078 52.64 97.52000000000005 47.2 117.20000000000005 z M 80.80000000000001,69.20000000000005 C 76.00000000000001,69.68000000000004 61.60000000000001,71.12000000000003 56.800000000000004,71.60000000000002 L 56.800000000000004 71.60000000000002 C 61.60000000000001 71.12000000000003 76.00000000000001 69.68000000000004 80.80000000000001 69.20000000000005 z" /><glyph glyph-name="B" unicode="B" horiz-adv-x="173.60000000000002" d="M 52.800000000000004,26.800000000000068 C 52.800000000000004,42.00000000000007 50.24,102.00000000000007 52.800000000000004,102.80000000000007 C 55.36000000000001,103.60000000000007 57.60000000000001,45.52000000000008 65.60000000000001,30.800000000000068 C 73.60000000000001,16.080000000000062 84.96000000000001,24.56000000000006 92.80000000000001,29.200000000000045 C 100.64000000000001,33.84000000000003 109.28000000000002,46.64000000000001 104.80000000000001,54 C 100.32000000000001,61.35999999999999 71.2,61.2 70.4,66 C 69.60000000000001,70.8 96.48000000000002,71.43999999999998 100.80000000000001,78 C 105.12,84.56000000000002 100.64,93.52000000000005 92,98.80000000000007 C 83.36,104.08000000000008 64.48,103.28000000000009 57.6,104.40000000000009 L 57.6 104.40000000000009 C 64.48 103.28000000000009 83.36 104.08000000000008 92 98.80000000000007 C 100.64 93.52000000000005 105.12 84.56000000000002 100.80000000000001 78 C 96.48000000000002 71.43999999999998 69.60000000000001 70.8 70.4 66 C 71.2 61.2 100.32000000000001 61.35999999999999 104.80000000000001 54 C 109.28000000000002 46.64000000000001 100.64000000000001 33.84000000000003 92.80000000000001 29.200000000000045 C 84.96000000000001 24.56000000000006 73.60000000000001 16.080000000000062 65.60000000000001 30.800000000000068 C 57.60000000000001 45.52000000000008 55.36000000000001 103.60000000000007 52.800000000000004 102.80000000000007 C 50.24 102.00000000000007 52.800000000000004 42.00000000000007 52.800000000000004 26.800000000000068 z" /><glyph glyph-name="C" unicode="C" horiz-adv-x="204.40000000000003" d="M 125.60000000000001,38.80000000000007 C 117.28,34.48000000000006 98.56,16.240000000000055 84,17.200000000000045 C 69.44,18.160000000000036 56.16,27.760000000000012 52.800000000000004,43.60000000000002 C 49.440000000000005,59.44000000000003 54.879999999999995,84.40000000000009 67.2,96.40000000000009 C 79.52000000000001,108.40000000000009 104,107.12000000000003 114.4,103.60000000000002 C 124.80000000000001,100.08000000000001 118.24000000000001,83.76000000000006 119.2,78.80000000000007 L 119.2 78.80000000000007 C 118.24000000000001 83.76000000000006 124.80000000000001 100.08000000000001 114.4 103.60000000000002 C 104 107.12000000000003 79.52000000000001 108.40000000000009 67.2 96.40000000000009 C 54.879999999999995 84.40000000000009 49.440000000000005 59.44000000000003 52.800000000000004 43.60000000000002 C 56.16 27.760000000000012 69.44 18.160000000000036 84 17.200000000000045 C 98.56 16.240000000000055 117.28 34.48000000000006 125.60000000000001 38.80000000000007 z" /><glyph glyph-name="D" unicode="D" horiz-adv-x="218.8" d="M 70.4,31.600000000000023 C 70.4,49.040000000000035 68,118.32000000000008 70.4,118.80000000000007 C 72.80000000000001,119.28000000000006 72,40.4 82.4,34 C 92.80000000000001,27.6 117.60000000000001,71.28000000000006 122.4,86.80000000000007 C 127.2,102.32000000000008 116.64,105.68 106.4,111.60000000000002 C 96.16000000000001,117.52000000000002 78.24000000000001,115.44000000000008 71.2,116.40000000000009 L 71.2 116.40000000000009 C 78.24000000000001 115.44000000000008 96.16000000000001 117.52000000000002 106.4 111.60000000000002 C 116.64 105.68 127.2 102.32000000000008 122.4 86.80000000000007 C 117.60000000000001 71.28000000000006 92.80000000000001 27.6 82.4 34 C 72 40.4 72.80000000000001 119.28000000000006 70.4 118.80000000000007 C 68 118.32000000000008 70.4 49.040000000000035 70.4 31.600000000000023 z" /><glyph glyph-name="E" unicode="E" horiz-adv-x="91.2" d="M 123.2,18.800000000000068 C 111.84,18.800000000000068 80.64,11.92000000000007 66.4,18.800000000000068 C 52.160000000000004,25.680000000000067 55.51999999999999,38.16000000000005 52,53.200000000000045 C 48.48,68.24000000000004 38.24,86.32000000000001 48.800000000000004,94 C 59.36000000000001,101.67999999999999 93.60000000000001,92.08000000000003 104.80000000000001,91.60000000000002  L 104.80000000000001 91.60000000000002 C 93.60000000000001 92.08000000000003 59.36000000000001 101.67999999999999 48.800000000000004 94 C 38.24 86.32000000000001 48.48 68.24000000000004 52 53.200000000000045 C 55.51999999999999 38.16000000000005 52.160000000000004 25.680000000000067 66.4 18.800000000000068 C 80.64 11.92000000000007 111.84 18.800000000000068 123.2 18.800000000000068 z M 57.6,52.40000000000009 C 62.400000000000006,52.24000000000008 76.80000000000001,51.76000000000003 81.60000000000001,51.60000000000002 L 81.60000000000001 51.60000000000002 C 76.80000000000001 51.76000000000003 62.400000000000006 52.24000000000008 57.6 52.40000000000009 z" /><glyph glyph-name="F" unicode="F" horiz-adv-x="29.19999999999999" d="M 98.19999999999999,37.200000000000045 C 83.32,38.16000000000003 38.68,27.440000000000012 23.799999999999997,42 C 8.919999999999998,56.559999999999995 23.799999999999994,96.4 23.799999999999997,110  L 23.799999999999997 110 C 23.799999999999994 96.4 8.919999999999998 56.559999999999995 23.799999999999997 42 C 38.68 27.440000000000012 83.32 38.16000000000003 98.19999999999999 37.200000000000045 z M 23,70.80000000000007 C 29.4,71.60000000000007 48.6,74.00000000000007 55,74.80000000000007 L 55 74.80000000000007 C 48.6 74.00000000000007 29.4 71.60000000000007 23 70.80000000000007 z" /><glyph glyph-name="G" unicode="G" horiz-adv-x="154.39999999999998" d="M 106.60000000000002,50.80000000000007 C 103.24000000000002,45.84000000000005 101.32000000000002,30.640000000000008 89.80000000000001,26 C 78.28,21.35999999999999 62.6,17.04000000000001 49,27.600000000000023 C 35.39999999999999,38.16000000000003 14.759999999999991,62.48000000000006 21.799999999999997,78.80000000000007 C 28.839999999999996,95.12000000000008 68.36,108.56000000000006 84.2,109.20000000000005 C 100.04,109.84000000000003 103.4,90.16 101,82 C 98.6,73.84 70.12,70.00000000000009 72.2,68.40000000000009 C 74.28,66.8000000000001 103.55999999999999,72.88000000000002 111.39999999999998,74 L 111.39999999999998 74 C 103.55999999999999 72.88000000000002 74.28 66.8000000000001 72.2 68.40000000000009 C 70.12 70.00000000000009 98.6 73.84 101 82 C 103.4 90.16 100.04 109.84000000000003 84.2 109.20000000000005 C 68.36 108.56000000000006 28.839999999999996 95.12000000000008 21.799999999999997 78.80000000000007 C 14.759999999999991 62.48000000000006 35.39999999999999 38.16000000000003 49 27.600000000000023 C 62.6 17.04000000000001 78.28 21.35999999999999 89.80000000000001 26 C 101.32000000000002 30.640000000000008 103.24000000000002 45.84000000000005 106.60000000000002 50.80000000000007 z" /><glyph glyph-name="H" unicode="H" horiz-adv-x="117.6" d="M 11.599999999999994,28.40000000000009 C 11.599999999999994,31.120000000000072 12.399999999999995,35.6 11.599999999999994,42 C 10.799999999999995,48.4 8.719999999999992,49.04000000000008 7.599999999999994,60.40000000000009 C 6.479999999999995,71.7600000000001 6.319999999999999,98.00000000000007 6,98.80000000000007 C 5.6800000000000015,99.60000000000007 5.5200000000000005,72.40000000000009 6,64.40000000000009 C 6.48,56.40000000000009 5.680000000000004,60.40000000000007 8.400000000000006,58.80000000000007 C 11.120000000000008,57.20000000000007 12.88000000000001,56.7200000000001 19.60000000000001,56.40000000000009 C 26.320000000000007,56.080000000000084 38.160000000000004,57.36000000000006 42,57.200000000000045 C 45.839999999999996,57.040000000000035 39.44,57.68000000000002 38.8,55.60000000000002 C 38.16,53.520000000000024 37.67999999999999,51.600000000000065 38.8,46.80000000000007 C 39.92,42.00000000000007 43.28000000000001,35.76000000000003 44.400000000000006,31.600000000000023 C 45.52000000000001,27.44000000000001 46.96000000000001,15.759999999999993 44.400000000000006,26 C 41.84,36.24000000000001 33.84000000000001,68.56000000000006 31.60000000000001,82.80000000000007 C 29.360000000000007,97.04000000000008 32.88,94.32000000000005 33.2,97.20000000000005 L 33.2 97.20000000000005 C 32.88 94.32000000000005 29.360000000000007 97.04000000000008 31.60000000000001 82.80000000000007 C 33.84000000000001 68.56000000000006 41.84 36.24000000000001 44.400000000000006 26 C 46.96000000000001 15.759999999999993 45.52000000000001 27.44000000000001 44.400000000000006 31.600000000000023 C 43.28000000000001 35.76000000000003 39.92 42.00000000000007 38.8 46.80000000000007 C 37.67999999999999 51.600000000000065 38.16 53.520000000000024 38.8 55.60000000000002 C 39.44 57.68000000000002 45.839999999999996 57.040000000000035 42 57.200000000000045 C 38.160000000000004 57.36000000000006 26.320000000000007 56.080000000000084 19.60000000000001 56.40000000000009 C 12.88000000000001 56.7200000000001 11.120000000000008 57.20000000000007 8.400000000000006 58.80000000000007 C 5.680000000000004 60.40000000000007 6.48 56.40000000000009 6 64.40000000000009 C 5.5200000000000005 72.40000000000009 5.6800000000000015 99.60000000000007 6 98.80000000000007 C 6.319999999999999 98.00000000000007 6.479999999999995 71.7600000000001 7.599999999999994 60.40000000000009 C 8.719999999999992 49.04000000000008 10.799999999999995 48.4 11.599999999999994 42 C 12.399999999999995 35.6 11.599999999999994 31.120000000000072 11.599999999999994 28.40000000000009 z" /><glyph glyph-name="I" unicode="I" horiz-adv-x="59.20000000000002" d="M 9,24.40000000000009 C 30.440000000000005,26.32000000000007 107.40000000000002,31.92000000000001 116.20000000000002,34 C 125.00000000000001,36.08 65.16,18.640000000000054 53,34.80000000000007 C 40.83999999999999,50.96000000000008 67.4,99.76000000000008 55.400000000000006,114.80000000000007 C 43.400000000000006,129.84000000000006 -15.160000000000002,110.96000000000001 -7,110 C 1.160000000000002,109.03999999999999 75.56000000000002,110 96.20000000000002,110 L 96.20000000000002 110 C 75.56000000000002 110 1.160000000000002 109.03999999999999 -7 110 C -15.160000000000002 110.96000000000001 43.400000000000006 129.84000000000006 55.400000000000006 114.80000000000007 C 67.4 99.76000000000008 40.83999999999999 50.96000000000008 53 34.80000000000007 C 65.16 18.640000000000054 125.00000000000001 36.08 116.20000000000002 34 C 107.40000000000002 31.92000000000001 30.440000000000005 26.32000000000007 9 24.40000000000009 z" /><glyph glyph-name="J" unicode="J" horiz-adv-x="91.20000000000002" d="M 28.19999999999999,23.600000000000023 C 41.8,24.08000000000002 89.48000000000002,25.359999999999992 96.20000000000002,26 C 102.92000000000002,26.640000000000008 69.00000000000001,15.440000000000051 61.80000000000001,26.800000000000068 C 54.60000000000001,38.16000000000008 58.920000000000016,65.52000000000007 60.20000000000002,82.80000000000007 C 61.48000000000002,100.08000000000007 73.32000000000002,106.16000000000005 68.20000000000002,113.20000000000005 C 63.08000000000001,120.24000000000004 43.72,119.27999999999999 34.599999999999994,118 C 25.47999999999999,116.72 25.32,111.60000000000007 22.6,106.80000000000007 C 19.880000000000003,102.00000000000007 21.32,96.56000000000002 21,94 L 21 94 C 21.32 96.56000000000002 19.880000000000003 102.00000000000007 22.6 106.80000000000007 C 25.32 111.60000000000007 25.47999999999999 116.72 34.599999999999994 118 C 43.72 119.27999999999999 63.08000000000001 120.24000000000004 68.20000000000002 113.20000000000005 C 73.32000000000002 106.16000000000005 61.48000000000002 100.08000000000007 60.20000000000002 82.80000000000007 C 58.920000000000016 65.52000000000007 54.60000000000001 38.16000000000008 61.80000000000001 26.800000000000068 C 69.00000000000001 15.440000000000051 102.92000000000002 26.640000000000008 96.20000000000002 26 C 89.48000000000002 25.359999999999992 41.8 24.08000000000002 28.19999999999999 23.600000000000023 z" /><glyph glyph-name="K" unicode="K" horiz-adv-x="122.4" d="M 18.200000000000003,18 C 17.560000000000002,35.44000000000001 15.319999999999993,97.20000000000005 15,105.20000000000005 C 14.680000000000001,113.20000000000005 6.5200000000000085,73.04000000000002 16.60000000000001,58 C 26.68000000000001,42.95999999999999 63.96000000000001,30.639999999999986 65.4,30 C 66.84,29.360000000000014 27.48000000000001,47.12000000000005 23.80000000000001,54.80000000000007 C 20.12000000000001,62.48000000000009 39.00000000000001,58.96000000000011 47.000000000000014,68.40000000000009 C 55.000000000000014,77.84000000000007 60.44000000000001,95.28000000000002 63.80000000000001,102 L 63.80000000000001 102 C 60.44000000000001 95.28000000000002 55.000000000000014 77.84000000000007 47.000000000000014 68.40000000000009 C 39.00000000000001 58.96000000000011 20.12000000000001 62.48000000000009 23.80000000000001 54.80000000000007 C 27.48000000000001 47.12000000000005 66.84 29.360000000000014 65.4 30 C 63.96000000000001 30.639999999999986 26.68000000000001 42.95999999999999 16.60000000000001 58 C 6.5200000000000085 73.04000000000002 14.680000000000001 113.20000000000005 15 105.20000000000005 C 15.319999999999993 97.20000000000005 17.560000000000002 35.44000000000001 18.200000000000003 18 z" /><glyph glyph-name="L" unicode="L" horiz-adv-x="156" d="M 69.60000000000001,16.40000000000009 C 68.96000000000001,34.96000000000008 52.959999999999994,91.60000000000005 66.4,109.20000000000005 C 79.84,126.80000000000004 122.72000000000001,105.36000000000008 136.8,104.40000000000009 L 136.8 104.40000000000009 C 122.72000000000001 105.36000000000008 79.84 126.80000000000004 66.4 109.20000000000005 C 52.959999999999994 91.60000000000005 68.96000000000001 34.96000000000008 69.60000000000001 16.40000000000009 z" /><glyph glyph-name="M" unicode="M" horiz-adv-x="113.6" d="M 12,109.20000000000005 C 16.16,92.56000000000003 27.520000000000014,44.08 32.80000000000001,26 C 38.08000000000001,7.920000000000002 35.84000000000001,10.800000000000066 38.400000000000006,18.800000000000068 C 40.96,26.800000000000068 39.99999999999999,66.8 45.599999999999994,66 C 51.199999999999996,65.2 61.28,10.800000000000068 66.4,14.800000000000068 C 71.52000000000001,18.800000000000068 68.16000000000001,66.96000000000001 71.20000000000002,86 C 74.24000000000001,105.03999999999999 79.52,105.2 81.6,110 L 81.6 110 C 79.52 105.2 74.24000000000001 105.03999999999999 71.20000000000002 86 C 68.16000000000001 66.96000000000001 71.52000000000001 18.800000000000068 66.4 14.800000000000068 C 61.28 10.800000000000068 51.199999999999996 65.2 45.599999999999994 66 C 39.99999999999999 66.8 40.96 26.800000000000068 38.400000000000006 18.800000000000068 C 35.84000000000001 10.800000000000066 38.08000000000001 7.920000000000002 32.80000000000001 26 C 27.520000000000014 44.08 16.16 92.56000000000003 12 109.20000000000005 z" /><glyph glyph-name="N" unicode="N" horiz-adv-x="55.19999999999999" d="M 8,112.40000000000009 C 12.16,94.32000000000008 23.199999999999996,23.28000000000002 28.799999999999997,22 C 34.4,20.71999999999998 29.28000000000001,94.63999999999999 36,106 C 42.72,117.36000000000001 52.15999999999998,93.68000000000006 62.39999999999998,78.80000000000007 C 72.63999999999997,63.92000000000007 82.23999999999998,41.040000000000035 87.19999999999999,31.600000000000023 L 87.19999999999999 31.600000000000023 C 82.23999999999998 41.040000000000035 72.63999999999997 63.92000000000007 62.39999999999998 78.80000000000007 C 52.15999999999998 93.68000000000006 42.72 117.36000000000001 36 106 C 29.28000000000001 94.63999999999999 34.4 20.71999999999998 28.799999999999997 22 C 23.199999999999996 23.28000000000002 12.16 94.32000000000008 8 112.40000000000009 z" /><glyph glyph-name="O" unicode="O" horiz-adv-x="157.2" d="M 65.8,40.40000000000009 C 60.519999999999996,41.680000000000085 48.52,41.840000000000074 39.400000000000006,46.80000000000007 C 30.28000000000001,51.76000000000006 24.360000000000007,56.40000000000005 20.200000000000003,65.20000000000005 C 16.040000000000003,74.00000000000004 14.440000000000005,82.48000000000006 18.6,90.80000000000007 C 22.76,99.12000000000008 28.68,104.08000000000007 41,106.80000000000007 C 53.32,109.52000000000007 69.96000000000001,107.9200000000001 80.2,104.40000000000009 C 90.44,100.88000000000008 89.8,95.44000000000005 92.2,89.20000000000005 C 94.60000000000001,82.96000000000004 95.08,82.16000000000004 92.2,73.20000000000005 C 89.32000000000001,64.24000000000005 84.36,52.40000000000009 77.8,44.40000000000009 C 71.24,36.40000000000009 63.080000000000005,35.440000000000055 59.400000000000006,33.200000000000045 L 59.400000000000006 33.200000000000045 C 63.080000000000005 35.440000000000055 71.24 36.40000000000009 77.8 44.40000000000009 C 84.36 52.40000000000009 89.32000000000001 64.24000000000005 92.2 73.20000000000005 C 95.08 82.16000000000004 94.60000000000001 82.96000000000004 92.2 89.20000000000005 C 89.8 95.44000000000005 90.44 100.88000000000008 80.2 104.40000000000009 C 69.96000000000001 107.9200000000001 53.32 109.52000000000007 41 106.80000000000007 C 28.68 104.08000000000007 22.76 99.12000000000008 18.6 90.80000000000007 C 14.440000000000005 82.48000000000006 16.040000000000003 74.00000000000004 20.200000000000003 65.20000000000005 C 24.360000000000007 56.40000000000005 30.28000000000001 51.76000000000006 39.400000000000006 46.80000000000007 C 48.52 41.840000000000074 60.519999999999996 41.680000000000085 65.8 40.40000000000009 z" /><glyph glyph-name="P" unicode="P" horiz-adv-x="18.799999999999983" d="M 6,98 C 9.600000000000001,80.02000000000001 16.307499999999997,26.88750000000002 23.999999999999993,8.100000000000037 C 31.692499999999992,-10.687499999999943 36.86249999999999,1.7625000000000965 44.46249999999999,4.062500000000094 C 52.06249999999999,6.362500000000091 60.412499999999994,11.692500000000038 62,19.600000000000023 C 63.5875,27.507500000000007 58.96000000000001,38.16000000000001 52.400000000000006,43.60000000000002 C 45.84,49.04000000000003 38.31999999999999,47.600000000000065 29.19999999999999,46.80000000000007 C 20.079999999999988,46.000000000000064 11.279999999999996,41.040000000000035 6.799999999999997,39.60000000000002 L 6.799999999999997 39.60000000000002 C 11.279999999999996 41.040000000000035 20.079999999999988 46.000000000000064 29.19999999999999 46.80000000000007 C 38.31999999999999 47.600000000000065 45.84 49.04000000000003 52.400000000000006 43.60000000000002 C 58.96000000000001 38.16000000000001 63.5875 27.507500000000007 62 19.600000000000023 C 60.412499999999994 11.692500000000038 52.06249999999999 6.362500000000091 44.46249999999999 4.062500000000094 C 36.86249999999999 1.7625000000000965 31.692499999999992 -10.687499999999943 23.999999999999993 8.100000000000037 C 16.307499999999997 26.88750000000002 9.600000000000001 80.02000000000001 6 98 z" /><glyph glyph-name="Q" unicode="Q" horiz-adv-x="271.20000000000005" d="M 135.20000000000002,34 C 131.04000000000002,31.760000000000012 123.04,25.360000000000056 114.4,22.800000000000068 C 105.76,20.24000000000008 101.44,18.960000000000058 92,21.200000000000045 C 82.56,23.440000000000033 72.96000000000001,29.2 67.2,34 C 61.44,38.8 60,36.56000000000004 63.2,45.200000000000045 C 66.4,53.84000000000005 74.56,69.36000000000004 83.2,77.20000000000005 C 91.84,85.04000000000005 97.28,84.7200000000001 106.4,84.40000000000009 C 115.52000000000001,84.08000000000008 121.76000000000002,80.72000000000003 128.8,75.60000000000002 C 135.84,70.48000000000002 139.04,67.44000000000005 141.6,58.80000000000007 C 144.16,50.16000000000008 144.7,38.1200000000001 141.6,32.40000000000009 C 138.5,26.680000000000085 130.74,26.520000000000042 126.10000000000001,30.20000000000004 C 121.46000000000001,33.88000000000004 119.62,40.280000000000065 118.4,50.80000000000007 C 117.18,61.32000000000007 115.52,74.16000000000008 120,82.80000000000007 C 124.48,91.44000000000005 136.64000000000001,91.76000000000002 140.8,94 L 140.8 94 C 136.64000000000001 91.76000000000002 124.48 91.44000000000005 120 82.80000000000007 C 115.52 74.16000000000008 117.18 61.32000000000007 118.4 50.80000000000007 C 119.62 40.280000000000065 121.46000000000001 33.88000000000004 126.10000000000001 30.20000000000004 C 130.74 26.520000000000042 138.5 26.680000000000085 141.6 32.40000000000009 C 144.7 38.1200000000001 144.16 50.16000000000008 141.6 58.80000000000007 C 139.04 67.44000000000005 135.84 70.48000000000002 128.8 75.60000000000002 C 121.76000000000002 80.72000000000003 115.52000000000001 84.08000000000008 106.4 84.40000000000009 C 97.28 84.7200000000001 91.84 85.04000000000005 83.2 77.20000000000005 C 74.56 69.36000000000004 66.4 53.84000000000005 63.2 45.200000000000045 C 60 36.56000000000004 61.44 38.8 67.2 34 C 72.96000000000001 29.2 82.56 23.440000000000033 92 21.200000000000045 C 101.44 18.960000000000058 105.76 20.24000000000008 114.4 22.800000000000068 C 123.04 25.360000000000056 131.04000000000002 31.760000000000012 135.20000000000002 34 z" /><glyph glyph-name="R" unicode="R" horiz-adv-x="286.40000000000003" d="M 76.80000000000001,41.200000000000045 C 77.60000000000001,51.12000000000005 80.32000000000001,94.00000000000007 80.80000000000001,90.80000000000007 C 81.28000000000002,87.60000000000007 69.60000000000001,35.280000000000044 79.2,25.200000000000045 C 88.8,15.120000000000049 119.04,33.680000000000085 128.8,40.40000000000009 C 138.56,47.1200000000001 136.64,54.48000000000008 128,58.80000000000007 C 119.36,63.12000000000005 85.60000000000001,54.48 85.60000000000001,62 C 85.60000000000001,69.52000000000001 119.36,91.12000000000008 128,96.40000000000009 C 136.64,101.6800000000001 128.64000000000001,90.00000000000009 128.8,88.40000000000009 L 128.8 88.40000000000009 C 128.64000000000001 90.00000000000009 136.64 101.6800000000001 128 96.40000000000009 C 119.36 91.12000000000008 85.60000000000001 69.52000000000001 85.60000000000001 62 C 85.60000000000001 54.48 119.36 63.12000000000005 128 58.80000000000007 C 136.64 54.48000000000008 138.56 47.1200000000001 128.8 40.40000000000009 C 119.04 33.680000000000085 88.8 15.120000000000049 79.2 25.200000000000045 C 69.60000000000001 35.280000000000044 81.28000000000002 87.60000000000007 80.80000000000001 90.80000000000007 C 80.32000000000001 94.00000000000007 77.60000000000001 51.12000000000005 76.80000000000001 41.200000000000045 z" /><glyph glyph-name="S" unicode="S" horiz-adv-x="205.2" d="M 110.19999999999999,33.200000000000045 C 102.52,32.56000000000004 82.67999999999999,25.999999999999996 71.8,30 C 60.919999999999995,34 49.72,42.64000000000003 55.8,53.200000000000045 C 61.879999999999995,63.76000000000006 93.23999999999998,71.28000000000006 102.19999999999999,82.80000000000007 C 111.15999999999998,94.32000000000008 111.63999999999999,104.08000000000007 100.6,110.80000000000007 C 89.56,117.52000000000007 57.72,115.28000000000009 47,116.40000000000009 L 47 116.40000000000009 C 57.72 115.28000000000009 89.56 117.52000000000007 100.6 110.80000000000007 C 111.63999999999999 104.08000000000007 111.15999999999998 94.32000000000008 102.19999999999999 82.80000000000007 C 93.23999999999998 71.28000000000006 61.879999999999995 63.76000000000006 55.8 53.200000000000045 C 49.72 42.64000000000003 60.919999999999995 34 71.8 30 C 82.67999999999999 25.999999999999996 102.52 32.56000000000004 110.19999999999999 33.200000000000045 z" /><glyph glyph-name="T" unicode="T" horiz-adv-x="94.80000000000001" d="M 24,30.800000000000068 C 54.56,32.40000000000007 149.92000000000002,37.04000000000008 176.8,38.80000000000007 C 203.68,40.56000000000006 162.08000000000004,39.44000000000003 158.40000000000003,39.60000000000002  L 158.40000000000003 39.60000000000002 C 162.08000000000004 39.44000000000003 203.68 40.56000000000006 176.8 38.80000000000007 C 149.92000000000002 37.04000000000008 54.56 32.40000000000007 24 30.800000000000068 z M 95.19999999999999,34.80000000000007 C 95.84,50.16000000000006 97.76000000000002,96.24000000000004 98.40000000000003,111.60000000000002 L 98.40000000000003 111.60000000000002 C 97.76000000000002 96.24000000000004 95.84 50.16000000000006 95.19999999999999 34.80000000000007 z" /><glyph glyph-name="U" unicode="U" horiz-adv-x="147.2" d="M 38.4,18 C 36.32,36.24000000000001 23.520000000000007,86.96000000000004 28,109.20000000000005 C 32.480000000000004,131.44000000000005 50.080000000000005,125.84000000000006 60.800000000000004,129.20000000000005 C 71.52000000000001,132.56000000000003 73.6,130.32 81.6,126 C 89.6,121.67999999999999 96.32000000000001,128.08 100.80000000000001,107.60000000000002 C 105.28000000000002,87.12000000000003 103.36,40.40000000000002 104,23.600000000000023 L 104 23.600000000000023 C 103.36 40.40000000000002 105.28000000000002 87.12000000000003 100.80000000000001 107.60000000000002 C 96.32000000000001 128.08 89.6 121.67999999999999 81.6 126 C 73.6 130.32 71.52000000000001 132.56000000000003 60.800000000000004 129.20000000000005 C 50.080000000000005 125.84000000000006 32.480000000000004 131.44000000000005 28 109.20000000000005 C 23.520000000000007 86.96000000000004 36.32 36.24000000000001 38.4 18 z" /><glyph glyph-name="V" unicode="V" horiz-adv-x="127.60000000000001" d="M 105.60000000000001,18.800000000000068 C 97.92,37.360000000000056 78.72,111.92000000000003 67.2,111.60000000000002 C 55.68,111.28000000000002 51.84,36.08000000000004 48,17.200000000000045 L 48 17.200000000000045 C 51.84 36.08000000000004 55.68 111.28000000000002 67.2 111.60000000000002 C 78.72 111.92000000000003 97.92 37.360000000000056 105.60000000000001 18.800000000000068 z" /><glyph glyph-name="W" unicode="W" horiz-adv-x="110.4" d="M 40.800000000000004,14 C 39.34875,24.72000000000002 34.02375,52.720000000000056 33.543749999999996,67.60000000000008 C 33.06374999999999,82.4800000000001 33.908750000000005,91.44000000000008 38.400000000000006,88.40000000000009 C 42.89125000000001,85.3600000000001 51.04,53.520000000000095 56,52.40000000000009 C 60.96,51.280000000000086 57.6,89.20000000000007 63.2,82.80000000000007 C 68.8,76.40000000000006 74.88,32.5600000000001 84,20.40000000000009 C 93.12,8.240000000000078 103.84,21.680000000000017 108.80000000000001,22 L 108.80000000000001 22 C 103.84 21.680000000000017 93.12 8.240000000000078 84 20.40000000000009 C 74.88 32.5600000000001 68.8 76.40000000000006 63.2 82.80000000000007 C 57.6 89.20000000000007 60.96 51.280000000000086 56 52.40000000000009 C 51.04 53.520000000000095 42.89125000000001 85.3600000000001 38.400000000000006 88.40000000000009 C 33.908750000000005 91.44000000000008 33.06374999999999 82.4800000000001 33.543749999999996 67.60000000000008 C 34.02375 52.720000000000056 39.34875 24.72000000000002 40.800000000000004 14 z" /><glyph glyph-name="X" unicode="X" horiz-adv-x="98.4" d="M 40.800000000000004,14.800000000000068 C 45.353750000000005,28.75250000000006 56.52874999999999,66.96250000000003 63.568749999999994,84.56250000000003 C 70.60874999999999,102.16250000000004 73.51375,99.15250000000006 76,102.80000000000007  L 76 102.80000000000007 C 73.51375 99.15250000000006 70.60874999999999 102.16250000000004 63.568749999999994 84.56250000000003 C 56.52874999999999 66.96250000000003 45.353750000000005 28.75250000000006 40.800000000000004 14.800000000000068 z M 93.60000000000001,10 C 87.84,14.64000000000001 76.96,15.44000000000003 64.8,33.200000000000045 C 52.64,50.960000000000065 39.2,85.68000000000006 32.800000000000004,98.80000000000007 L 32.800000000000004 98.80000000000007 C 39.2 85.68000000000006 52.64 50.960000000000065 64.8 33.200000000000045 C 76.96 15.44000000000003 87.84 14.64000000000001 93.60000000000001 10 z" /><glyph glyph-name="Y" unicode="Y" horiz-adv-x="127.60000000000002" d="M 56.800000000000004,12.400000000000091 C 60.160000000000004,18.80000000000009 70.24000000000001,38.00000000000009 73.60000000000001,44.40000000000009  L 73.60000000000001 44.40000000000009 C 70.24000000000001 38.00000000000009 60.160000000000004 18.80000000000009 56.800000000000004 12.400000000000091 z M 104.80000000000001,8.400000000000091 C 98.72000000000001,16.240000000000077 80.48,39.76000000000004 74.4,47.60000000000002  L 74.4 47.60000000000002 C 80.48 39.76000000000004 98.72000000000001 16.240000000000077 104.80000000000001 8.400000000000091 z M 74.4,45.200000000000045 C 74.56,55.600000000000044 75.04,86.80000000000004 75.2,97.20000000000005 L 75.2 97.20000000000005 C 75.04 86.80000000000004 74.56 55.600000000000044 74.4 45.200000000000045 z" /><glyph glyph-name="Z" unicode="Z" horiz-adv-x="73.20000000000002" d="M 28.8,30.800000000000068 C 44.8,32.56000000000006 110.88000000000001,29.520000000000024 108.80000000000001,39.60000000000002 C 106.72000000000001,49.68000000000002 23.520000000000003,71.92000000000004 18.400000000000002,81.20000000000005 C 13.279999999999998,90.48000000000005 70.24000000000001,85.04 83.2,86 L 83.2 86 C 70.24000000000001 85.04 13.279999999999998 90.48000000000005 18.400000000000002 81.20000000000005 C 23.520000000000003 71.92000000000004 106.72000000000001 49.68000000000002 108.80000000000001 39.60000000000002 C 110.88000000000001 29.520000000000024 44.8 32.56000000000006 28.8 30.800000000000068 z" /><glyph glyph-name="grave" unicode="`" horiz-adv-x="136.8" d="M 37.6,10.800000000000068 C 42.400000000000006,14.320000000000073 56.8,24.880000000000088 61.6,28.40000000000009 L 61.6 28.40000000000009 C 56.8 24.880000000000088 42.400000000000006 14.320000000000073 37.6 10.800000000000068 z" /><glyph glyph-name="one" unicode="1" horiz-adv-x="205.60000000000002" d="M 60,49.200000000000045 C 63.84,46.960000000000036 74.56,43.6 79.2,38 C 83.84,32.4 83.04,7.120000000000026 83.2,21.200000000000045 C 83.36,35.280000000000065 87.03999999999999,90.48000000000008 80,108.40000000000009 C 72.96,126.32000000000009 42.239999999999995,110.00000000000007 48,110.80000000000007 C 53.760000000000005,111.60000000000007 96.64000000000001,112.08000000000008 108.80000000000001,112.40000000000009 L 108.80000000000001 112.40000000000009 C 96.64000000000001 112.08000000000008 53.760000000000005 111.60000000000007 48 110.80000000000007 C 42.239999999999995 110.00000000000007 72.96 126.32000000000009 80 108.40000000000009 C 87.03999999999999 90.48000000000008 83.36 35.280000000000065 83.2 21.200000000000045 C 83.04 7.120000000000026 83.84 32.4 79.2 38 C 74.56 43.6 63.84 46.960000000000036 60 49.200000000000045 z" /><glyph glyph-name="two" unicode="2" horiz-adv-x="132.79999999999998" d="M 48,45.200000000000045 C 49.6,42.960000000000036 51.04,36.55999999999999 56,34 C 60.96,31.44000000000001 66.88,31.120000000000076 72.8,32.40000000000009 C 78.72,33.680000000000106 82.06,33.620000000000104 85.60000000000001,40.40000000000009 C 89.14000000000001,47.18000000000008 92.58,57.34000000000003 90.5,66.30000000000003 C 88.42,75.26000000000002 85.46000000000001,77.90000000000003 75.2,85.20000000000005 C 64.94,92.50000000000006 29.6,98.64000000000009 39.2,102.80000000000007 C 48.800000000000004,106.96000000000006 106.4,105.36000000000001 123.2,106 L 123.2 106 C 106.4 105.36000000000001 48.800000000000004 106.96000000000006 39.2 102.80000000000007 C 29.6 98.64000000000009 64.94 92.50000000000006 75.2 85.20000000000005 C 85.46000000000001 77.90000000000003 88.42 75.26000000000002 90.5 66.30000000000003 C 92.58 57.34000000000003 89.14000000000001 47.18000000000008 85.60000000000001 40.40000000000009 C 82.06 33.620000000000104 78.72 33.680000000000106 72.8 32.40000000000009 C 66.88 31.120000000000076 60.96 31.44000000000001 56 34 C 51.04 36.55999999999999 49.6 42.960000000000036 48 45.200000000000045 z" /><glyph glyph-name="three" unicode="3" horiz-adv-x="164" d="M 51.2,25.200000000000045 C 57.410000000000004,25.08375000000005 73.29,22.538750000000086 82.25,24.618750000000084 C 91.21,26.69875000000008 93.08999999999999,30.203750000000035 96,35.60000000000002 C 98.91,40.99625000000001 99.84,46.16000000000001 96.80000000000001,51.60000000000002 C 93.76000000000002,57.040000000000035 89.44000000000001,60.72000000000007 80.80000000000001,62.80000000000007 C 72.16000000000001,64.88000000000007 52.480000000000004,60.4 53.6,62 C 54.72,63.6 80.48,62.80000000000007 86.4,70.80000000000007 C 92.32000000000001,78.80000000000007 90.88,94.16000000000001 83.2,102 C 75.52,109.83999999999999 57.6,110.63999999999999 48,110 C 38.4,109.36000000000001 37.760000000000005,101.04000000000005 35.2,98.80000000000007 L 35.2 98.80000000000007 C 37.760000000000005 101.04000000000005 38.4 109.36000000000001 48 110 C 57.6 110.63999999999999 75.52 109.83999999999999 83.2 102 C 90.88 94.16000000000001 92.32000000000001 78.80000000000007 86.4 70.80000000000007 C 80.48 62.80000000000007 54.72 63.6 53.6 62 C 52.480000000000004 60.4 72.16000000000001 64.88000000000007 80.80000000000001 62.80000000000007 C 89.44000000000001 60.72000000000007 93.76000000000002 57.040000000000035 96.80000000000001 51.60000000000002 C 99.84 46.16000000000001 98.91 40.99625000000001 96 35.60000000000002 C 93.08999999999999 30.203750000000035 91.21 26.69875000000008 82.25 24.618750000000084 C 73.29 22.538750000000086 57.410000000000004 25.08375000000005 51.2 25.200000000000045 z" /><glyph glyph-name="four" unicode="4" horiz-adv-x="161.60000000000002" d="M 36,14.800000000000068 C 36.32,22.16000000000006 27.2,44.880000000000024 37.6,51.60000000000002 C 48,58.32000000000003 77.92,49.04000000000008 88,48.40000000000009  L 88 48.40000000000009 C 77.92 49.04000000000008 48 58.32000000000003 37.6 51.60000000000002 C 27.2 44.880000000000024 36.32 22.16000000000006 36 14.800000000000068 z M 67.2,14.800000000000068 C 67.2,29.200000000000067 67.2,72.40000000000006 67.2,86.80000000000007 L 67.2 86.80000000000007 C 67.2 72.40000000000006 67.2 29.200000000000067 67.2 14.800000000000068 z" /><glyph glyph-name="five" unicode="5" horiz-adv-x="194.40000000000003" d="M 46.400000000000006,30.800000000000068 C 47.36000000000001,37.20000000000007 48.160000000000004,58.16000000000008 51.2,62.80000000000007 C 54.24,67.44000000000005 56.32,55.92 61.6,54 C 66.88000000000001,52.08 69.60000000000001,46.48000000000004 77.60000000000001,53.200000000000045 C 85.60000000000001,59.92000000000005 97.60000000000001,78.64000000000003 101.60000000000001,87.60000000000002 C 105.60000000000001,96.56000000000002 102.08000000000001,94.32000000000001 97.60000000000001,98 C 93.12,101.67999999999999 85.17,104.05 79.2,106 C 73.23,107.95 73.03,109.19 67.75,107.75000000000001 C 62.47,106.31000000000003 55.790000000000006,100.59000000000006 52.800000000000004,98.80000000000007  L 52.800000000000004 98.80000000000007 C 55.790000000000006 100.59000000000006 62.47 106.31000000000003 67.75 107.75000000000001 C 73.03 109.19 73.23 107.95 79.2 106 C 85.17 104.05 93.12 101.67999999999999 97.60000000000001 98 C 102.08000000000001 94.32000000000001 105.60000000000001 96.56000000000002 101.60000000000001 87.60000000000002 C 97.60000000000001 78.64000000000003 85.60000000000001 59.92000000000005 77.60000000000001 53.200000000000045 C 69.60000000000001 46.48000000000004 66.88000000000001 52.08 61.6 54 C 56.32 55.92 54.24 67.44000000000005 51.2 62.80000000000007 C 48.160000000000004 58.16000000000008 47.36000000000001 37.20000000000007 46.400000000000006 30.800000000000068 z M 48.800000000000004,28.40000000000009 C 57.440000000000005,29.20000000000009 83.36,31.60000000000009 92,32.40000000000009 L 92 32.40000000000009 C 83.36 31.60000000000009 57.440000000000005 29.20000000000009 48.800000000000004 28.40000000000009 z" /><glyph glyph-name="six" unicode="6" horiz-adv-x="167.2" d="M 60.8,46.80000000000007 C 59.68,42.16000000000006 59.040000000000006,28.08000000000002 55.2,23.600000000000023 C 51.36,19.120000000000026 47.04999999999999,13.880000000000079 41.599999999999994,24.40000000000009 C 36.15,34.9200000000001 29.869999999999997,61.64000000000008 27.950000000000003,76.20000000000007 C 26.030000000000005,90.76000000000006 25.59,91.88000000000005 32,97.20000000000005 C 38.41,102.52000000000004 54.24,106.64000000000007 60,102.80000000000007 C 65.76,98.96000000000006 65.11999999999999,84.56000000000002 60.8,78 C 56.48,71.43999999999998 43.52,69.03999999999999 38.400000000000006,70 C 33.28000000000001,70.96000000000001 35.84,80.24000000000005 35.2,82.80000000000007 L 35.2 82.80000000000007 C 35.84 80.24000000000005 33.28000000000001 70.96000000000001 38.400000000000006 70 C 43.52 69.03999999999999 56.48 71.43999999999998 60.8 78 C 65.11999999999999 84.56000000000002 65.76 98.96000000000006 60 102.80000000000007 C 54.24 106.64000000000007 38.41 102.52000000000004 32 97.20000000000005 C 25.59 91.88000000000005 26.030000000000005 90.76000000000006 27.950000000000003 76.20000000000007 C 29.869999999999997 61.64000000000008 36.15 34.9200000000001 41.599999999999994 24.40000000000009 C 47.04999999999999 13.880000000000079 51.36 19.120000000000026 55.2 23.600000000000023 C 59.040000000000006 28.08000000000002 59.68 42.16000000000006 60.8 46.80000000000007 z" /><glyph glyph-name="seven" unicode="7" horiz-adv-x="238.4" d="M 61.6,29.200000000000045 C 61.92,27.440000000000055 52.480000000000004,20.40000000000009 63.2,20.40000000000009 C 73.92,20.40000000000009 112.32,14.160000000000059 115.2,29.200000000000045 C 118.08,44.24000000000003 85.12,82.32000000000004 77.60000000000001,95.60000000000002 L 77.60000000000001 95.60000000000002 C 85.12 82.32000000000004 118.08 44.24000000000003 115.2 29.200000000000045 C 112.32 14.160000000000059 73.92 20.40000000000009 63.2 20.40000000000009 C 52.480000000000004 20.40000000000009 61.92 27.440000000000055 61.6 29.200000000000045 z" /><glyph glyph-name="eight" unicode="8" horiz-adv-x="244.79999999999998" d="M 101.60000000000001,25.200000000000045 C 94.4,25.040000000000056 62.88000000000001,16.56000000000008 65.60000000000001,24.40000000000009 C 68.32000000000001,32.2400000000001 106.4,53.040000000000106 115.2,64.40000000000009 C 124,75.76000000000008 116.80000000000001,77.52000000000005 109.60000000000001,81.20000000000005 C 102.4,84.88000000000004 87.04,86.48000000000006 79.2,82.80000000000007 C 71.36,79.12000000000008 65.44000000000001,75.44000000000008 70.4,62.80000000000007 C 75.36,50.16000000000006 97.28,28.24000000000003 104,19.600000000000023 L 104 19.600000000000023 C 97.28 28.24000000000003 75.36 50.16000000000006 70.4 62.80000000000007 C 65.44000000000001 75.44000000000008 71.36 79.12000000000008 79.2 82.80000000000007 C 87.04 86.48000000000006 102.4 84.88000000000004 109.60000000000001 81.20000000000005 C 116.80000000000001 77.52000000000005 124 75.76000000000008 115.2 64.40000000000009 C 106.4 53.040000000000106 68.32000000000001 32.2400000000001 65.60000000000001 24.40000000000009 C 62.88000000000001 16.56000000000008 94.4 25.040000000000056 101.60000000000001 25.200000000000045 z" /><glyph glyph-name="nine" unicode="9" horiz-adv-x="252.8" d="M 112,39.60000000000002 C 109.44,34.800000000000026 108,16.720000000000027 99.2,15.600000000000023 C 90.4,14.480000000000018 66.88,26.320000000000004 68,34 C 69.12,41.67999999999999 95.04,57.83999999999999 104.80000000000001,54 C 114.56000000000002,50.16000000000001 116.00000000000001,4.560000000000059 116.80000000000001,14.800000000000068 C 117.60000000000001,25.040000000000077 110.4,87.12000000000005 108.80000000000001,105.20000000000005 L 108.80000000000001 105.20000000000005 C 110.4 87.12000000000005 117.60000000000001 25.040000000000077 116.80000000000001 14.800000000000068 C 116.00000000000001 4.560000000000059 114.56000000000002 50.16000000000001 104.80000000000001 54 C 95.04 57.83999999999999 69.12 41.67999999999999 68 34 C 66.88 26.320000000000004 90.4 14.480000000000018 99.2 15.600000000000023 C 108 16.720000000000027 109.44 34.800000000000026 112 39.60000000000002 z" /><glyph glyph-name="zero" unicode="0" horiz-adv-x="224.00000000000003" d="M 118.4,31.600000000000023 C 110.08000000000001,32.40000000000002 90.40000000000002,27.600000000000023 76.80000000000001,35.60000000000002 C 63.20000000000001,43.60000000000002 55.52,60.56000000000001 50.400000000000006,71.60000000000002 C 45.28,82.64000000000003 44.64,83.28000000000006 51.2,90.80000000000007 C 57.760000000000005,98.32000000000008 70.88,109.52000000000005 83.2,109.20000000000005 C 95.52000000000001,108.88000000000004 105.12000000000002,105.68000000000004 112.80000000000001,89.20000000000005 C 120.48000000000002,72.72000000000006 131.04000000000002,26.960000000000058 121.60000000000001,26.800000000000068 C 112.16000000000001,26.64000000000008 76.8,76.08000000000008 65.60000000000001,88.40000000000009 L 65.60000000000001 88.40000000000009 C 76.8 76.08000000000008 112.16000000000001 26.64000000000008 121.60000000000001 26.800000000000068 C 131.04000000000002 26.960000000000058 120.48000000000002 72.72000000000006 112.80000000000001 89.20000000000005 C 105.12000000000002 105.68000000000004 95.52000000000001 108.88000000000004 83.2 109.20000000000005 C 70.88 109.52000000000005 57.760000000000005 98.32000000000008 51.2 90.80000000000007 C 44.64 83.28000000000006 45.28 82.64000000000003 50.400000000000006 71.60000000000002 C 55.52 60.56000000000001 63.20000000000001 43.60000000000002 76.80000000000001 35.60000000000002 C 90.40000000000002 27.600000000000023 110.08000000000001 32.40000000000002 118.4 31.600000000000023 z" /><glyph glyph-name="hyphen" unicode="-" horiz-adv-x="148.8" d="M 40.800000000000004,66.80000000000007 C 46.080000000000005,66.96000000000006 61.92,67.44000000000003 67.2,67.60000000000002 L 67.2 67.60000000000002 C 61.92 67.44000000000003 46.080000000000005 66.96000000000006 40.800000000000004 66.80000000000007 z" /><glyph glyph-name="equal" unicode="=" horiz-adv-x="160" d="M 44.800000000000004,42 C 51.52,43.280000000000015 71.68,47.120000000000076 78.4,48.40000000000009  L 78.4 48.40000000000009 C 71.68 47.120000000000076 51.52 43.280000000000015 44.800000000000004 42 z M 40.800000000000004,58.80000000000007 C 48.00000000000001,60.08000000000006 69.60000000000001,63.92000000000005 76.80000000000001,65.20000000000005 L 76.80000000000001 65.20000000000005 C 69.60000000000001 63.92000000000005 48.00000000000001 60.08000000000006 40.800000000000004 58.80000000000007 z" /><glyph glyph-name="asciitilde" unicode="~" horiz-adv-x="182.4" d="M 44,81.20000000000005 C 45.92,79.12000000000005 48.32,69.84000000000007 53.6,70.80000000000007 C 58.88,71.76000000000006 62.24,83.92 70.4,86 C 78.56,88.08 89.60000000000001,82.16000000000004 94.4,81.20000000000005 L 94.4 81.20000000000005 C 89.60000000000001 82.16000000000004 78.56 88.08 70.4 86 C 62.24 83.92 58.88 71.76000000000006 53.6 70.80000000000007 C 48.32 69.84000000000007 45.92 79.12000000000005 44 81.20000000000005 z" /><glyph glyph-name="exclam" unicode="!" horiz-adv-x="223.2" d="M 65.60000000000001,94.80000000000007 C 67.68,85.36000000000006 72.8,58.800000000000026 76,47.60000000000002 C 79.2,36.40000000000002 78.08000000000001,41.040000000000056 81.60000000000001,38.80000000000007 C 85.12,36.56000000000008 95.52000000000001,24.2400000000001 93.60000000000001,36.40000000000009 C 91.68,48.56000000000009 76.32,86.96000000000004 72,99.60000000000002  L 72 99.60000000000002 C 76.32 86.96000000000004 91.68 48.56000000000009 93.60000000000001 36.40000000000009 C 95.52000000000001 24.2400000000001 85.12 36.56000000000008 81.60000000000001 38.80000000000007 C 78.08000000000001 41.040000000000056 79.2 36.40000000000002 76 47.60000000000002 C 72.8 58.800000000000026 67.68 85.36000000000006 65.60000000000001 94.80000000000007 z M 69.60000000000001,117.20000000000005 C 69.28,115.44000000000005 68.96000000000001,108.40000000000009 68,108.40000000000009 C 67.03999999999999,108.40000000000009 62.72,114.48000000000006 64.8,117.20000000000005 C 66.88,119.92000000000003 77.76,123.12 78.4,122 C 79.04,120.88 70.08,113.68000000000002 68,111.60000000000002 L 68 111.60000000000002 C 70.08 113.68000000000002 79.04 120.88 78.4 122 C 77.76 123.12 66.88 119.92000000000003 64.8 117.20000000000005 C 62.72 114.48000000000006 67.03999999999999 108.40000000000009 68 108.40000000000009 C 68.96000000000001 108.40000000000009 69.28 115.44000000000005 69.60000000000001 117.20000000000005 z" /><glyph glyph-name="at" unicode="@" horiz-adv-x="157.60000000000002" d="M 75.2,62 C 75.2,59.6 76.8,52.879999999999995 75.2,50 C 73.60000000000001,47.120000000000005 70.12,45.13000000000002 67.2,47.60000000000002 C 64.28,50.07000000000003 58.84000000000001,58.03000000000002 60.60000000000001,62.35000000000003 C 62.36000000000001,66.67000000000003 70.52,71.03000000000004 76,69.20000000000005 C 81.48,67.37000000000005 87.2,58.00000000000004 88,53.200000000000045 C 88.8,48.40000000000005 84.8,47.280000000000044 80,45.200000000000045 C 75.2,43.12000000000005 68.64,42.00000000000007 64,42.80000000000007 C 59.36,43.600000000000065 58.88,44.40000000000004 56.800000000000004,49.200000000000045 C 54.720000000000006,54.00000000000004 50.239999999999995,61.520000000000074 53.6,66.80000000000007 C 56.96,72.08000000000007 67.2,74.32000000000002 73.60000000000001,75.60000000000002 C 80.00000000000001,76.88000000000002 83.52000000000001,78.64000000000003 85.60000000000001,73.20000000000005 C 87.68,67.76000000000006 87.2,58.48000000000009 84,48.40000000000009 C 80.8,38.32000000000009 76.64000000000001,28.40000000000007 69.60000000000001,22.800000000000068 C 62.56000000000001,17.200000000000067 55.36000000000001,19.600000000000094 48.800000000000004,20.40000000000009 C 42.24,21.200000000000088 40.32,13.040000000000074 36.800000000000004,26.800000000000068 C 33.28,40.56000000000006 25.92,73.20000000000005 31.200000000000003,89.20000000000005 C 36.480000000000004,105.20000000000005 52.16,103.92000000000007 63.2,106.80000000000007 C 74.24000000000001,109.68000000000006 80,117.36000000000004 86.4,103.60000000000002 C 92.80000000000001,89.84 93.44,51.120000000000005 95.2,38 L 95.2 38 C 93.44 51.120000000000005 92.80000000000001 89.84 86.4 103.60000000000002 C 80 117.36000000000004 74.24000000000001 109.68000000000006 63.2 106.80000000000007 C 52.16 103.92000000000007 36.480000000000004 105.20000000000005 31.200000000000003 89.20000000000005 C 25.92 73.20000000000005 33.28 40.56000000000006 36.800000000000004 26.800000000000068 C 40.32 13.040000000000074 42.24 21.200000000000088 48.800000000000004 20.40000000000009 C 55.36000000000001 19.600000000000094 62.56000000000001 17.200000000000067 69.60000000000001 22.800000000000068 C 76.64000000000001 28.40000000000007 80.8 38.32000000000009 84 48.40000000000009 C 87.2 58.48000000000009 87.68 67.76000000000006 85.60000000000001 73.20000000000005 C 83.52000000000001 78.64000000000003 80.00000000000001 76.88000000000002 73.60000000000001 75.60000000000002 C 67.2 74.32000000000002 56.96 72.08000000000007 53.6 66.80000000000007 C 50.239999999999995 61.520000000000074 54.720000000000006 54.00000000000004 56.800000000000004 49.200000000000045 C 58.88 44.40000000000004 59.36 43.600000000000065 64 42.80000000000007 C 68.64 42.00000000000007 75.2 43.12000000000005 80 45.200000000000045 C 84.8 47.280000000000044 88.8 48.40000000000005 88 53.200000000000045 C 87.2 58.00000000000004 81.48 67.37000000000005 76 69.20000000000005 C 70.52 71.03000000000004 62.36000000000001 66.67000000000003 60.60000000000001 62.35000000000003 C 58.84000000000001 58.03000000000002 64.28 50.07000000000003 67.2 47.60000000000002 C 70.12 45.13000000000002 73.60000000000001 47.120000000000005 75.2 50 C 76.8 52.879999999999995 75.2 59.6 75.2 62 z" /><glyph glyph-name="numbersign" unicode="#" horiz-adv-x="215.20000000000002" d="M 79.2,24.40000000000009 C 77.28,40.88000000000009 71.52,90.32000000000008 69.60000000000001,106.80000000000007  L 69.60000000000001 106.80000000000007 C 71.52 90.32000000000008 77.28 40.88000000000009 79.2 24.40000000000009 z M 98.4,28.40000000000009 C 96.96000000000001,43.600000000000094 92.64,89.20000000000009 91.2,104.40000000000009  L 91.2 104.40000000000009 C 92.64 89.20000000000009 96.96000000000001 43.600000000000094 98.4 28.40000000000009 z M 60.800000000000004,40.40000000000009 C 70.24000000000001,42.96000000000008 98.56,50.64000000000006 108,53.200000000000045  L 108 53.200000000000045 C 98.56 50.64000000000006 70.24000000000001 42.96000000000008 60.800000000000004 40.40000000000009 z M 53.6,68.40000000000009 C 64,70.64000000000007 95.2,77.36000000000004 105.60000000000001,79.60000000000002 L 105.60000000000001 79.60000000000002 C 95.2 77.36000000000004 64 70.64000000000007 53.6 68.40000000000009 z" /><glyph glyph-name="dollar" unicode="$" horiz-adv-x="247.20000000000002" d="M 116,42 C 111.2,38.960000000000015 99.36,26.000000000000068 92,26.800000000000068 C 84.64,27.600000000000065 75.36,37.52 79.2,46 C 83.04,54.48 104.80000000000001,57.520000000000024 111.2,69.20000000000005 C 117.60000000000001,80.88000000000007 119.84,98.48000000000009 111.2,104.40000000000009 C 102.56,110.32000000000009 76.64,99.92000000000007 68,98.80000000000007  L 68 98.80000000000007 C 76.64 99.92000000000007 102.56 110.32000000000009 111.2 104.40000000000009 C 119.84 98.48000000000009 117.60000000000001 80.88000000000007 111.2 69.20000000000005 C 104.80000000000001 57.520000000000024 83.04 54.48 79.2 46 C 75.36 37.52 84.64 27.600000000000065 92 26.800000000000068 C 99.36 26.000000000000068 111.2 38.960000000000015 116 42 z M 95.2,17.200000000000045 C 95.68,36.720000000000056 97.12,95.28000000000006 97.60000000000001,114.80000000000007 L 97.60000000000001 114.80000000000007 C 97.12 95.28000000000006 95.68 36.720000000000056 95.2 17.200000000000045 z" /><glyph glyph-name="percent" unicode="%" horiz-adv-x="211.20000000000002" d="M 56.800000000000004,17.200000000000045 C 53.120000000000005,22.000000000000046 38.720000000000006,36.88000000000004 38.400000000000006,41.200000000000045 C 38.080000000000005,45.52000000000005 52.160000000000004,43.280000000000065 55.2,38.80000000000007 C 58.24,34.32000000000007 53.92,22.800000000000068 53.6,18.800000000000068  L 53.6 18.800000000000068 C 53.92 22.800000000000068 58.24 34.32000000000007 55.2 38.80000000000007 C 52.160000000000004 43.280000000000065 38.080000000000005 45.52000000000005 38.400000000000006 41.200000000000045 C 38.720000000000006 36.88000000000004 53.120000000000005 22.000000000000046 56.800000000000004 17.200000000000045 z M 113.60000000000001,90.80000000000007 C 110.56,93.68000000000006 97.44,101.20000000000005 98.4,105.20000000000005 C 99.36,109.20000000000005 113.60000000000001,112.72000000000007 118.4,110.80000000000007 C 123.2,108.88000000000007 123.68,99.12000000000003 122.4,95.60000000000002 C 121.12,92.08000000000001 114.08,93.68000000000004 112,93.20000000000005  L 112 93.20000000000005 C 114.08 93.68000000000004 121.12 92.08000000000001 122.4 95.60000000000002 C 123.68 99.12000000000003 123.2 108.88000000000007 118.4 110.80000000000007 C 113.60000000000001 112.72000000000007 99.36 109.20000000000005 98.4 105.20000000000005 C 97.44 101.20000000000005 110.56 93.68000000000006 113.60000000000001 90.80000000000007 z M 136,18.800000000000068 C 124.32000000000001,32.88000000000007 96.00000000000001,71.76000000000006 77.60000000000001,89.20000000000005 C 59.20000000000002,106.64000000000004 50.72,102.64 44,106 L 44 106 C 50.72 102.64 59.20000000000002 106.64000000000004 77.60000000000001 89.20000000000005 C 96.00000000000001 71.76000000000006 124.32000000000001 32.88000000000007 136 18.800000000000068 z" /><glyph glyph-name="asciicircum" unicode="^" horiz-adv-x="179.20000000000002" d="M 50.400000000000006,41.200000000000045 C 52.800000000000004,37.84000000000005 56.800000000000004,24.56000000000008 62.400000000000006,24.40000000000009 C 68,24.2400000000001 75.2,37.20000000000009 78.4,40.40000000000009 L 78.4 40.40000000000009 C 75.2 37.20000000000009 68 24.2400000000001 62.400000000000006 24.40000000000009 C 56.800000000000004 24.56000000000008 52.800000000000004 37.84000000000005 50.400000000000006 41.200000000000045 z" /><glyph glyph-name="ampersand" unicode="&#x26;" horiz-adv-x="229.60000000000002" d="M 106.4,104.40000000000009 C 98.71000000000001,87.88000000000008 71.31,41.000000000000014 67.95,21.80000000000002 C 64.59,2.600000000000019 84.47000000000001,5.160000000000094 89.60000000000001,8.400000000000091 C 94.73,11.640000000000088 99.2,20.56000000000001 93.60000000000001,38 C 88,55.43999999999998 62.92,81.03 61.6,95.60000000000002 C 60.28,110.17000000000004 78.52,111.81000000000006 87,110.85000000000007 C 95.48,109.89000000000007 105.4,95.29000000000006 104,90.80000000000007 C 102.6,86.31000000000007 84.8,88.88000000000008 80,88.40000000000009 L 80 88.40000000000009 C 84.8 88.88000000000008 102.6 86.31000000000007 104 90.80000000000007 C 105.4 95.29000000000006 95.48 109.89000000000007 87 110.85000000000007 C 78.52 111.81000000000006 60.28 110.17000000000004 61.6 95.60000000000002 C 62.92 81.03 88 55.43999999999998 93.60000000000001 38 C 99.2 20.56000000000001 94.73 11.640000000000088 89.60000000000001 8.400000000000091 C 84.47000000000001 5.160000000000094 64.59 2.600000000000019 67.95 21.80000000000002 C 71.31 41.000000000000014 98.71000000000001 87.88000000000008 106.4 104.40000000000009 z" /><glyph glyph-name="asterisk" unicode="*" horiz-adv-x="227.2" d="M 54.400000000000006,50.80000000000007 C 68.16000000000001,51.120000000000076 121.92,44.88000000000009 123.2,52.40000000000009 C 124.48,59.920000000000094 69.28,93.5200000000001 60.800000000000004,88.40000000000009 C 52.32000000000001,83.28000000000009 73.92000000000002,26.480000000000086 80.80000000000001,26.800000000000068 C 87.68,27.12000000000005 100.32000000000001,85.19999999999999 95.2,90 C 90.08,94.8 63.2,58.64000000000006 55.2,50.80000000000007  L 55.2 50.80000000000007 C 63.2 58.64000000000006 90.08 94.8 95.2 90 C 100.32000000000001 85.19999999999999 87.68 27.12000000000005 80.80000000000001 26.800000000000068 C 73.92000000000002 26.480000000000086 52.32000000000001 83.28000000000009 60.800000000000004 88.40000000000009 C 69.28 93.5200000000001 124.48 59.920000000000094 123.2 52.40000000000009 C 121.92 44.88000000000009 68.16000000000001 51.120000000000076 54.400000000000006 50.80000000000007 z M 60.800000000000004,36.40000000000009 C 59.68000000000001,34.64000000000008 56.32,29.360000000000035 55.2,27.600000000000023  L 55.2 27.600000000000023 C 56.32 29.360000000000035 59.68000000000001 34.64000000000008 60.800000000000004 36.40000000000009 z M 92,35.60000000000002 C 94.4,34.32000000000003 101.6,30.48000000000004 104,29.200000000000045  L 104 29.200000000000045 C 101.6 30.48000000000004 94.4 34.32000000000003 92 35.60000000000002 z M 100.80000000000001,74 C 103.04,74.96000000000001 109.76,77.84000000000006 112,78.80000000000007  L 112 78.80000000000007 C 109.76 77.84000000000006 103.04 74.96000000000001 100.80000000000001 74 z M 58.400000000000006,73.20000000000005 C 57.120000000000005,73.84000000000006 53.28,75.76000000000008 52,76.40000000000009  L 52 76.40000000000009 C 53.28 75.76000000000008 57.120000000000005 73.84000000000006 58.400000000000006 73.20000000000005 z M 76,82.80000000000007 C 76.48,85.04000000000005 77.92,91.76000000000002 78.4,94 L 78.4 94 C 77.92 91.76000000000002 76.48 85.04000000000005 76 82.80000000000007 z" /><glyph glyph-name="parenleft" unicode="(" horiz-adv-x="199.20000000000002" d="M 98.4,14 C 92.64,15.440000000000008 78.84,10.877500000000028 69.60000000000001,21.200000000000045 C 60.36000000000001,31.522500000000058 56.02000000000001,51.162500000000044 52.2,65.61250000000004 C 48.38,80.06250000000003 46.85999999999999,84.57250000000002 50.5,93.45000000000002 C 54.14,102.32750000000001 66.42,106.69 70.4,110 L 70.4 110 C 66.42 106.69 54.14 102.32750000000001 50.5 93.45000000000002 C 46.85999999999999 84.57250000000002 48.38 80.06250000000003 52.2 65.61250000000004 C 56.02000000000001 51.162500000000044 60.36000000000001 31.522500000000058 69.60000000000001 21.200000000000045 C 78.84 10.877500000000028 92.64 15.440000000000008 98.4 14 z" /><glyph glyph-name="parenright" unicode=")" horiz-adv-x="324" d="M 96,17.200000000000045 C 103.22,24.040000000000045 131.46,33.48000000000003 132.1,51.40000000000004 C 132.74,69.32000000000005 105.78,95.72000000000006 99.2,106.80000000000007 L 99.2 106.80000000000007 C 105.78 95.72000000000006 132.74 69.32000000000005 132.1 51.40000000000004 C 131.46 33.48000000000003 103.22 24.040000000000045 96 17.200000000000045 z" /><glyph glyph-name="underscore" unicode="_" horiz-adv-x="217.6" d="M 36,106.80000000000007 C 57.28,107.60000000000007 121.12,110.00000000000007 142.4,110.80000000000007 L 142.4 110.80000000000007 C 121.12 110.00000000000007 57.28 107.60000000000007 36 106.80000000000007 z" /><glyph glyph-name="plus" unicode="+" horiz-adv-x="228" d="M 82.4,39.60000000000002 C 82.24000000000001,47.28000000000002 81.76,70.32000000000001 81.60000000000001,78  L 81.60000000000001 78 C 81.76 70.32000000000001 82.24000000000001 47.28000000000002 82.4 39.60000000000002 z M 66.4,51.60000000000002 C 72.16000000000001,52.56000000000004 89.44,55.440000000000076 95.2,56.40000000000009 L 95.2 56.40000000000009 C 89.44 55.440000000000076 72.16000000000001 52.56000000000004 66.4 51.60000000000002 z" /><glyph glyph-name="bracketleft" unicode="[" horiz-adv-x="109.2" d="M 88.80000000000001,11.600000000000023 C 84.16000000000001,11.920000000000027 73.76,-4.079999999999949 65.60000000000001,13.200000000000045 C 57.440000000000005,30.480000000000036 41.279999999999994,81.52000000000001 48,98 C 54.72,114.48 88.96000000000001,96.08000000000003 99.2,95.60000000000002 L 99.2 95.60000000000002 C 88.96000000000001 96.08000000000003 54.72 114.48 48 98 C 41.279999999999994 81.52000000000001 57.440000000000005 30.480000000000036 65.60000000000001 13.200000000000045 C 73.76 -4.079999999999949 84.16000000000001 11.920000000000027 88.80000000000001 11.600000000000023 z" /><glyph glyph-name="bracketright" unicode="]" horiz-adv-x="40.400000000000006" d="M -19.200000000000003,28.40000000000009 C -9.280000000000001,28.56000000000008 20.64,16.560000000000066 30.400000000000006,29.200000000000045 C 40.160000000000004,41.84000000000003 43.67999999999999,79.12000000000002 29.599999999999994,91.60000000000002 C 15.51999999999999,104.08000000000001 -26.08,91.60000000000002 -40,91.60000000000002 L -40 91.60000000000002 C -26.08 91.60000000000002 15.51999999999999 104.08000000000001 29.599999999999994 91.60000000000002 C 43.67999999999999 79.12000000000002 40.160000000000004 41.84000000000003 30.400000000000006 29.200000000000045 C 20.64 16.560000000000066 -9.280000000000001 28.56000000000008 -19.200000000000003 28.40000000000009 z" /><glyph glyph-name="backslash" unicode="\" horiz-adv-x="34.400000000000006" d="M -14,17.200000000000045 C 3.9200000000000017,43.12000000000005 57.67999999999998,120.88000000000007 75.6,146.80000000000007 L 75.6 146.80000000000007 C 57.67999999999998 120.88000000000007 3.9200000000000017 43.12000000000005 -14 17.200000000000045 z" /><glyph glyph-name="braceleft" unicode="{" horiz-adv-x="142" d="M 63,5.2000000000000455 C 55.32,9.200000000000045 27.499999999999993,18.780000000000044 24.599999999999994,25.200000000000045 C 21.699999999999992,31.620000000000047 49.61999999999999,33.78000000000005 48.49999999999999,37.300000000000054 C 47.379999999999995,40.82000000000006 20.580000000000002,39.78000000000006 19,42.80000000000007 C 17.42,45.82000000000008 40.279999999999994,46.00000000000009 40.599999999999994,52.40000000000009 C 40.919999999999995,58.80000000000009 19.47999999999999,65.84000000000007 20.599999999999994,74.80000000000007 C 21.719999999999995,83.76000000000006 41.08,92.72000000000006 46.2,97.20000000000005 L 46.2 97.20000000000005 C 41.08 92.72000000000006 21.719999999999995 83.76000000000006 20.599999999999994 74.80000000000007 C 19.47999999999999 65.84000000000007 40.919999999999995 58.80000000000009 40.599999999999994 52.40000000000009 C 40.279999999999994 46.00000000000009 17.42 45.82000000000008 19 42.80000000000007 C 20.580000000000002 39.78000000000006 47.379999999999995 40.82000000000006 48.49999999999999 37.300000000000054 C 49.61999999999999 33.78000000000005 21.699999999999992 31.620000000000047 24.599999999999994 25.200000000000045 C 27.499999999999993 18.780000000000044 55.32 9.200000000000045 63 5.2000000000000455 z" /><glyph glyph-name="braceright" unicode="}" horiz-adv-x="131.60000000000002" d="M 17,12.400000000000091 C 21.8,13.840000000000078 40.68,15.600000000000023 41,19.600000000000023 C 41.32,23.600000000000023 18.919999999999998,28.240000000000077 18.599999999999994,32.40000000000009 C 18.279999999999994,36.5600000000001 37.63999999999999,37.680000000000106 39.39999999999999,40.40000000000009 C 41.15999999999999,43.120000000000076 26.279999999999987,43.280000000000015 27.39999999999999,46 C 28.519999999999992,48.719999999999985 41.48,49.039999999999985 45,54 C 48.52,58.960000000000015 51.4,64.88000000000007 45,70.80000000000007 C 38.599999999999994,76.72000000000007 19.4,81.04000000000003 13,83.60000000000002 L 13 83.60000000000002 C 19.4 81.04000000000003 38.599999999999994 76.72000000000007 45 70.80000000000007 C 51.4 64.88000000000007 48.52 58.960000000000015 45 54 C 41.48 49.039999999999985 28.519999999999992 48.719999999999985 27.39999999999999 46 C 26.279999999999987 43.280000000000015 41.15999999999999 43.120000000000076 39.39999999999999 40.40000000000009 C 37.63999999999999 37.680000000000106 18.279999999999994 36.5600000000001 18.599999999999994 32.40000000000009 C 18.919999999999998 28.240000000000077 41.32 23.600000000000023 41 19.600000000000023 C 40.68 15.600000000000023 21.8 13.840000000000078 17 12.400000000000091 z" /><glyph glyph-name="bar" unicode="|" horiz-adv-x="222.4" d="M 81.60000000000001,15.600000000000023 C 79.36000000000001,34.64000000000003 72.64,91.76000000000006 70.4,110.80000000000007  L 70.4 110.80000000000007 C 72.64 91.76000000000006 79.36000000000001 34.64000000000003 81.60000000000001 15.600000000000023 z M 84.80000000000001,64.40000000000009 C 83.36000000000001,72.40000000000009 79.04,96.40000000000009 77.60000000000001,104.40000000000009  L 77.60000000000001 104.40000000000009 C 79.04 96.40000000000009 83.36000000000001 72.40000000000009 84.80000000000001 64.40000000000009 z M 68.8,50 C 69.92,42.64000000000001 73.28,20.560000000000038 74.4,13.200000000000045 L 74.4 13.200000000000045 C 73.28 20.560000000000038 69.92 42.64000000000001 68.8 50 z" /><glyph glyph-name="semicolon" unicode=";" horiz-adv-x="224.8" d="M 96,46.80000000000007 C 93.92,46.16000000000006 88.12,42.220000000000034 85.60000000000001,43.60000000000002 C 83.08000000000001,44.98000000000001 80.04,50.98000000000001 83.4,53.70000000000002 C 86.76,56.42000000000002 100.2,59.06000000000003 102.4,57.200000000000045 C 104.60000000000001,55.34000000000006 96,46.96000000000008 94.4,44.40000000000009  L 94.4 44.40000000000009 C 96 46.96000000000008 104.60000000000001 55.34000000000006 102.4 57.200000000000045 C 100.2 59.06000000000003 86.76 56.42000000000002 83.4 53.70000000000002 C 80.04 50.98000000000001 83.08000000000001 44.98000000000001 85.60000000000001 43.60000000000002 C 88.12 42.220000000000034 93.92 46.16000000000006 96 46.80000000000007 z M 95.2,69.20000000000005 C 94.4,73.36000000000004 94.56,84.4 91.2,90 C 87.84,95.6 79.36,97.36000000000004 78.4,97.20000000000005 C 77.44000000000001,97.04000000000005 84.80000000000001,90.80000000000004 86.4,89.20000000000005 L 86.4 89.20000000000005 C 84.80000000000001 90.80000000000004 77.44000000000001 97.04000000000005 78.4 97.20000000000005 C 79.36 97.36000000000004 87.84 95.6 91.2 90 C 94.56 84.4 94.4 73.36000000000004 95.2 69.20000000000005 z" /><glyph glyph-name="quotesingle" unicode="'" horiz-adv-x="226.4" d="M 71.2,23.600000000000023 C 73.76,26.32000000000003 81.44,34.48000000000004 84,37.200000000000045 L 84 37.200000000000045 C 81.44 34.48000000000004 73.76 26.32000000000003 71.2 23.600000000000023 z" /><glyph glyph-name="colon" unicode=":" horiz-adv-x="242.40000000000003" d="M 82.4,46 C 81.60000000000001,48.08000000000002 77.28,53.680000000000085 78.4,56.40000000000009 C 79.52000000000001,59.1200000000001 87.04,61.200000000000024 88,59.60000000000002 C 88.96,58.00000000000002 84.16,50.64000000000008 83.2,48.40000000000009  L 83.2 48.40000000000009 C 84.16 50.64000000000008 88.96 58.00000000000002 88 59.60000000000002 C 87.04 61.200000000000024 79.52000000000001 59.1200000000001 78.4 56.40000000000009 C 77.28 53.680000000000085 81.60000000000001 48.08000000000002 82.4 46 z M 82.4,90 C 83.2,92.4 87.52000000000001,100.08 86.4,102 C 85.28,103.92 77.76,101.68000000000002 76.80000000000001,99.60000000000002 C 75.84000000000002,97.52000000000002 80.64000000000001,93.20000000000002 81.60000000000001,91.60000000000002 L 81.60000000000001 91.60000000000002 C 80.64000000000001 93.20000000000002 75.84000000000002 97.52000000000002 76.80000000000001 99.60000000000002 C 77.76 101.68000000000002 85.28 103.92 86.4 102 C 87.52000000000001 100.08 83.2 92.4 82.4 90 z" /><glyph glyph-name="quotedbl" unicode="&#x22;" horiz-adv-x="267.20000000000005" d="M 79.2,24.40000000000009 C 79.84,28.080000000000087 81.76,39.120000000000076 82.4,42.80000000000007  L 82.4 42.80000000000007 C 81.76 39.120000000000076 79.84 28.080000000000087 79.2 24.40000000000009 z M 103.2,22.800000000000068 C 103.68,27.440000000000055 105.12,41.360000000000014 105.60000000000001,46 L 105.60000000000001 46 C 105.12 41.360000000000014 103.68 27.440000000000055 103.2 22.800000000000068 z" /><glyph glyph-name="comma" unicode="," horiz-adv-x="288.8" d="M 105.60000000000001,75.60000000000002 C 105.28,79.28000000000002 106.88,89.52000000000001 104,94 C 101.12,98.47999999999999 93.76,97.2 91.2,98 L 91.2 98 C 93.76 97.2 101.12 98.47999999999999 104 94 C 106.88 89.52000000000001 105.28 79.28000000000002 105.60000000000001 75.60000000000002 z" /><glyph glyph-name="period" unicode="." horiz-adv-x="300" d="M 100.80000000000001,82 C 99.36000000000001,82.48000000000002 91.84,82.48000000000009 93.60000000000001,84.40000000000009 C 95.36000000000001,86.32000000000009 105.76,92.72000000000003 109.60000000000001,91.60000000000002 C 113.44000000000001,90.48000000000002 114.72000000000001,81.04000000000005 112.80000000000001,78.80000000000007 C 110.88000000000001,76.56000000000009 100.96000000000001,78.6400000000001 100,80.40000000000009 C 99.03999999999999,82.16000000000008 107.67999999999999,87.44000000000003 108,87.60000000000002 C 108.32000000000001,87.76000000000002 102.88000000000001,82.48000000000005 101.60000000000001,81.20000000000005 L 101.60000000000001 81.20000000000005 C 102.88000000000001 82.48000000000005 108.32000000000001 87.76000000000002 108 87.60000000000002 C 107.67999999999999 87.44000000000003 99.03999999999999 82.16000000000008 100 80.40000000000009 C 100.96000000000001 78.6400000000001 110.88000000000001 76.56000000000009 112.80000000000001 78.80000000000007 C 114.72000000000001 81.04000000000005 113.44000000000001 90.48000000000002 109.60000000000001 91.60000000000002 C 105.76 92.72000000000003 95.36000000000001 86.32000000000009 93.60000000000001 84.40000000000009 C 91.84 82.48000000000009 99.36000000000001 82.48000000000002 100.80000000000001 82 z" /><glyph glyph-name="slash" unicode="/" horiz-adv-x="67.19999999999999" d="M 97.19999999999999,16.40000000000009 C 75.75999999999999,34.32000000000007 11.439999999999994,88.08000000000001 -10,106 L -10 106 C 11.439999999999994 88.08000000000001 75.75999999999999 34.32000000000007 97.19999999999999 16.40000000000009 z" /><glyph glyph-name="less" unicode="&#x3c;" horiz-adv-x="169.60000000000002" d="M 110.4,35.60000000000002 C 94.24000000000001,43.60000000000002 39.040000000000006,64.24000000000001 29.6,75.60000000000002 C 20.160000000000004,86.96000000000004 50.56,83.28000000000009 63.2,92.40000000000009 C 75.84,101.5200000000001 86.88000000000001,115.44000000000005 92.80000000000001,121.20000000000005 L 92.80000000000001 121.20000000000005 C 86.88000000000001 115.44000000000005 75.84 101.5200000000001 63.2 92.40000000000009 C 50.56 83.28000000000009 20.160000000000004 86.96000000000004 29.6 75.60000000000002 C 39.040000000000006 64.24000000000001 94.24000000000001 43.60000000000002 110.4 35.60000000000002 z" /><glyph glyph-name="greater" unicode="&#x3e;" horiz-adv-x="299.20000000000005" d="M 78.4,18.800000000000068 C 91.84,25.520000000000074 145.92,38.6400000000001 145.6,52.40000000000009 C 145.28,66.16000000000008 90.56,80.56000000000003 76.80000000000001,87.60000000000002 L 76.80000000000001 87.60000000000002 C 90.56 80.56000000000003 145.28 66.16000000000008 145.6 52.40000000000009 C 145.92 38.6400000000001 91.84 25.520000000000074 78.4 18.800000000000068 z" /><glyph glyph-name="question" unicode="?" horiz-adv-x="219.2" d="M 67.2,35.60000000000002 C 67.68,30.160000000000036 61.760000000000005,11.44000000000008 69.60000000000001,8.400000000000091 C 77.44000000000001,5.360000000000104 99.04,15.120000000000097 106.4,20.40000000000009 C 113.76,25.680000000000085 113.28,26.160000000000082 106.4,34.80000000000007 C 99.52000000000001,43.440000000000055 80,50.000000000000014 72,63.60000000000002 C 64,77.20000000000002 67.52,94.96000000000006 66.4,102.80000000000007  L 66.4 102.80000000000007 C 67.52 94.96000000000006 64 77.20000000000002 72 63.60000000000002 C 80 50.000000000000014 99.52000000000001 43.440000000000055 106.4 34.80000000000007 C 113.28 26.160000000000082 113.76 25.680000000000085 106.4 20.40000000000009 C 99.04 15.120000000000097 77.44000000000001 5.360000000000104 69.60000000000001 8.400000000000091 C 61.760000000000005 11.44000000000008 67.68 30.160000000000036 67.2 35.60000000000002 z M 62.400000000000006,114 C 61.120000000000005,114.96000000000001 56.480000000000004,118.80000000000007 56,118.80000000000007 C 55.519999999999996,118.80000000000007 59.2,114.96000000000001 60,114 L 60 114 C 59.2 114.96000000000001 55.519999999999996 118.80000000000007 56 118.80000000000007 C 56.480000000000004 118.80000000000007 61.120000000000005 114.96000000000001 62.400000000000006 114 z" /><glyph glyph-name="quotesingle" unicode="'" horiz-adv-x="226.4" d="M 71.2,23.600000000000023 C 73.76,26.32000000000003 81.44,34.48000000000004 84,37.200000000000045 L 84 37.200000000000045 C 81.44 34.48000000000004 73.76 26.32000000000003 71.2 23.600000000000023 z" /></font>
</defs>
</svg>
